{
.appVersion = "1268";
copyright = "Copyright (c) 2011-2013 by Balsamiq SRL. All rights reserved.";
customParameters = (
{
name = description;
value = "Copyright (c) 2011-2013 by Balsamiq SRL. All rights reserved.";
},
{
name = trademark;
value = "Balsamiq Sans Bold Italic is a trademark of Balsamiq SRL.";
},
{
name = licenseURL;
value = "http://scripts.sil.org/OFL";
},
{
name = license;
value = "Balsamiq Sans Font\012(c) 2011-2015 Michael Angeles for Balsamiq, SRL\012\012This font is licensed under the SIL OFL license: http://scripts.sil.org/OFL\012\012Reserved Font Name: Balsamiq";
},
{
name = vendorID;
value = "2ttf";
},
{
name = panose;
value = (
2,
0,
8,
3,
0,
0,
0,
0,
0,
0
);
},
{
name = unicodeRanges;
value = (
0,
1,
2,
3,
31,
33,
35,
37,
38,
39,
45,
46,
47,
48,
60,
62
);
},
{
name = codePageRanges;
value = (
1252,
1250,
1254,
1257,
"bit 29",
"bit 30"
);
},
{
name = fsType;
value = (
);
},
{
name = glyphOrder;
value = (
.notdef,
NULL,
CR,
space,
exclam,
quotedbl,
numbersign,
dollar,
percent,
ampersand,
quotesingle,
parenleft,
parenright,
asterisk,
plus,
comma,
hyphen,
period,
slash,
zero,
one,
two,
three,
four,
five,
six,
seven,
eight,
nine,
colon,
semicolon,
less,
equal,
greater,
question,
at,
A,
B,
C,
D,
E,
F,
G,
H,
I,
J,
K,
L,
M,
N,
O,
P,
Q,
R,
S,
T,
U,
V,
W,
X,
Y,
Z,
bracketleft,
backslash,
bracketright,
asciicircum,
underscore,
grave,
a,
b,
c,
d,
e,
f,
g,
h,
i,
j,
k,
l,
m,
n,
o,
p,
q,
r,
s,
t,
u,
v,
w,
x,
y,
z,
braceleft,
bar,
braceright,
asciitilde,
exclamdown,
cent,
sterling,
currency,
yen,
brokenbar,
section,
dieresis,
copyright,
ordfeminine,
guillemotleft,
logicalnot,
registered,
macron,
degree,
plusminus,
uni00B2,
uni00B3,
acute,
uni00B5,
paragraph,
periodcentered,
cedilla,
uni00B9,
ordmasculine,
guillemotright,
onequarter,
onehalf,
threequarters,
questiondown,
Agrave,
Aacute,
Acircumflex,
Atilde,
Adieresis,
Aring,
AE,
Ccedilla,
Egrave,
Eacute,
Ecircumflex,
Edieresis,
Igrave,
Iacute,
Icircumflex,
Idieresis,
Eth,
Ntilde,
Ograve,
Oacute,

glyphs = (
{
glyphname = .notdef;
layers = (
{
layerId = "C1D5D18F-17E8-4A1F-B101-925564B9D079";
paths = (
{
closed = 1;
nodes = (
"260 633 LINE",
"459 633 LINE",
"332 33 LINE",
"133 33 LINE",
"133 33 LINE"
);
},
{
closed = 1;
nodes = (
"358 0 LINE",
"499 666 LINE",
"234 666 LINE",
"93 0 LINE",
"93 0 LINE"
);
}
);
userData = {
assembly = "SVTCA[0]\011/* SetFreedomAndProjectionVectorToAxis */
PUSHW[ ]\011/* 1 value pushed */
0 
RCVT[ ]\011/* ReadCVT */
IF[ ]\011/* If */
PUSHW[ ]\011/* 1 value pushed */
4 
MDAP[1]\011/* MoveDirectAbsPt */
ELSE[ ]\011/* Else */
PUSHW[ ]\011/* 2 values pushed */
4 6 
MIAP[0]\011/* MoveIndirectAbsPt */
EIF[ ]\011/* EndIf */
PUSHW[ ]\011/* 4 values pushed */
6 2 2 4 
CALL[ ]\011/* CallFunction */
PUSHW[ ]\011/* 1 value pushed */
4 
SRP0[ ]\011/* SetRefPoint0 */
PUSHW[ ]\011/* 2 values pushed */
0 2 
MIRP[10100]\011/* MoveIndirectRelPt */
IUP[0]\011/* InterpolateUntPts */
IUP[1]\011/* InterpolateUntPts */";
};
width = 464;
}
);
note = .notdef;
},
{
glyphname = exclam;
layers = (
{
layerId = "C1D5D18F-17E8-4A1F-B101-925564B9D079";
paths = (
{
closed = 1;
nodes = (
"346 663 OFFCURVE",
"314 704 OFFCURVE",
"256 704 OFFCURVE",
"206 663 OFFCURVE",
"200 634 QCURVE SMOOTH",
"113 224 LINE SMOOTH",
"108 195 OFFCURVE",
"140 155 OFFCURVE",
"199 156 OFFCURVE",
"247 197 OFFCURVE",
"254 226 QCURVE SMOOTH",
"340 634 LINE",
"340 634 LINE"
);
},
{
closed = 1;
nodes = (
"189 117 OFFCURVE",
"131 117 OFFCURVE",
"82 76 OFFCURVE",
"69 18 OFFCURVE",
"102 -23 OFFCURVE",
"160 -23 OFFCURVE",
"209 18 OFFCURVE",
"222 76 OFFCURVE",
"205 96 QCURVE",
"205 96 LINE"
);
}
);
width = 273;
}
);
note = exclam;
unicode = 0021;
},
{
glyphname = quotedbl;
layers = (
{
layerId = "C1D5D18F-17E8-4A1F-B101-925564B9D079";
paths = (
{
closed = 1;
nodes = (
"498 673 OFFCURVE",
"465 713 OFFCURVE",
"407 712 OFFCURVE",
"358 671 OFFCURVE",
"352 642 QCURVE SMOOTH",
"337 566 OFFCURVE",
"316 476 QCURVE SMOOTH",
"310 447 OFFCURVE",
"341 405 OFFCURVE",
"397 404 OFFCURVE",
"448 444 OFFCURVE",
"455 472 QCURVE SMOOTH",
"477 566 OFFCURVE",
"492 644 QCURVE",
"492 644 LINE"
);
},
{
closed = 1;
nodes = (
"333 670 OFFCURVE",
"300 710 OFFCURVE",
"242 709 OFFCURVE",
"193 668 OFFCURVE",
"187 639 QCURVE SMOOTH",
"172 563 OFFCURVE",
"151 473 QCURVE SMOOTH",
"145 444 OFFCURVE",
"176 402 OFFCURVE",
"233 401 OFFCURVE",
"283 441 OFFCURVE",
"290 469 QCURVE SMOOTH",
"312 563 OFFCURVE",
"328 641 QCURVE",
"328 641 LINE"
);
}
);
width = 373;
}
);
note = quotedbl;
unicode = 0022;
},
{
glyphname = numbersign;
layers = (
{
layerId = "C1D5D18F-17E8-4A1F-B101-925564B9D079";
paths = (
{
closed = 1;
nodes = (
"470 538 OFFCURVE",
"441 537 QCURVE",
"454 580 OFFCURVE",
"467 620 QCURVE SMOOTH",
"477 648 OFFCURVE",
"452 694 OFFCURVE",
"397 702 OFFCURVE",
"343 667 OFFCURVE",
"333 638 QCURVE SMOOTH",
"315 587 OFFCURVE",
"300 533 QCURVE",
"272 533 LINE SMOOTH",
"243 532 OFFCURVE",
"194 491 OFFCURVE",
"183 433 OFFCURVE",
"215 393 OFFCURVE",
"244 393 QCURVE SMOOTH",
"252 393 OFFCURVE",
"260 394 QCURVE",
"250 357 LINE",
"236 300 LINE",
"212 300 OFFCURVE",
"185 299 QCURVE SMOOTH",
"156 298 OFFCURVE",
"107 256 OFFCURVE",
"97 198 OFFCURVE",
"130 158 OFFCURVE",
"159 159 QCURVE SMOOTH",
"179 160 OFFCURVE",
"198 160 QCURVE",
"186 121 OFFCURVE",
"175 85 QCURVE SMOOTH",
"164 56 OFFCURVE",
"191 11 OFFCURVE",
"247 4 OFFCURVE",
"300 40 OFFCURVE",
"309 69 QCURVE SMOOTH",
"323 112 OFFCURVE",
"338 164 QCURVE",
"404 164 LINE",
"392 119 OFFCURVE",
"379 76 QCURVE SMOOTH",
"369 47 OFFCURVE",
"396 3 OFFCURVE",
"453 -3 OFFCURVE",
"505 33 OFFCURVE",
"514 62 QCURVE SMOOTH",
"529 111 OFFCURVE",
"544 164 QCURVE",
"570 164 OFFCURVE",
"596 163 QCURVE SMOOTH",
"624 163 OFFCURVE",
"675 203 OFFCURVE",
"688 261 OFFCURVE",
"657 302 OFFCURVE",
"628 303 QCURVE SMOOTH",
"604 303 OFFCURVE",
"579 304 QCURVE",
"585 325 OFFCURVE",
"590 349 QCURVE SMOOTH",
"594 370 OFFCURVE",
"601 399 QCURVE",
"623 399 OFFCURVE",
"645 398 QCURVE SMOOTH",
"674 397 OFFCURVE",
"724 437 OFFCURVE",
"739 495 OFFCURVE",
"708 537 OFFCURVE",
"679 538 QCURVE SMOOTH",
"657 538 OFFCURVE",
"633 539 QCURVE",
"644 588 OFFCURVE",
"655 629 QCURVE SMOOTH",
"662 658 OFFCURVE",
"632 700 OFFCURVE",
"575 703 OFFCURVE",
"525 664 OFFCURVE",
"516 635 QCURVE SMOOTH",
"505 592 OFFCURVE",
"493 538 QCURVE",
"493 538 LINE"
);
},
{
closed = 1;
nodes = (
"455 371 OFFCURVE",
"450 351 QCURVE SMOOTH",
"440 304 LINE",
"408 304 OFFCURVE",
"376 303 QCURVE",
"389 350 LINE",
"401 397 LINE",
"435 398 OFFCURVE",
"461 399 QCURVE",
"461 399 LINE"
);
}
);
userData = {
assembly = "SVTCA[0]\011/* SetFreedomAndProjectionVectorToAxis */
PUSHW[ ]\011/* 1 value pushed */
0 
RCVT[ ]\011/* ReadCVT */
IF[ ]\011/* If */
PUSHW[ ]\011/* 1 value pushed */
0 
MDAP[1]\011/* MoveDirectAbsPt */
ELSE[ ]\011/* Else */
PUSHW[ ]\011/* 2 values pushed */
0 10 
MIAP[0]\011/* MoveIndirectAbsPt */
EIF[ ]\011/* EndIf */
PUSHW[ ]\011/* 1 value pushed */
0 
RCVT[ ]\011/* ReadCVT */
IF[ ]\011/* If */
PUSHW[ ]\011/* 1 value pushed */
9 
MDAP[1]\011/* MoveDirectAbsPt */
ELSE[ ]\011/* Else */
PUSHW[ ]\011/* 2 values pushed */
9 10 
MIAP[0]\011/* MoveIndirectAbsPt */
EIF[ ]\011/* EndIf */
PUSHW[ ]\011/* 1 value pushed */
0 
RCVT[ ]\011/* ReadCVT */
IF[ ]\011/* If */
PUSHW[ ]\011/* 1 value pushed */
11 
MDAP[1]\011/* MoveDirectAbsPt */
ELSE[ ]\011/* Else */
PUSHW[ ]\011/* 2 values pushed */
11 10 
MIAP[0]\011/* MoveIndirectAbsPt */
EIF[ ]\011/* EndIf */
PUSHW[ ]\011/* 1 value pushed */
0 
RCVT[ ]\011/* ReadCVT */
IF[ ]\011/* If */
PUSHW[ ]\011/* 1 value pushed */
68 
MDAP[1]\011/* MoveDirectAbsPt */
ELSE[ ]\011/* Else */
PUSHW[ ]\011/* 2 values pushed */
68 10 
MIAP[0]\011/* MoveIndirectAbsPt */
EIF[ ]\011/* EndIf */
PUSHW[ ]\011/* 1 value pushed */
0 
RCVT[ ]\011/* ReadCVT */
IF[ ]\011/* If */
PUSHW[ ]\011/* 1 value pushed */
78 
MDAP[1]\011/* MoveDirectAbsPt */
ELSE[ ]\011/* Else */
PUSHW[ ]\011/* 2 values pushed */
78 10 
MIAP[0]\011/* MoveIndirectAbsPt */
EIF[ ]\011/* EndIf */
PUSHW[ ]\011/* 4 values pushed */
86 1 52 4 
CALL[ ]\011/* CallFunction */
PUSHW[ ]\011/* 1 value pushed */
9 
SRP0[ ]\011/* SetRefPoint0 */
PUSHW[ ]\011/* 2 values pushed */
16 1 
MIRP[10100]\011/* MoveIndirectRelPt */
NPUSHW[ ]\011/* 7 values pushed */
24 16 40 16 56 16 3 
DELTAP1[ ]\011/* DeltaExceptionP1 */
PUSHW[ ]\011/* 1 value pushed */
18 
MDRP[10000]\011/* MoveDirectRelPt */
PUSHW[ ]\011/* 1 value pushed */
18 
MDAP[1]\011/* MoveDirectAbsPt */
PUSHW[ ]\011/* 1 value pushed */
86 
SRP0[ ]\011/* SetRefPoint0 */
PUSHW[ ]\011/* 1 value pushed */
22 
MDRP[10000]\011/* MoveDirectRelPt */
PUSHW[ ]\011/* 1 value pushed */
86 
SRP0[ ]\011/* SetRefPoint0 */
PUSHW[ ]\011/* 1 value pushed */
24 
MDRP[10000]\011/* MoveDirectRelPt */
PUSHW[ ]\011/* 1 value pushed */
24 
MDAP[1]\011/* MoveDirectAbsPt */
PUSHW[ ]\011/* 1 value pushed */
52 
SRP0[ ]\011/* SetRefPoint0 */
PUSHW[ ]\011/* 1 value pushed */
29 
MDRP[10000]\011/* MoveDirectRelPt */
PUSHW[ ]\011/* 1 value pushed */
29 
MDAP[1]\011/* MoveDirectAbsPt */
PUSHW[ ]\011/* 1 value pushed */
52 
SRP0[ ]\011/* SetRefPoint0 */
PUSHW[ ]\011/* 1 value pushed */
31 
MDRP[10000]\011/* MoveDirectRelPt */
PUSHW[ ]\011/* 1 value pushed */
31 
MDAP[1]\011/* MoveDirectAbsPt */
PUSHW[ ]\011/* 1 value pushed */
52 
SRP0[ ]\011/* SetRefPoint0 */
PUSHW[ ]\011/* 1 value pushed */
40 
MDRP[10000]\011/* MoveDirectRelPt */
PUSHW[ ]\011/* 1 value pushed */
40 
MDAP[1]\011/* MoveDirectAbsPt */
PUSHW[ ]\011/* 1 value pushed */
52 
SRP0[ ]\011/* SetRefPoint0 */
PUSHW[ ]\011/* 1 value pushed */
50 
MDRP[10000]\011/* MoveDirectRelPt */
PUSHW[ ]\011/* 1 value pushed */
50 
MDAP[1]\011/* MoveDirectAbsPt */
PUSHW[ ]\011/* 1 value pushed */
86 
SRP0[ ]\011/* SetRefPoint0 */
PUSHW[ ]\011/* 1 value pushed */
57 
MDRP[10000]\011/* MoveDirectRelPt */
PUSHW[ ]\011/* 1 value pushed */
57 
MDAP[1]\011/* MoveDirectAbsPt */
PUSHW[ ]\011/* 1 value pushed */
86 
SRP0[ ]\011/* SetRefPoint0 */
PUSHW[ ]\011/* 1 value pushed */
59 
MDRP[10000]\011/* MoveDirectRelPt */
PUSHW[ ]\011/* 1 value pushed */
59 
MDAP[1]\011/* MoveDirectAbsPt */
PUSHW[ ]\011/* 1 value pushed */
18 
SRP0[ ]\011/* SetRefPoint0 */
PUSHW[ ]\011/* 1 value pushed */
63 
MDRP[10000]\011/* MoveDirectRelPt */
PUSHW[ ]\011/* 1 value pushed */
63 
MDAP[1]\011/* MoveDirectAbsPt */
PUSHW[ ]\011/* 3 values pushed */
61 18 63 
SRP1[ ]\011/* SetRefPoint1 */
SRP2[ ]\011/* SetRefPoint2 */
IP[ ]\011/* InterpolatePts */
PUSHW[ ]\011/* 1 value pushed */
80 
MDRP[10000]\011/* MoveDirectRelPt */
PUSHW[ ]\011/* 1 value pushed */
80 
MDAP[1]\011/* MoveDirectAbsPt */
PUSHW[ ]\011/* 1 value pushed */
82 
MDRP[10000]\011/* MoveDirectRelPt */
PUSHW[ ]\011/* 1 value pushed */
82 
MDAP[1]\011/* MoveDirectAbsPt */
PUSHW[ ]\011/* 1 value pushed */
86 
SRP0[ ]\011/* SetRefPoint0 */
PUSHW[ ]\011/* 1 value pushed */
84 
MDRP[10000]\011/* MoveDirectRelPt */
PUSHW[ ]\011/* 1 value pushed */
84 
MDAP[1]\011/* MoveDirectAbsPt */
IUP[0]\011/* InterpolateUntPts */
IUP[1]\011/* InterpolateUntPts */";
};
width = 643;
}
);
note = numbersign;
unicode = 0023;
},
{
glyphname = dollar;
layers = (
{
layerId = "C1D5D18F-17E8-4A1F-B101-925564B9D079";
paths = (
{
closed = 1;
nodes = (
"480 240 OFFCURVE",
"490 233 QCURVE SMOOTH",
"514 216 OFFCURVE",
"514 194 QCURVE SMOOTH",
"514 179 OFFCURVE",
"478 142 OFFCURVE",
"436 129 QCURVE",
"449 183 OFFCURVE",
"463 248 QCURVE",
"463 248 LINE"
);
},
{
closed = 1;
nodes = (
"364 437 LINE",
"356 440 OFFCURVE",
"349 443 QCURVE SMOOTH",
"307 460 OFFCURVE",
"300 478 QCURVE SMOOTH",
"289 502 OFFCURVE",
"309 524 QCURVE SMOOTH",
"335 555 OFFCURVE",
"380 565 QCURVE SMOOTH",
"392 567 LINE",
"392 567 LINE"
);
},
{
closed = 1;
nodes = (
"558 428 OFFCURVE",
"606 404 OFFCURVE",
"664 423 OFFCURVE",
"700 476 OFFCURVE",
"696 503 QCURVE SMOOTH",
"695 510 OFFCURVE",
"694 532 OFFCURVE",
"694 534 QCURVE SMOOTH",
"691 567 OFFCURVE",
"680 588 QCURVE SMOOTH",
"646 659 OFFCURVE",
"561 690 QCURVE",
"564 716 OFFCURVE",
"534 753 OFFCURVE",
"508 754 QCURVE SMOOTH",
"485 755 OFFCURVE",
"441 729 OFFCURVE",
"429 708 QCURVE",
"404 706 OFFCURVE",
"379 701 QCURVE SMOOTH",
"331 691 OFFCURVE",
"241 639 OFFCURVE",
"208 601 QCURVE SMOOTH",
"170 556 OFFCURVE",
"145 456 OFFCURVE",
"166 402 QCURVE SMOOTH",
"190 346 OFFCURVE",
"270 313 QCURVE SMOOTH",
"295 303 OFFCURVE",
"333 291 QCURVE",
"312 189 OFFCURVE",
"294 118 QCURVE",
"252 128 OFFCURVE",
"243 147 QCURVE SMOOTH",
"240 154 OFFCURVE",
"240 171 QCURVE SMOOTH",
"240 176 OFFCURVE",
"240 194 OFFCURVE",
"239 195 QCURVE",
"239 213 OFFCURVE",
"238 225 QCURVE SMOOTH",
"235 253 OFFCURVE",
"190 279 OFFCURVE",
"130 262 OFFCURVE",
"93 211 OFFCURVE",
"95 183 QCURVE",
"97 176 OFFCURVE",
"96 164 QCURVE",
"97 139 LINE SMOOTH",
"98 97 OFFCURVE",
"111 71 QCURVE SMOOTH",
"144 -5 OFFCURVE",
"257 -22 QCURVE",
"252 -37 LINE SMOOTH",
"243 -66 OFFCURVE",
"271 -110 OFFCURVE",
"328 -115 OFFCURVE",
"380 -78 OFFCURVE",
"389 -49 QCURVE SMOOTH",
"398 -17 LINE",
"399 -17 LINE SMOOTH",
"431 -11 OFFCURVE",
"496 12 OFFCURVE",
"566 53 OFFCURVE",
"620 104 OFFCURVE",
"655 178 OFFCURVE",
"657 220 QCURVE SMOOTH",
"659 302 OFFCURVE",
"588 352 QCURVE SMOOTH",
"553 376 OFFCURVE",
"495 396 QCURVE",
"514 488 OFFCURVE",
"526 537 QCURVE",
"542 524 OFFCURVE",
"549 508 QCURVE",
"551 505 OFFCURVE",
"552 495 QCURVE SMOOTH",
"555 457 OFFCURVE",
"554 455 QCURVE",
"554 455 LINE"
);
}
);
userData = {
assembly = "PUSHW[ ]\011/* 4 values pushed */
31 4 5 4 
CALL[ ]\011/* CallFunction */
NPUSHW[ ]\011/* 7 values pushed */
25 5 41 5 57 5 3 
DELTAP1[ ]\011/* DeltaExceptionP1 */
PUSHW[ ]\011/* 3 values pushed */
25 5 31 
SRP1[ ]\011/* SetRefPoint1 */
SRP2[ ]\011/* SetRefPoint2 */
IP[ ]\011/* InterpolatePts */
PUSHW[ ]\011/* 1 value pushed */
31 
SRP0[ ]\011/* SetRefPoint0 */
PUSHW[ ]\011/* 1 value pushed */
99 
MDRP[11100]\011/* MoveDirectRelPt */
IUP[0]\011/* InterpolateUntPts */
IUP[1]\011/* InterpolateUntPts */";
};
width = 662;
}
);
note = dollar;
unicode = 0024;
},
{
glyphname = percent;
layers = (
{
layerId = "C1D5D18F-17E8-4A1F-B101-925564B9D079";
paths = (
{
closed = 1;
nodes = (
"372 577 OFFCURVE",
"376 578 QCURVE SMOOTH",
"385 580 LINE",
"396 577 OFFCURVE",
"398 572 QCURVE SMOOTH",
"400 563 OFFCURVE",
"394 545 QCURVE SMOOTH",
"385 522 OFFCURVE",
"352 487 OFFCURVE",
"339 483 QCURVE SMOOTH",
"320 477 OFFCURVE",
"309 498 QCURVE SMOOTH",
"297 523 OFFCURVE",
"313 544 QCURVE",
"325 551 LINE",
"345 563 LINE SMOOTH",
"358 570 OFFCURVE",
"366 575 QCURVE",
"366 575 LINE"
);
},
{
closed = 1;
nodes = (
"271 667 LINE SMOOTH",
"231 643 OFFCURVE",
"208 614 QCURVE SMOOTH",
"182 582 OFFCURVE",
"171 545 QCURVE SMOOTH",
"159 508 OFFCURVE",
"165 444 OFFCURVE",
"178 417 QCURVE SMOOTH",
"201 373 OFFCURVE",
"247 352 QCURVE SMOOTH",
"294 332 OFFCURVE",
"355 351 QCURVE SMOOTH",
"414 369 OFFCURVE",
"506 468 OFFCURVE",
"527 523 QCURVE SMOOTH",
"551 588 OFFCURVE",
"534 639 QCURVE SMOOTH",
"513 700 OFFCURVE",
"442 716 QCURVE SMOOTH",
"412 723 OFFCURVE",
"372 713 QCURVE SMOOTH",
"371 713 OFFCURVE",
"350 708 QCURVE SMOOTH",
"341 706 OFFCURVE",
"336 705 QCURVE SMOOTH",
"303 700 OFFCURVE",
"280 672 QCURVE",
"280 672 LINE"
);
},
{
closed = 1;
nodes = (
"782 202 LINE SMOOTH",
"794 198 OFFCURVE",
"796 195 QCURVE SMOOTH",
"804 184 OFFCURVE",
"788 166 QCURVE SMOOTH",
"775 152 OFFCURVE",
"745 136 OFFCURVE",
"737 136 QCURVE SMOOTH",
"719 136 OFFCURVE",
"698 165 OFFCURVE",
"708 206 OFFCURVE",
"731 220 QCURVE",
"731 220 LINE"
);
},
{
closed = 1;
nodes = (
"842 356 OFFCURVE",
"802 374 OFFCURVE",
"778 367 QCURVE SMOOTH",
"773 366 OFFCURVE",
"766 365 QCURVE SMOOTH",
"746 361 LINE SMOOTH",
"712 354 OFFCURVE",
"686 340 QCURVE SMOOTH",
"646 318 OFFCURVE",
"587 248 OFFCURVE",
"559 172 OFFCURVE",
"560 94 OFFCURVE",
"591 34 OFFCURVE",
"661 -4 OFFCURVE",
"710 -4 QCURVE SMOOTH",
"757 -3 OFFCURVE",
"805 24 QCURVE SMOOTH",
"853 50 OFFCURVE",
"887 89 QCURVE SMOOTH",
"912 117 OFFCURVE",
"927 149 QCURVE SMOOTH",
"941 181 OFFCURVE",
"941 257 OFFCURVE",
"920 289 QCURVE SMOOTH",
"899 319 OFFCURVE",
"853 334 QCURVE",
"850 336 LINE",
"850 336 LINE"
);
},
{
closed = 1;
nodes = (
"847 665 OFFCURVE",
"842 720 OFFCURVE",
"795 746 OFFCURVE",
"736 729 OFFCURVE",
"718 703 QCURVE SMOOTH",
"250 84 LINE SMOOTH",
"232 59 OFFCURVE",
"237 4 OFFCURVE",
"283 -23 OFFCURVE",
"341 -6 OFFCURVE",
"361 20 QCURVE SMOOTH",
"828 639 LINE",
"828 639 LINE"
);
}
);
userData = {
assembly = "SVTCA[0]\011/* SetFreedomAndProjectionVectorToAxis */
PUSHW[ ]\011/* 1 value pushed */
0 
RCVT[ ]\011/* ReadCVT */
IF[ ]\011/* If */
PUSHW[ ]\011/* 1 value pushed */
69 
MDAP[1]\011/* MoveDirectAbsPt */
ELSE[ ]\011/* Else */
PUSHW[ ]\011/* 2 values pushed */
69 6 
MIAP[0]\011/* MoveIndirectAbsPt */
EIF[ ]\011/* EndIf */
PUSHW[ ]\011/* 2 values pushed */
49 1 
MIRP[10100]\011/* MoveIndirectRelPt */
NPUSHW[ ]\011/* 7 values pushed */
23 49 39 49 55 49 3 
DELTAP1[ ]\011/* DeltaExceptionP1 */
IUP[0]\011/* InterpolateUntPts */
IUP[1]\011/* InterpolateUntPts */";
};
width = 944;
}
);
note = percent;
unicode = 0025;
},
{
glyphname = ampersand;
layers = (
{
layerId = "C1D5D18F-17E8-4A1F-B101-925564B9D079";
paths = (
{
closed = 1;
nodes = (
"305 260 OFFCURVE",
"336 217 QCURVE SMOOTH",
"376 165 LINE",
"373 164 LINE",
"356 150 OFFCURVE",
"325 136 OFFCURVE",
"277 139 OFFCURVE",
"221 163 OFFCURVE",
"218 177 QCURVE",
"217 179 OFFCURVE",
"234 225 QCURVE SMOOTH",
"244 250 OFFCURVE",
"282 297 QCURVE",
"282 297 LINE"
);
},
{
closed = 1;
nodes = (
"582 213 OFFCURVE",
"615 263 QCURVE SMOOTH",
"632 290 OFFCURVE",
"624 346 OFFCURVE",
"575 370 OFFCURVE",
"516 349 OFFCURVE",
"498 321 QCURVE SMOOTH",
"478 292 LINE",
"460 317 LINE SMOOTH",
"424 367 OFFCURVE",
"405 401 QCURVE",
"434 420 OFFCURVE",
"453 435 QCURVE SMOOTH",
"505 473 OFFCURVE",
"536 504 QCURVE SMOOTH",
"589 561 OFFCURVE",
"591 615 QCURVE SMOOTH",
"593 655 OFFCURVE",
"551 704 OFFCURVE",
"521 715 QCURVE SMOOTH",
"469 735 OFFCURVE",
"401 717 QCURVE SMOOTH",
"326 698 OFFCURVE",
"276 640 QCURVE SMOOTH",
"216 573 OFFCURVE",
"217 481 QCURVE SMOOTH",
"216 454 OFFCURVE",
"224 424 QCURVE",
"129 327 OFFCURVE",
"99 248 QCURVE SMOOTH",
"95 237 LINE SMOOTH",
"90 225 OFFCURVE",
"84 210 OFFCURVE",
"76 180 OFFCURVE",
"73 156 OFFCURVE",
"73 126 OFFCURVE",
"77 113 QCURVE SMOOTH",
"94 50 OFFCURVE",
"167 17 QCURVE SMOOTH",
"316 -47 OFFCURVE",
"449 59 QCURVE SMOOTH",
"458 66 LINE",
"501 13 LINE SMOOTH",
"518 -8 OFFCURVE",
"576 -8 OFFCURVE",
"627 35 OFFCURVE",
"639 94 OFFCURVE",
"622 116 QCURVE SMOOTH",
"563 186 LINE",
"563 186 LINE"
);
},
{
closed = 1;
nodes = (
"413 566 OFFCURVE",
"384 544 QCURVE SMOOTH",
"363 529 LINE",
"366 548 OFFCURVE",
"376 560 QCURVE SMOOTH",
"387 573 OFFCURVE",
"409 578 QCURVE SMOOTH",
"421 581 OFFCURVE",
"431 581 QCURVE",
"431 581 LINE"
);
}
);
width = 663;
}
);
note = ampersand;
unicode = 0026;
},
{
glyphname = quotesingle;
layers = (
{
layerId = "C1D5D18F-17E8-4A1F-B101-925564B9D079";
paths = (
{
closed = 1;
nodes = (
"146 405 OFFCURVE",
"179 368 OFFCURVE",
"234 372 OFFCURVE",
"256 392 QCURVE SMOOTH",
"279 413 OFFCURVE",
"283 440 QCURVE SMOOTH",
"295 518 OFFCURVE",
"324 657 QCURVE SMOOTH",
"330 684 OFFCURVE",
"299 723 OFFCURVE",
"245 723 OFFCURVE",
"198 684 OFFCURVE",
"192 657 QCURVE SMOOTH",
"162 514 OFFCURVE",
"149 432 QCURVE",
"149 432 LINE"
);
}
);
width = 224;
}
);
note = quotesingle;
unicode = 0027;
},
{
glyphname = parenleft;
layers = (
{
layerId = "C1D5D18F-17E8-4A1F-B101-925564B9D079";
paths = (
{
closed = 1;
nodes = (
"460 634 OFFCURVE",
"456 690 OFFCURVE",
"412 718 OFFCURVE",
"353 702 OFFCURVE",
"333 677 QCURVE SMOOTH",
"271 596 OFFCURVE",
"221 510 QCURVE SMOOTH",
"171 424 OFFCURVE",
"95 233 OFFCURVE",
"71 34 OFFCURVE",
"90 -55 QCURVE SMOOTH",
"95 -83 OFFCURVE",
"109 -119 QCURVE SMOOTH",
"111 -126 OFFCURVE",
"115 -136 QCURVE SMOOTH",
"122 -156 LINE",
"129 -173 LINE SMOOTH",
"137 -198 OFFCURVE",
"189 -214 OFFCURVE",
"246 -186 OFFCURVE",
"274 -131 OFFCURVE",
"265 -105 QCURVE SMOOTH",
"244 -49 LINE SMOOTH",
"233 -20 OFFCURVE",
"229 -1 QCURVE SMOOTH",
"215 68 OFFCURVE",
"235 227 OFFCURVE",
"296 385 OFFCURVE",
"340 461 QCURVE SMOOTH",
"383 533 OFFCURVE",
"441 609 QCURVE",
"441 609 LINE"
);
}
);
width = 359;
}
);
note = parenleft;
unicode = 0028;
},
{
glyphname = parenright;
layers = (
{
layerId = "C1D5D18F-17E8-4A1F-B101-925564B9D079";
paths = (
{
closed = 1;
nodes = (
"338 691 OFFCURVE",
"288 710 OFFCURVE",
"231 685 OFFCURVE",
"201 631 OFFCURVE",
"207 605 QCURVE SMOOTH",
"262 403 OFFCURVE",
"224 253 QCURVE SMOOTH",
"206 177 OFFCURVE",
"117 7 OFFCURVE",
"39 -104 QCURVE SMOOTH",
"22 -130 OFFCURVE",
"29 -184 OFFCURVE",
"76 -209 OFFCURVE",
"134 -190 OFFCURVE",
"153 -164 QCURVE SMOOTH",
"236 -44 OFFCURVE",
"339 153 OFFCURVE",
"363 248 QCURVE SMOOTH",
"387 346 OFFCURVE",
"378 547 OFFCURVE",
"346 665 QCURVE",
"346 665 LINE"
);
}
);
width = 368;
}
);
note = parenright;
unicode = 0029;
},
{
glyphname = asterisk;
layers = (
{
layerId = "C1D5D18F-17E8-4A1F-B101-925564B9D079";
paths = (
{
closed = 1;
nodes = (
"387 376 LINE SMOOTH",
"405 357 OFFCURVE",
"463 360 OFFCURVE",
"511 403 OFFCURVE",
"520 460 OFFCURVE",
"504 480 QCURVE",
"475 510 LINE",
"505 519 OFFCURVE",
"542 570 OFFCURVE",
"537 626 OFFCURVE",
"491 652 OFFCURVE",
"461 644 QCURVE SMOOTH",
"446 639 LINE",
"450 655 LINE SMOOTH",
"455 684 OFFCURVE",
"422 724 OFFCURVE",
"364 723 OFFCURVE",
"315 682 OFFCURVE",
"309 653 QCURVE SMOOTH",
"304 622 LINE",
"279 631 LINE SMOOTH",
"254 641 OFFCURVE",
"196 617 OFFCURVE",
"165 563 OFFCURVE",
"178 510 OFFCURVE",
"203 501 QCURVE SMOOTH",
"238 487 LINE",
"211 461 LINE SMOOTH",
"189 439 OFFCURVE",
"185 410 QCURVE SMOOTH",
"181 381 OFFCURVE",
"219 345 OFFCURVE",
"278 350 OFFCURVE",
"301 373 QCURVE SMOOTH",
"349 419 LINE",
"349 419 LINE"
);
}
);
width = 467;
}
);
note = asterisk;
unicode = 002A;
},
{
glyphname = plus;
layers = (
{
layerId = "C1D5D18F-17E8-4A1F-B101-925564B9D079";
paths = (
{
closed = 1;
nodes = (
"471 463 OFFCURVE",
"440 504 OFFCURVE",
"382 505 OFFCURVE",
"332 465 OFFCURVE",
"325 436 QCURVE SMOOTH",
"303 334 LINE",
"190 332 LINE SMOOTH",
"161 331 OFFCURVE",
"112 289 OFFCURVE",
"102 231 OFFCURVE",
"135 191 OFFCURVE",
"164 192 QCURVE SMOOTH",
"227 194 OFFCURVE",
"275 195 QCURVE",
"250 77 LINE SMOOTH",
"244 48 OFFCURVE",
"276 7 OFFCURVE",
"334 7 OFFCURVE",
"384 48 OFFCURVE",
"390 77 QCURVE SMOOTH",
"399 121 OFFCURVE",
"414 195 QCURVE",
"472 194 OFFCURVE",
"538 192 QCURVE SMOOTH",
"567 192 OFFCURVE",
"618 231 OFFCURVE",
"631 289 OFFCURVE",
"601 331 OFFCURVE",
"572 332 QCURVE SMOOTH",
"442 334 LINE",
"454 389 OFFCURVE",
"465 434 QCURVE",
"465 434 LINE"
);
}
);
userData = {
assembly = "SVTCA[0]\011/* SetFreedomAndProjectionVectorToAxis */
PUSHW[ ]\011/* 4 values pushed */
3 1 8 4 
CALL[ ]\011/* CallFunction */
PUSHW[ ]\011/* 1 value pushed */
8 
SRP0[ ]\011/* SetRefPoint0 */
PUSHW[ ]\011/* 1 value pushed */
10 
MDRP[10000]\011/* MoveDirectRelPt */
PUSHW[ ]\011/* 1 value pushed */
10 
MDAP[1]\011/* MoveDirectAbsPt */
PUSHW[ ]\011/* 1 value pushed */
8 
SRP0[ ]\011/* SetRefPoint0 */
PUSHW[ ]\011/* 1 value pushed */
18 
MDRP[10000]\011/* MoveDirectRelPt */
PUSHW[ ]\011/* 1 value pushed */
18 
MDAP[1]\011/* MoveDirectAbsPt */
PUSHW[ ]\011/* 1 value pushed */
8 
SRP0[ ]\011/* SetRefPoint0 */
PUSHW[ ]\011/* 1 value pushed */
20 
MDRP[10000]\011/* MoveDirectRelPt */
PUSHW[ ]\011/* 1 value pushed */
3 
SRP0[ ]\011/* SetRefPoint0 */
PUSHW[ ]\011/* 1 value pushed */
25 
MDRP[10000]\011/* MoveDirectRelPt */
IUP[0]\011/* InterpolateUntPts */
IUP[1]\011/* InterpolateUntPts */";
};
width = 641;
}
);
note = plus;
unicode = 002B;
},
{
glyphname = comma;
layers = (
{
layerId = "C1D5D18F-17E8-4A1F-B101-925564B9D079";
paths = (
{
closed = 1;
nodes = (
"280 17 OFFCURVE",
"267 66 OFFCURVE",
"218 83 OFFCURVE",
"164 59 OFFCURVE",
"150 33 QCURVE SMOOTH",
"132 -1 LINE SMOOTH",
"123 -18 OFFCURVE",
"121 -20 QCURVE",
"114 -32 LINE SMOOTH",
"109 -41 OFFCURVE",
"104 -47 OFFCURVE",
"92 -64 QCURVE SMOOTH",
"66 -102 LINE SMOOTH",
"50 -126 OFFCURVE",
"57 -178 OFFCURVE",
"101 -201 OFFCURVE",
"157 -183 OFFCURVE",
"174 -158 QCURVE SMOOTH",
"197 -125 LINE SMOOTH",
"208 -109 OFFCURVE",
"217 -95 OFFCURVE",
"226 -83 OFFCURVE",
"234 -69 OFFCURVE",
"237 -64 QCURVE SMOOTH",
"248 -42 LINE SMOOTH",
"257 -24 OFFCURVE",
"267 -9 QCURVE",
"267 -9 LINE"
);
}
);
width = 278;
}
);
note = comma;
unicode = 002C;
},
{
glyphname = hyphen;
layers = (
{
layerId = "C1D5D18F-17E8-4A1F-B101-925564B9D079";
paths = (
{
closed = 1;
nodes = (
"163 340 OFFCURVE",
"113 299 OFFCURVE",
"101 241 OFFCURVE",
"133 200 OFFCURVE",
"162 200 QCURVE SMOOTH",
"329 200 LINE SMOOTH",
"358 200 OFFCURVE",
"408 241 OFFCURVE",
"420 299 OFFCURVE",
"388 340 OFFCURVE",
"359 340 QCURVE SMOOTH",
"192 340 LINE",
"192 340 LINE"
);
}
);
userData = {
assembly = "SVTCA[0]\011/* SetFreedomAndProjectionVectorToAxis */
PUSHW[ ]\011/* 4 values pushed */
1 1 6 4 
CALL[ ]\011/* CallFunction */
IUP[0]\011/* InterpolateUntPts */
IUP[1]\011/* InterpolateUntPts */";
};
width = 407;
}
);
note = hyphen;
unicode = 002D;
},
{
glyphname = period;
layers = (
{
layerId = "C1D5D18F-17E8-4A1F-B101-925564B9D079";
paths = (
{
closed = 1;
nodes = (
"178 141 OFFCURVE",
"120 141 OFFCURVE",
"71 100 OFFCURVE",
"58 42 OFFCURVE",
"91 1 OFFCURVE",
"149 1 OFFCURVE",
"198 42 OFFCURVE",
"211 100 OFFCURVE",
"194 120 QCURVE",
"194 120 LINE"
);
}
);
width = 240;
}
);
note = period;
unicode = 002E;
},
{
glyphname = slash;
layers = (
{
layerId = "C1D5D18F-17E8-4A1F-B101-925564B9D079";
paths = (
{
closed = 1;
nodes = (
"553 668 OFFCURVE",
"533 717 OFFCURVE",
"480 731 OFFCURVE",
"424 700 OFFCURVE",
"411 672 QCURVE",
"75 86 LINE",
"61 58 OFFCURVE",
"78 8 OFFCURVE",
"131 -8 OFFCURVE",
"187 20 OFFCURVE",
"201 48 QCURVE",
"541 640 LINE",
"541 640 LINE"
);
}
);
width = 429;
}
);
note = slash;
unicode = 002F;
},
{
glyphname = zero;
layers = (
{
layerId = "C1D5D18F-17E8-4A1F-B101-925564B9D079";
paths = (
{
closed = 1;
nodes = (
"421 568 OFFCURVE",
"439 564 QCURVE",
"443 564 OFFCURVE",
"457 562 OFFCURVE",
"469 560 OFFCURVE",
"474 560 QCURVE",
"501 555 OFFCURVE",
"513 548 QCURVE SMOOTH",
"517 546 OFFCURVE",
"524 529 OFFCURVE",
"531 490 OFFCURVE",
"530 464 QCURVE SMOOTH",
"529 399 OFFCURVE",
"513 325 QCURVE SMOOTH",
"494 243 OFFCURVE",
"447 187 QCURVE SMOOTH",
"403 138 OFFCURVE",
"350 144 QCURVE SMOOTH",
"302 150 OFFCURVE",
"260 240 OFFCURVE",
"268 316 QCURVE SMOOTH",
"278 393 OFFCURVE",
"352 533 OFFCURVE",
"395 565 QCURVE",
"398 568 OFFCURVE",
"406 572 QCURVE",
"406 572 LINE"
);
},
{
closed = 1;
nodes = (
"490 727 OFFCURVE",
"448 736 OFFCURVE",
"424 725 QCURVE SMOOTH",
"416 721 OFFCURVE",
"390 711 OFFCURVE",
"388 711 QCURVE",
"350 696 OFFCURVE",
"327 679 QCURVE SMOOTH",
"245 617 OFFCURVE",
"191 513 QCURVE SMOOTH",
"136 408 OFFCURVE",
"123 302 QCURVE SMOOTH",
"117 250 OFFCURVE",
"129 152 OFFCURVE",
"166 64 OFFCURVE",
"246 5 OFFCURVE",
"303 -3 QCURVE SMOOTH",
"373 -12 OFFCURVE",
"436 19 QCURVE SMOOTH",
"499 48 OFFCURVE",
"546 103 QCURVE SMOOTH",
"627 196 OFFCURVE",
"656 323 QCURVE SMOOTH",
"676 414 OFFCURVE",
"677 495 QCURVE SMOOTH",
"678 633 OFFCURVE",
"611 678 QCURVE SMOOTH",
"579 697 OFFCURVE",
"526 707 QCURVE SMOOTH",
"519 708 OFFCURVE",
"503 710 QCURVE",
"503 710 LINE"
);
}
);
userData = {
assembly = "PUSHW[ ]\011/* 4 values pushed */
32 4 14 4 
CALL[ ]\011/* CallFunction */
NPUSHW[ ]\011/* 7 values pushed */
25 14 41 14 57 14 3 
DELTAP1[ ]\011/* DeltaExceptionP1 */
PUSHW[ ]\011/* 1 value pushed */
32 
SRP0[ ]\011/* SetRefPoint0 */
PUSHW[ ]\011/* 1 value pushed */
58 
MDRP[11100]\011/* MoveDirectRelPt */
IUP[0]\011/* InterpolateUntPts */
IUP[1]\011/* InterpolateUntPts */";
};
width = 639;
}
);
note = zero;
unicode = 0030;
},
{
glyphname = one;
layers = (
{
layerId = "C1D5D18F-17E8-4A1F-B101-925564B9D079";
paths = (
{
closed = 1;
nodes = (
"250 164 OFFCURVE",
"227 68 QCURVE SMOOTH",
"220 39 OFFCURVE",
"251 -3 OFFCURVE",
"308 -5 OFFCURVE",
"359 35 OFFCURVE",
"366 64 QCURVE SMOOTH",
"382 131 OFFCURVE",
"457 491 QCURVE SMOOTH",
"472 565 OFFCURVE",
"479 604 QCURVE SMOOTH",
"485 631 OFFCURVE",
"487 646 QCURVE SMOOTH",
"488 655 OFFCURVE",
"489 669 OFFCURVE",
"489 674 QCURVE SMOOTH",
"488 683 OFFCURVE",
"485 691 QCURVE SMOOTH",
"473 723 OFFCURVE",
"437 726 QCURVE SMOOTH",
"390 729 OFFCURVE",
"353 691 QCURVE SMOOTH",
"338 675 OFFCURVE",
"325 649 QCURVE",
"322 631 OFFCURVE",
"314 625 QCURVE",
"295 604 LINE SMOOTH",
"287 596 OFFCURVE",
"266 581 OFFCURVE",
"255 574 OFFCURVE",
"235 563 QCURVE SMOOTH",
"200 543 LINE SMOOTH",
"173 527 OFFCURVE",
"149 470 OFFCURVE",
"171 422 OFFCURVE",
"226 411 OFFCURVE",
"253 427 QCURVE SMOOTH",
"310 460 LINE",
"310 460 LINE"
);
}
);
width = 405;
}
);
note = one;
unicode = 0031;
},
{
glyphname = two;
layers = (
{
layerId = "C1D5D18F-17E8-4A1F-B101-925564B9D079";
paths = (
{
closed = 1;
nodes = (
"170 483 OFFCURVE",
"191 433 OFFCURVE",
"243 418 OFFCURVE",
"299 449 OFFCURVE",
"313 477 QCURVE",
"323 503 LINE SMOOTH",
"324 506 OFFCURVE",
"327 513 OFFCURVE",
"329 519 OFFCURVE",
"330 522 QCURVE SMOOTH",
"336 534 OFFCURVE",
"339 538 QCURVE SMOOTH",
"357 560 OFFCURVE",
"409 586 OFFCURVE",
"434 586 QCURVE SMOOTH",
"481 586 OFFCURVE",
"481 539 QCURVE SMOOTH",
"481 520 OFFCURVE",
"471 505 QCURVE SMOOTH",
"458 486 OFFCURVE",
"149 213 OFFCURVE",
"123 182 QCURVE SMOOTH",
"79 126 OFFCURVE",
"88 77 QCURVE SMOOTH",
"96 22 OFFCURVE",
"162 4 QCURVE SMOOTH",
"207 -8 OFFCURVE",
"289 -5 QCURVE SMOOTH",
"345 -3 OFFCURVE",
"373 -3 QCURVE SMOOTH",
"394 -3 OFFCURVE",
"443 -4 OFFCURVE",
"502 -5 OFFCURVE",
"519 -6 QCURVE SMOOTH",
"547 -6 OFFCURVE",
"598 34 OFFCURVE",
"611 93 OFFCURVE",
"580 135 OFFCURVE",
"551 136 QCURVE SMOOTH",
"404 139 OFFCURVE",
"403 139 QCURVE SMOOTH",
"373 139 OFFCURVE",
"314 137 QCURVE SMOOTH",
"280 135 OFFCURVE",
"257 137 QCURVE",
"265 146 OFFCURVE",
"274 154 QCURVE SMOOTH",
"311 183 LINE",
"553 399 OFFCURVE",
"585 443 QCURVE SMOOTH",
"626 504 OFFCURVE",
"625 572 QCURVE SMOOTH",
"624 647 OFFCURVE",
"533 728 OFFCURVE",
"465 729 QCURVE SMOOTH",
"404 729 OFFCURVE",
"277 666 OFFCURVE",
"233 610 QCURVE SMOOTH",
"212 585 OFFCURVE",
"198 548 QCURVE",
"198 547 OFFCURVE",
"189 526 QCURVE SMOOTH",
"186 517 OFFCURVE",
"183 512 QCURVE",
"183 512 LINE"
);
}
);
userData = {
assembly = "PUSHW[ ]\011/* 4 values pushed */
12 4 47 4 
CALL[ ]\011/* CallFunction */
NPUSHW[ ]\011/* 7 values pushed */
25 47 41 47 57 47 3 
DELTAP1[ ]\011/* DeltaExceptionP1 */
PUSHW[ ]\011/* 1 value pushed */
12 
SRP0[ ]\011/* SetRefPoint0 */
PUSHW[ ]\011/* 1 value pushed */
65 
MDRP[11100]\011/* MoveDirectRelPt */
SVTCA[0]\011/* SetFreedomAndProjectionVectorToAxis */
PUSHW[ ]\011/* 1 value pushed */
0 
RCVT[ ]\011/* ReadCVT */
IF[ ]\011/* If */
PUSHW[ ]\011/* 1 value pushed */
9 
MDAP[1]\011/* MoveDirectAbsPt */
ELSE[ ]\011/* Else */
PUSHW[ ]\011/* 2 values pushed */
9 12 
MIAP[0]\011/* MoveIndirectAbsPt */
EIF[ ]\011/* EndIf */
PUSHW[ ]\011/* 1 value pushed */
0 
RCVT[ ]\011/* ReadCVT */
IF[ ]\011/* If */
PUSHW[ ]\011/* 1 value pushed */
30 
MDAP[1]\011/* MoveDirectAbsPt */
ELSE[ ]\011/* Else */
PUSHW[ ]\011/* 2 values pushed */
30 6 
MIAP[0]\011/* MoveIndirectAbsPt */
EIF[ ]\011/* EndIf */
PUSHW[ ]\011/* 1 value pushed */
0 
RCVT[ ]\011/* ReadCVT */
IF[ ]\011/* If */
PUSHW[ ]\011/* 1 value pushed */
34 
MDAP[1]\011/* MoveDirectAbsPt */
ELSE[ ]\011/* Else */
PUSHW[ ]\011/* 2 values pushed */
34 6 
MIAP[0]\011/* MoveIndirectAbsPt */
EIF[ ]\011/* EndIf */
PUSHW[ ]\011/* 1 value pushed */
0 
RCVT[ ]\011/* ReadCVT */
IF[ ]\011/* If */
PUSHW[ ]\011/* 1 value pushed */
36 
MDAP[1]\011/* MoveDirectAbsPt */
ELSE[ ]\011/* Else */
PUSHW[ ]\011/* 2 values pushed */
36 6 
MIAP[0]\011/* MoveIndirectAbsPt */
EIF[ ]\011/* EndIf */
PUSHW[ ]\011/* 1 value pushed */
0 
RCVT[ ]\011/* ReadCVT */
IF[ ]\011/* If */
PUSHW[ ]\011/* 1 value pushed */
38 
MDAP[1]\011/* MoveDirectAbsPt */
ELSE[ ]\011/* Else */
PUSHW[ ]\011/* 2 values pushed */
38 6 
MIAP[0]\011/* MoveIndirectAbsPt */
EIF[ ]\011/* EndIf */
PUSHW[ ]\011/* 1 value pushed */
36 
SRP0[ ]\011/* SetRefPoint0 */
PUSHW[ ]\011/* 2 values pushed */
19 1 
MIRP[10100]\011/* MoveIndirectRelPt */
NPUSHW[ ]\011/* 7 values pushed */
23 19 39 19 55 19 3 
DELTAP1[ ]\011/* DeltaExceptionP1 */
PUSHW[ ]\011/* 1 value pushed */
21 
MDRP[10000]\011/* MoveDirectRelPt */
PUSHW[ ]\011/* 1 value pushed */
21 
MDAP[1]\011/* MoveDirectAbsPt */
PUSHW[ ]\011/* 1 value pushed */
23 
MDRP[10000]\011/* MoveDirectRelPt */
PUSHW[ ]\011/* 1 value pushed */
23 
MDAP[1]\011/* MoveDirectAbsPt */
PUSHW[ ]\011/* 1 value pushed */
25 
MDRP[10000]\011/* MoveDirectRelPt */
PUSHW[ ]\011/* 1 value pushed */
9 
SRP0[ ]\011/* SetRefPoint0 */
PUSHW[ ]\011/* 2 values pushed */
49 1 
MIRP[10100]\011/* MoveIndirectRelPt */
NPUSHW[ ]\011/* 7 values pushed */
24 49 40 49 56 49 3 
DELTAP1[ ]\011/* DeltaExceptionP1 */
IUP[0]\011/* InterpolateUntPts */
IUP[1]\011/* InterpolateUntPts */";
};
width = 636;
}
);
note = two;
unicode = 0032;
},
{
glyphname = three;
layers = (
{
layerId = "C1D5D18F-17E8-4A1F-B101-925564B9D079";
paths = (
{
closed = 1;
nodes = (
"174 596 OFFCURVE",
"169 541 OFFCURVE",
"204 507 OFFCURVE",
"261 514 OFFCURVE",
"282 535 QCURVE SMOOTH",
"289 542 OFFCURVE",
"299 554 QCURVE SMOOTH",
"311 568 LINE",
"319 575 LINE",
"367 601 OFFCURVE",
"444 588 OFFCURVE",
"467 557 QCURVE SMOOTH",
"485 532 OFFCURVE",
"479 509 QCURVE SMOOTH",
"472 489 OFFCURVE",
"439 472 QCURVE SMOOTH",
"433 469 OFFCURVE",
"423 466 OFFCURVE",
"415 465 OFFCURVE",
"399 462 OFFCURVE",
"391 460 QCURVE",
"386 461 OFFCURVE",
"383 462 QCURVE",
"356 465 OFFCURVE",
"306 431 OFFCURVE",
"296 404 QCURVE SMOOTH",
"290 385 OFFCURVE",
"300 350 OFFCURVE",
"314 340 QCURVE",
"334 318 OFFCURVE",
"368 326 QCURVE",
"478 302 OFFCURVE",
"467 226 QCURVE SMOOTH",
"461 191 OFFCURVE",
"453 180 QCURVE SMOOTH",
"439 162 OFFCURVE",
"381 134 OFFCURVE",
"308 126 OFFCURVE",
"255 142 OFFCURVE",
"244 156 QCURVE SMOOTH",
"241 160 OFFCURVE",
"238 173 QCURVE SMOOTH",
"234 192 LINE SMOOTH",
"231 206 OFFCURVE",
"228 216 QCURVE SMOOTH",
"221 241 OFFCURVE",
"172 257 OFFCURVE",
"118 232 OFFCURVE",
"91 180 OFFCURVE",
"98 156 QCURVE SMOOTH",
"100 151 OFFCURVE",
"101 141 QCURVE",
"106 120 LINE SMOOTH",
"114 86 OFFCURVE",
"129 66 QCURVE SMOOTH",
"160 24 OFFCURVE",
"270 -8 OFFCURVE",
"393 6 OFFCURVE",
"513 63 OFFCURVE",
"553 114 QCURVE SMOOTH",
"590 160 OFFCURVE",
"600 234 QCURVE SMOOTH",
"616 339 OFFCURVE",
"544 400 QCURVE",
"593 443 OFFCURVE",
"608 500 QCURVE SMOOTH",
"631 580 OFFCURVE",
"583 647 QCURVE SMOOTH",
"555 687 OFFCURVE",
"462 731 OFFCURVE",
"333 723 OFFCURVE",
"268 685 QCURVE SMOOTH",
"243 670 OFFCURVE",
"218 642 QCURVE SMOOTH",
"205 626 LINE SMOOTH",
"199 620 OFFCURVE",
"196 617 QCURVE",
"196 617 LINE"
);
}
);
width = 610;
}
);
note = three;
unicode = 0033;
},
{
glyphname = four;
layers = (
{
layerId = "C1D5D18F-17E8-4A1F-B101-925564B9D079";
paths = (
{
closed = 1;
nodes = (
"380 317 LINE SMOOTH",
"339 318 OFFCURVE",
"309 321 QCURVE",
"404 423 LINE",
"395 373 OFFCURVE",
"383 317 QCURVE",
"383 317 LINE"
);
},
{
closed = 1;
nodes = (
"441 667 OFFCURVE",
"437 663 QCURVE",
"346 539 OFFCURVE",
"209 398 QCURVE",
"207 397 OFFCURVE",
"203 394 OFFCURVE",
"200 392 OFFCURVE",
"194 388 QCURVE SMOOTH",
"177 376 LINE SMOOTH",
"120 331 OFFCURVE",
"116 277 QCURVE SMOOTH",
"114 231 OFFCURVE",
"157 207 QCURVE SMOOTH",
"179 195 OFFCURVE",
"214 189 QCURVE SMOOTH",
"263 179 OFFCURVE",
"348 178 QCURVE SMOOTH",
"352 178 LINE",
"346 147 OFFCURVE",
"328 70 QCURVE SMOOTH",
"322 41 OFFCURVE",
"354 0 OFFCURVE",
"411 -1 OFFCURVE",
"461 39 OFFCURVE",
"468 68 QCURVE SMOOTH",
"486 146 OFFCURVE",
"493 180 QCURVE",
"563 182 OFFCURVE",
"565 182 QCURVE SMOOTH",
"594 182 OFFCURVE",
"644 223 OFFCURVE",
"656 281 OFFCURVE",
"624 322 OFFCURVE",
"595 322 QCURVE SMOOTH",
"593 322 OFFCURVE",
"523 319 QCURVE",
"563 509 OFFCURVE",
"581 664 QCURVE SMOOTH",
"585 693 OFFCURVE",
"548 730 OFFCURVE",
"519 727 QCURVE SMOOTH",
"495 725 OFFCURVE",
"454 694 OFFCURVE",
"444 671 QCURVE",
"444 671 LINE"
);
}
);
userData = {
assembly = "SVTCA[0]\011/* SetFreedomAndProjectionVectorToAxis */
PUSHW[ ]\011/* 4 values pushed */
14 1 32 4 
CALL[ ]\011/* CallFunction */
PUSHW[ ]\011/* 1 value pushed */
14 
SRP0[ ]\011/* SetRefPoint0 */
PUSHW[ ]\011/* 1 value pushed */
3 
MDRP[10000]\011/* MoveDirectRelPt */
PUSHW[ ]\011/* 1 value pushed */
3 
MDAP[1]\011/* MoveDirectAbsPt */
PUSHW[ ]\011/* 1 value pushed */
14 
SRP0[ ]\011/* SetRefPoint0 */
PUSHW[ ]\011/* 1 value pushed */
5 
MDRP[10000]\011/* MoveDirectRelPt */
PUSHW[ ]\011/* 1 value pushed */
5 
MDAP[1]\011/* MoveDirectAbsPt */
PUSHW[ ]\011/* 1 value pushed */
14 
SRP0[ ]\011/* SetRefPoint0 */
PUSHW[ ]\011/* 1 value pushed */
16 
MDRP[10000]\011/* MoveDirectRelPt */
PUSHW[ ]\011/* 1 value pushed */
16 
MDAP[1]\011/* MoveDirectAbsPt */
PUSHW[ ]\011/* 1 value pushed */
32 
SRP0[ ]\011/* SetRefPoint0 */
PUSHW[ ]\011/* 1 value pushed */
21 
MDRP[10000]\011/* MoveDirectRelPt */
PUSHW[ ]\011/* 1 value pushed */
21 
MDAP[1]\011/* MoveDirectAbsPt */
PUSHW[ ]\011/* 1 value pushed */
32 
SRP0[ ]\011/* SetRefPoint0 */
PUSHW[ ]\011/* 1 value pushed */
23 
MDRP[10000]\011/* MoveDirectRelPt */
PUSHW[ ]\011/* 1 value pushed */
23 
MDAP[1]\011/* MoveDirectAbsPt */
IUP[0]\011/* InterpolateUntPts */
IUP[1]\011/* InterpolateUntPts */";
};
width = 661;
}
);
note = four;
unicode = 0034;
},
{
glyphname = five;
layers = (
{
layerId = "C1D5D18F-17E8-4A1F-B101-925564B9D079";
paths = (
{
closed = 1;
nodes = (
"154 365 OFFCURVE",
"180 321 OFFCURVE",
"207 317 QCURVE SMOOTH",
"220 316 OFFCURVE",
"232 319 QCURVE",
"247 320 OFFCURVE",
"260 326 QCURVE SMOOTH",
"262 327 OFFCURVE",
"300 347 QCURVE SMOOTH",
"312 353 OFFCURVE",
"316 353 QCURVE",
"360 362 OFFCURVE",
"440 318 OFFCURVE",
"455 277 QCURVE SMOOTH",
"469 242 OFFCURVE",
"454 211 QCURVE SMOOTH",
"438 175 OFFCURVE",
"381 148 QCURVE SMOOTH",
"355 136 OFFCURVE",
"334 135 QCURVE SMOOTH",
"284 133 OFFCURVE",
"262 142 QCURVE SMOOTH",
"253 145 OFFCURVE",
"238 153 OFFCURVE",
"222 162 QCURVE SMOOTH",
"192 181 LINE SMOOTH",
"170 193 OFFCURVE",
"112 176 OFFCURVE",
"76 126 OFFCURVE",
"82 72 OFFCURVE",
"104 59 QCURVE SMOOTH",
"131 44 LINE",
"163 26 LINE SMOOTH",
"176 18 OFFCURVE",
"188 13 QCURVE SMOOTH",
"234 -4 OFFCURVE",
"311 -1 QCURVE SMOOTH",
"363 1 OFFCURVE",
"419 28 QCURVE SMOOTH",
"535 83 OFFCURVE",
"579 177 QCURVE SMOOTH",
"618 262 OFFCURVE",
"587 346 QCURVE SMOOTH",
"560 417 OFFCURVE",
"421 502 OFFCURVE",
"331 489 QCURVE",
"334 498 OFFCURVE",
"359 578 QCURVE",
"589 578 LINE SMOOTH",
"618 578 OFFCURVE",
"668 619 OFFCURVE",
"680 677 OFFCURVE",
"648 718 OFFCURVE",
"619 718 QCURVE SMOOTH",
"434 718 OFFCURVE",
"336 717 QCURVE SMOOTH",
"313 717 OFFCURVE",
"271 690 OFFCURVE",
"260 668 QCURVE",
"250 656 OFFCURVE",
"245 642 QCURVE SMOOTH",
"201 505 OFFCURVE",
"163 393 QCURVE",
"163 393 LINE"
);
}
);
userData = {
assembly = "SVTCA[0]\011/* SetFreedomAndProjectionVectorToAxis */
PUSHW[ ]\011/* 1 value pushed */
7 
MDAP[1]\011/* MoveDirectAbsPt */
PUSHW[ ]\011/* 1 value pushed */
9 
MDAP[1]\011/* MoveDirectAbsPt */
PUSHW[ ]\011/* 1 value pushed */
0 
RCVT[ ]\011/* ReadCVT */
IF[ ]\011/* If */
PUSHW[ ]\011/* 1 value pushed */
26 
MDAP[1]\011/* MoveDirectAbsPt */
ELSE[ ]\011/* Else */
PUSHW[ ]\011/* 2 values pushed */
26 6 
MIAP[0]\011/* MoveIndirectAbsPt */
EIF[ ]\011/* EndIf */
PUSHW[ ]\011/* 1 value pushed */
9 
SRP0[ ]\011/* SetRefPoint0 */
PUSHW[ ]\011/* 2 values pushed */
14 1 
MIRP[10100]\011/* MoveIndirectRelPt */
PUSHW[ ]\011/* 3 values pushed */
17 26 9 
SRP1[ ]\011/* SetRefPoint1 */
SRP2[ ]\011/* SetRefPoint2 */
IP[ ]\011/* InterpolatePts */
PUSHW[ ]\011/* 1 value pushed */
26 
SRP0[ ]\011/* SetRefPoint0 */
PUSHW[ ]\011/* 2 values pushed */
43 1 
MIRP[10100]\011/* MoveIndirectRelPt */
NPUSHW[ ]\011/* 7 values pushed */
23 43 39 43 55 43 3 
DELTAP1[ ]\011/* DeltaExceptionP1 */
IUP[0]\011/* InterpolateUntPts */
IUP[1]\011/* InterpolateUntPts */";
};
width = 613;
}
);
note = five;
unicode = 0035;
},
{
glyphname = six;
layers = (
{
layerId = "C1D5D18F-17E8-4A1F-B101-925564B9D079";
paths = (
{
closed = 1;
nodes = (
"300 281 LINE SMOOTH",
"335 310 OFFCURVE",
"357 320 QCURVE SMOOTH",
"370 327 OFFCURVE",
"391 325 QCURVE SMOOTH",
"448 321 OFFCURVE",
"483 256 OFFCURVE",
"455 171 OFFCURVE",
"422 150 QCURVE SMOOTH",
"389 127 OFFCURVE",
"348 138 QCURVE SMOOTH",
"273 158 OFFCURVE",
"260 247 QCURVE",
"260 247 LINE"
);
},
{
closed = 1;
nodes = (
"558 519 OFFCURVE",
"617 531 OFFCURVE",
"660 580 OFFCURVE",
"661 639 OFFCURVE",
"641 655 QCURVE",
"639 656 OFFCURVE",
"601 689 OFFCURVE",
"582 702 OFFCURVE",
"540 724 OFFCURVE",
"516 726 QCURVE SMOOTH",
"493 729 OFFCURVE",
"464 726 QCURVE SMOOTH",
"401 719 OFFCURVE",
"345 685 QCURVE SMOOTH",
"288 651 OFFCURVE",
"207 551 OFFCURVE",
"148 439 OFFCURVE",
"132 381 QCURVE SMOOTH",
"116 322 OFFCURVE",
"114 204 OFFCURVE",
"143 96 OFFCURVE",
"224 15 OFFCURVE",
"286 -2 QCURVE SMOOTH",
"343 -15 OFFCURVE",
"445 7 OFFCURVE",
"529 68 OFFCURVE",
"588 150 OFFCURVE",
"603 196 QCURVE SMOOTH",
"619 243 OFFCURVE",
"615 334 OFFCURVE",
"578 412 OFFCURVE",
"493 464 OFFCURVE",
"372 474 OFFCURVE",
"318 448 QCURVE SMOOTH",
"304 441 OFFCURVE",
"292 433 QCURVE",
"319 498 OFFCURVE",
"405 578 OFFCURVE",
"447 583 QCURVE",
"457 582 OFFCURVE",
"465 585 OFFCURVE",
"480 579 OFFCURVE",
"484 578 OFFCURVE",
"492 573 QCURVE SMOOTH",
"504 564 LINE SMOOTH",
"509 560 OFFCURVE",
"519 552 QCURVE SMOOTH",
"537 536 LINE",
"537 536 LINE"
);
}
);
width = 622;
}
);
note = six;
unicode = 0036;
},
{
glyphname = seven;
layers = (
{
layerId = "C1D5D18F-17E8-4A1F-B101-925564B9D079";
paths = (
{
closed = 1;
nodes = (
"243 723 OFFCURVE",
"194 682 OFFCURVE",
"183 624 OFFCURVE",
"216 584 OFFCURVE",
"245 584 QCURVE SMOOTH",
"283 585 OFFCURVE",
"423 585 QCURVE SMOOTH",
"495 585 LINE",
"485 573 OFFCURVE",
"468 546 QCURVE",
"462 541 OFFCURVE",
"348 375 OFFCURVE",
"316 328 QCURVE SMOOTH",
"268 256 LINE SMOOTH",
"252 232 OFFCURVE",
"214 172 QCURVE SMOOTH",
"169 99 LINE SMOOTH",
"151 73 OFFCURVE",
"162 19 OFFCURVE",
"210 -4 OFFCURVE",
"268 18 OFFCURVE",
"285 45 QCURVE SMOOTH",
"294 58 OFFCURVE",
"370 179 OFFCURVE",
"384 201 QCURVE SMOOTH",
"428 268 LINE SMOOTH",
"459 312 OFFCURVE",
"509 378 OFFCURVE",
"638 552 OFFCURVE",
"655 590 QCURVE",
"689 651 OFFCURVE",
"666 691 QCURVE SMOOTH",
"658 707 OFFCURVE",
"638 714 QCURVE",
"633 717 OFFCURVE",
"626 718 QCURVE SMOOTH",
"619 720 OFFCURVE",
"599 722 OFFCURVE",
"567 723 QCURVE SMOOTH",
"522 725 OFFCURVE",
"454 725 QCURVE SMOOTH",
"349 725 OFFCURVE",
"272 724 QCURVE",
"272 724 LINE"
);
}
);
userData = {
assembly = "SVTCA[0]\011/* SetFreedomAndProjectionVectorToAxis */
PUSHW[ ]\011/* 1 value pushed */
0 
MDAP[1]\011/* MoveDirectAbsPt */
PUSHW[ ]\011/* 1 value pushed */
2 
MDAP[1]\011/* MoveDirectAbsPt */
PUSHW[ ]\011/* 1 value pushed */
4 
MDAP[1]\011/* MoveDirectAbsPt */
PUSHW[ ]\011/* 1 value pushed */
7 
MDAP[1]\011/* MoveDirectAbsPt */
PUSHW[ ]\011/* 1 value pushed */
4 
SRP0[ ]\011/* SetRefPoint0 */
PUSHW[ ]\011/* 2 values pushed */
35 1 
MIRP[10100]\011/* MoveIndirectRelPt */
PUSHW[ ]\011/* 1 value pushed */
38 
MDRP[10000]\011/* MoveDirectRelPt */
PUSHW[ ]\011/* 1 value pushed */
38 
MDAP[1]\011/* MoveDirectAbsPt */
IUP[0]\011/* InterpolateUntPts */
IUP[1]\011/* InterpolateUntPts */";
};
width = 601;
}
);
note = seven;
unicode = 0037;
},
{
glyphname = eight;
layers = (
{
layerId = "C1D5D18F-17E8-4A1F-B101-925564B9D079";
paths = (
{
closed = 1;
nodes = (
"396 427 OFFCURVE",
"366 421 QCURVE SMOOTH",
"343 416 LINE",
"310 426 OFFCURVE",
"293 472 OFFCURVE",
"305 501 QCURVE SMOOTH",
"318 535 OFFCURVE",
"386 584 OFFCURVE",
"432 584 QCURVE SMOOTH",
"465 584 OFFCURVE",
"504 548 OFFCURVE",
"506 520 QCURVE SMOOTH",
"509 494 OFFCURVE",
"479 448 OFFCURVE",
"446 433 QCURVE SMOOTH",
"433 428 OFFCURVE",
"418 426 QCURVE",
"418 426 LINE"
);
},
{
closed = 1;
nodes = (
"150 316 OFFCURVE",
"98 228 OFFCURVE",
"92 182 QCURVE SMOOTH",
"82 99 OFFCURVE",
"191 -4 OFFCURVE",
"298 -4 QCURVE SMOOTH",
"371 -4 OFFCURVE",
"439 30 QCURVE SMOOTH",
"507 63 OFFCURVE",
"549 120 QCURVE SMOOTH",
"592 178 OFFCURVE",
"591 304 OFFCURVE",
"546 355 QCURVE",
"596 395 OFFCURVE",
"646 507 OFFCURVE",
"641 557 QCURVE SMOOTH",
"635 625 OFFCURVE",
"539 716 OFFCURVE",
"460 716 QCURVE SMOOTH",
"365 716 OFFCURVE",
"212 604 OFFCURVE",
"180 525 QCURVE SMOOTH",
"161 477 OFFCURVE",
"165 385 OFFCURVE",
"190 350 QCURVE",
"190 350 LINE"
);
},
{
closed = 1;
nodes = (
"388 277 OFFCURVE",
"404 285 QCURVE",
"415 278 OFFCURVE",
"426 267 QCURVE SMOOTH",
"476 223 OFFCURVE",
"445 181 QCURVE SMOOTH",
"430 160 OFFCURVE",
"365 128 OFFCURVE",
"326 128 QCURVE SMOOTH",
"293 128 OFFCURVE",
"247 141 OFFCURVE",
"230 163 OFFCURVE",
"224 183 OFFCURVE",
"226 193 QCURVE SMOOTH",
"229 220 OFFCURVE",
"275 271 OFFCURVE",
"308 279 QCURVE",
"313 281 OFFCURVE",
"327 280 QCURVE SMOOTH",
"369 277 OFFCURVE",
"371 277 QCURVE",
"371 277 LINE"
);
}
);
userData = {
assembly = "SVTCA[0]\011/* SetFreedomAndProjectionVectorToAxis */
PUSHW[ ]\011/* 1 value pushed */
0 
RCVT[ ]\011/* ReadCVT */
IF[ ]\011/* If */
PUSHW[ ]\011/* 1 value pushed */
36 
MDAP[1]\011/* MoveDirectAbsPt */
ELSE[ ]\011/* Else */
PUSHW[ ]\011/* 2 values pushed */
36 6 
MIAP[0]\011/* MoveIndirectAbsPt */
EIF[ ]\011/* EndIf */
PUSHW[ ]\011/* 4 values pushed */
23 1 8 4 
CALL[ ]\011/* CallFunction */
PUSHW[ ]\011/* 1 value pushed */
36 
SRP0[ ]\011/* SetRefPoint0 */
PUSHW[ ]\011/* 2 values pushed */
54 1 
MIRP[10100]\011/* MoveIndirectRelPt */
NPUSHW[ ]\011/* 7 values pushed */
23 54 39 54 55 54 3 
DELTAP1[ ]\011/* DeltaExceptionP1 */
IUP[0]\011/* InterpolateUntPts */
IUP[1]\011/* InterpolateUntPts */";
};
width = 605;
}
);
note = eight;
unicode = 0038;
},
{
glyphname = nine;
layers = (
{
layerId = "C1D5D18F-17E8-4A1F-B101-925564B9D079";
paths = (
{
closed = 1;
nodes = (
"469 405 OFFCURVE",
"462 403 QCURVE",
"460 403 OFFCURVE",
"412 390 QCURVE SMOOTH",
"395 385 OFFCURVE",
"387 385 QCURVE SMOOTH",
"309 386 OFFCURVE",
"289 432 QCURVE SMOOTH",
"273 473 OFFCURVE",
"335 575 OFFCURVE",
"388 588 QCURVE SMOOTH",
"445 602 OFFCURVE",
"510 564 QCURVE",
"493 480 OFFCURVE",
"475 405 QCURVE",
"475 405 LINE"
);
},
{
closed = 1;
nodes = (
"411 157 OFFCURVE",
"388 80 QCURVE SMOOTH",
"378 51 OFFCURVE",
"406 6 OFFCURVE",
"462 1 OFFCURVE",
"515 38 OFFCURVE",
"523 66 QCURVE SMOOTH",
"596 313 OFFCURVE",
"653 578 QCURVE",
"663 598 OFFCURVE",
"657 638 OFFCURVE",
"642 650 QCURVE SMOOTH",
"516 747 OFFCURVE",
"383 716 QCURVE SMOOTH",
"322 702 OFFCURVE",
"271 663 QCURVE SMOOTH",
"222 624 OFFCURVE",
"191 571 QCURVE SMOOTH",
"161 524 OFFCURVE",
"144 410 OFFCURVE",
"163 363 QCURVE SMOOTH",
"184 312 OFFCURVE",
"283 254 OFFCURVE",
"357 253 QCURVE SMOOTH",
"385 253 OFFCURVE",
"422 263 QCURVE SMOOTH",
"428 264 OFFCURVE",
"439 268 QCURVE",
"439 268 LINE"
);
}
);
userData = {
assembly = "SVTCA[0]\011/* SetFreedomAndProjectionVectorToAxis */
PUSHW[ ]\011/* 4 values pushed */
9 1 19 4 
CALL[ ]\011/* CallFunction */
PUSHW[ ]\011/* 3 values pushed */
15 19 9 
SRP1[ ]\011/* SetRefPoint1 */
SRP2[ ]\011/* SetRefPoint2 */
IP[ ]\011/* InterpolatePts */
IUP[0]\011/* InterpolateUntPts */
IUP[1]\011/* InterpolateUntPts */";
};
width = 586;
}
);
note = nine;
unicode = 0039;
},
{
glyphname = colon;
layers = (
{
layerId = "C1D5D18F-17E8-4A1F-B101-925564B9D079";
paths = (
{
closed = 1;
nodes = (
"258 515 OFFCURVE",
"200 515 OFFCURVE",
"150 474 OFFCURVE",
"138 416 OFFCURVE",
"170 375 OFFCURVE",
"228 375 OFFCURVE",
"278 416 OFFCURVE",
"290 474 OFFCURVE",
"274 494 QCURVE",
"274 494 LINE"
);
},
{
closed = 1;
nodes = (
"182 143 OFFCURVE",
"124 143 OFFCURVE",
"74 102 OFFCURVE",
"62 44 OFFCURVE",
"94 3 OFFCURVE",
"152 3 OFFCURVE",
"202 44 OFFCURVE",
"214 102 OFFCURVE",
"197 122 QCURVE",
"197 122 LINE"
);
}
);
width = 243;
}
);
note = colon;
unicode = 003A;
},
{
glyphname = semicolon;
layers = (
{
layerId = "C1D5D18F-17E8-4A1F-B101-925564B9D079";
paths = (
{
closed = 1;
nodes = (
"236 44 OFFCURVE",
"215 93 OFFCURVE",
"162 107 OFFCURVE",
"107 76 OFFCURVE",
"94 48 QCURVE SMOOTH",
"42 -67 LINE SMOOTH",
"29 -95 OFFCURVE",
"50 -144 OFFCURVE",
"103 -158 OFFCURVE",
"159 -127 OFFCURVE",
"171 -99 QCURVE SMOOTH",
"223 16 LINE",
"223 16 LINE"
);
},
{
closed = 1;
nodes = (
"257 333 OFFCURVE",
"199 333 OFFCURVE",
"150 292 OFFCURVE",
"137 234 OFFCURVE",
"170 193 OFFCURVE",
"228 193 OFFCURVE",
"277 234 OFFCURVE",
"290 292 OFFCURVE",
"273 312 QCURVE",
"273 312 LINE"
);
}
);
width = 278;
}
);
note = semicolon;
unicode = 003B;
},
{
glyphname = less;
layers = (
{
layerId = "C1D5D18F-17E8-4A1F-B101-925564B9D079";
paths = (
{
closed = 1;
nodes = (
"164 307 LINE SMOOTH",
"126 299 OFFCURVE",
"107 264 QCURVE SMOOTH",
"92 239 OFFCURVE",
"105 189 OFFCURVE",
"129 180 QCURVE SMOOTH",
"161 167 OFFCURVE",
"198 154 QCURVE SMOOTH",
"283 124 LINE",
"354 98 LINE SMOOTH",
"485 51 OFFCURVE",
"564 8 QCURVE SMOOTH",
"587 -3 OFFCURVE",
"643 15 OFFCURVE",
"676 64 OFFCURVE",
"669 116 OFFCURVE",
"648 128 QCURVE SMOOTH",
"561 173 OFFCURVE",
"423 223 QCURVE SMOOTH",
"358 246 LINE",
"677 372 LINE SMOOTH",
"704 383 OFFCURVE",
"735 434 OFFCURVE",
"724 484 OFFCURVE",
"678 504 OFFCURVE",
"651 494 QCURVE SMOOTH",
"556 456 LINE",
"451 414 LINE",
"364 380 LINE",
"258 340 LINE",
"165 307 LINE",
"165 307 LINE"
);
}
);
width = 649;
}
);
note = less;
unicode = 003C;
},
{
glyphname = equal;
layers = (
{
layerId = "C1D5D18F-17E8-4A1F-B101-925564B9D079";
paths = (
{
closed = 1;
nodes = (
"179 421 OFFCURVE",
"131 379 OFFCURVE",
"120 321 OFFCURVE",
"153 282 OFFCURVE",
"182 282 QCURVE SMOOTH",
"370 287 OFFCURVE",
"571 288 QCURVE SMOOTH",
"600 288 OFFCURVE",
"650 330 OFFCURVE",
"662 387 OFFCURVE",
"628 428 OFFCURVE",
"600 428 QCURVE SMOOTH",
"396 426 OFFCURVE",
"208 422 QCURVE",
"208 422 LINE"
);
},
{
closed = 1;
nodes = (
"143 220 OFFCURVE",
"92 182 OFFCURVE",
"77 124 OFFCURVE",
"106 81 OFFCURVE",
"134 79 QCURVE SMOOTH",
"206 75 OFFCURVE",
"340 74 QCURVE SMOOTH",
"469 73 OFFCURVE",
"528 71 QCURVE SMOOTH",
"556 70 OFFCURVE",
"608 110 OFFCURVE",
"622 167 OFFCURVE",
"591 210 OFFCURVE",
"563 211 QCURVE SMOOTH",
"509 213 OFFCURVE",
"377 214 QCURVE SMOOTH",
"244 214 OFFCURVE",
"172 219 QCURVE",
"172 219 LINE"
);
}
);
userData = {
assembly = "SVTCA[0]\011/* SetFreedomAndProjectionVectorToAxis */
PUSHW[ ]\011/* 4 values pushed */
18 1 23 4 
CALL[ ]\011/* CallFunction */
PUSHW[ ]\011/* 4 values pushed */
2 1 9 4 
CALL[ ]\011/* CallFunction */
PUSHW[ ]\011/* 1 value pushed */
2 
SRP0[ ]\011/* SetRefPoint0 */
PUSHW[ ]\011/* 1 value pushed */
0 
MDRP[10000]\011/* MoveDirectRelPt */
PUSHW[ ]\011/* 1 value pushed */
0 
MDAP[1]\011/* MoveDirectAbsPt */
PUSHW[ ]\011/* 1 value pushed */
9 
SRP0[ ]\011/* SetRefPoint0 */
PUSHW[ ]\011/* 1 value pushed */
7 
MDRP[10000]\011/* MoveDirectRelPt */
PUSHW[ ]\011/* 1 value pushed */
7 
MDAP[1]\011/* MoveDirectAbsPt */
PUSHW[ ]\011/* 1 value pushed */
18 
SRP0[ ]\011/* SetRefPoint0 */
PUSHW[ ]\011/* 1 value pushed */
16 
MDRP[10000]\011/* MoveDirectRelPt */
PUSHW[ ]\011/* 1 value pushed */
16 
MDAP[1]\011/* MoveDirectAbsPt */
PUSHW[ ]\011/* 1 value pushed */
23 
SRP0[ ]\011/* SetRefPoint0 */
PUSHW[ ]\011/* 1 value pushed */
25 
MDRP[10000]\011/* MoveDirectRelPt */
PUSHW[ ]\011/* 1 value pushed */
25 
MDAP[1]\011/* MoveDirectAbsPt */
IUP[0]\011/* InterpolateUntPts */
IUP[1]\011/* InterpolateUntPts */";
};
width = 666;
}
);
note = equal;
unicode = 003D;
},
{
glyphname = greater;
layers = (
{
layerId = "C1D5D18F-17E8-4A1F-B101-925564B9D079";
paths = (
{
closed = 1;
nodes = (
"101 127 OFFCURVE",
"64 80 OFFCURVE",
"66 27 OFFCURVE",
"107 -1 OFFCURVE",
"136 6 QCURVE SMOOTH",
"233 31 OFFCURVE",
"390 87 QCURVE SMOOTH",
"467 116 LINE",
"556 149 LINE SMOOTH",
"594 163 OFFCURVE",
"634 176 QCURVE SMOOTH",
"649 181 OFFCURVE",
"661 192 QCURVE",
"682 204 OFFCURVE",
"694 224 QCURVE SMOOTH",
"708 249 OFFCURVE",
"697 299 OFFCURVE",
"673 309 QCURVE SMOOTH",
"251 484 LINE SMOOTH",
"229 494 OFFCURVE",
"173 473 OFFCURVE",
"143 422 OFFCURVE",
"153 371 OFFCURVE",
"177 362 QCURVE SMOOTH",
"459 244 LINE",
"367 210 LINE SMOOTH",
"223 157 OFFCURVE",
"129 134 QCURVE",
"129 134 LINE"
);
}
);
width = 711;
}
);
note = greater;
unicode = 003E;
},
{
glyphname = question;
layers = (
{
layerId = "C1D5D18F-17E8-4A1F-B101-925564B9D079";
paths = (
{
closed = 1;
nodes = (
"156 497 OFFCURVE",
"181 451 OFFCURVE",
"237 443 OFFCURVE",
"290 478 OFFCURVE",
"300 506 QCURVE SMOOTH",
"304 517 OFFCURVE",
"308 532 QCURVE SMOOTH",
"309 537 LINE",
"310 543 LINE SMOOTH",
"311 546 OFFCURVE",
"312 548 QCURVE",
"313 554 LINE",
"324 565 OFFCURVE",
"369 584 OFFCURVE",
"399 584 QCURVE SMOOTH",
"431 585 OFFCURVE",
"469 568 OFFCURVE",
"478 544 OFFCURVE",
"475 537 QCURVE SMOOTH",
"469 525 OFFCURVE",
"444 504 QCURVE SMOOTH",
"431 493 OFFCURVE",
"382 456 OFFCURVE",
"374 449 QCURVE SMOOTH",
"321 406 OFFCURVE",
"297 367 QCURVE SMOOTH",
"282 344 OFFCURVE",
"272 311 QCURVE",
"270 307 OFFCURVE",
"266 294 OFFCURVE",
"263 284 OFFCURVE",
"261 278 QCURVE SMOOTH",
"250 250 OFFCURVE",
"274 203 OFFCURVE",
"329 193 OFFCURVE",
"383 227 OFFCURVE",
"394 256 QCURVE",
"394 258 OFFCURVE",
"407 297 QCURVE SMOOTH",
"411 309 OFFCURVE",
"413 313 QCURVE SMOOTH",
"422 326 OFFCURVE",
"451 349 QCURVE SMOOTH",
"459 356 OFFCURVE",
"484 376 QCURVE SMOOTH",
"524 407 LINE SMOOTH",
"578 453 OFFCURVE",
"600 498 QCURVE SMOOTH",
"633 563 OFFCURVE",
"609 628 QCURVE SMOOTH",
"589 680 OFFCURVE",
"485 726 OFFCURVE",
"424 724 QCURVE SMOOTH",
"365 722 OFFCURVE",
"304 696 QCURVE SMOOTH",
"243 671 OFFCURVE",
"204 620 QCURVE SMOOTH",
"184 593 OFFCURVE",
"174 556 QCURVE SMOOTH",
"169 536 LINE SMOOTH",
"167 529 OFFCURVE",
"166 526 QCURVE",
"166 526 LINE"
);
},
{
closed = 1;
nodes = (
"329 143 OFFCURVE",
"271 143 OFFCURVE",
"221 102 OFFCURVE",
"209 44 OFFCURVE",
"241 3 OFFCURVE",
"299 3 OFFCURVE",
"349 44 OFFCURVE",
"361 102 OFFCURVE",
"344 122 QCURVE",
"344 122 LINE"
);
}
);
userData = {
assembly = "SVTCA[0]\011/* SetFreedomAndProjectionVectorToAxis */
PUSHW[ ]\011/* 4 values pushed */
9 1 47 4 
CALL[ ]\011/* CallFunction */
IUP[0]\011/* InterpolateUntPts */
IUP[1]\011/* InterpolateUntPts */";
};
width = 551;
}
);
note = question;
unicode = 003F;
},
{
glyphname = at;
layers = (
{
layerId = "C1D5D18F-17E8-4A1F-B101-925564B9D079";
paths = (
{
closed = 1;
nodes = (
"593 452 OFFCURVE",
"590 450 QCURVE",
"582 439 OFFCURVE",
"577 424 QCURVE",
"575 423 OFFCURVE",
"570 406 OFFCURVE",
"567 399 QCURVE SMOOTH",
"553 364 OFFCURVE",
"525 334 QCURVE SMOOTH",
"492 297 OFFCURVE",
"457 283 QCURVE SMOOTH",
"433 274 OFFCURVE",
"420 290 QCURVE SMOOTH",
"414 298 OFFCURVE",
"416 326 OFFCURVE",
"441 371 OFFCURVE",
"468 396 QCURVE SMOOTH",
"504 432 OFFCURVE",
"575 461 OFFCURVE",
"592 455 QCURVE",
"593 454 OFFCURVE",
"594 454 QCURVE",
"594 454 LINE"
);
},
{
closed = 1;
nodes = (
"570 212 OFFCURVE",
"588 200 QCURVE",
"634 175 OFFCURVE",
"740 184 OFFCURVE",
"843 248 OFFCURVE",
"873 296 QCURVE SMOOTH",
"880 306 OFFCURVE",
"889 328 OFFCURVE",
"897 352 OFFCURVE",
"901 365 OFFCURVE",
"904 378 QCURVE SMOOTH",
"906 390 LINE SMOOTH",
"923 457 OFFCURVE",
"900 569 OFFCURVE",
"835 646 OFFCURVE",
"745 696 OFFCURVE",
"691 707 QCURVE SMOOTH",
"581 731 OFFCURVE",
"335 665 OFFCURVE",
"248 577 QCURVE SMOOTH",
"185 513 OFFCURVE",
"153 442 QCURVE SMOOTH",
"123 370 OFFCURVE",
"129 240 OFFCURVE",
"179 125 OFFCURVE",
"276 40 OFFCURVE",
"339 19 QCURVE SMOOTH",
"385 4 OFFCURVE",
"486 -3 OFFCURVE",
"588 13 OFFCURVE",
"680 39 OFFCURVE",
"732 59 QCURVE SMOOTH",
"755 68 OFFCURVE",
"782 111 OFFCURVE",
"773 154 OFFCURVE",
"734 172 OFFCURVE",
"710 163 QCURVE SMOOTH",
"647 138 OFFCURVE",
"548 114 OFFCURVE",
"437 110 OFFCURVE",
"393 127 QCURVE SMOOTH",
"334 146 OFFCURVE",
"256 233 OFFCURVE",
"233 338 OFFCURVE",
"272 458 OFFCURVE",
"322 509 QCURVE SMOOTH",
"379 567 OFFCURVE",
"469 592 QCURVE SMOOTH",
"560 616 OFFCURVE",
"646 598 QCURVE SMOOTH",
"732 580 OFFCURVE",
"814 473 OFFCURVE",
"795 394 QCURVE SMOOTH",
"784 347 OFFCURVE",
"778 338 QCURVE SMOOTH",
"760 309 OFFCURVE",
"686 283 OFFCURVE",
"663 298 QCURVE SMOOTH",
"653 304 OFFCURVE",
"664 337 QCURVE SMOOTH",
"675 364 LINE SMOOTH",
"682 380 OFFCURVE",
"684 383 QCURVE",
"691 401 OFFCURVE",
"693 413 QCURVE SMOOTH",
"693 414 LINE",
"705 420 OFFCURVE",
"715 431 QCURVE SMOOTH",
"732 450 OFFCURVE",
"734 495 OFFCURVE",
"718 509 QCURVE SMOOTH",
"713 513 OFFCURVE",
"697 529 OFFCURVE",
"695 531 QCURVE SMOOTH",
"675 551 OFFCURVE",
"654 559 QCURVE SMOOTH",
"596 583 OFFCURVE",
"452 521 OFFCURVE",
"396 467 QCURVE SMOOTH",
"369 441 OFFCURVE",
"328 382 OFFCURVE",
"298 313 OFFCURVE",
"302 241 OFFCURVE",
"324 212 QCURVE SMOOTH",
"342 187 OFFCURVE",
"397 165 OFFCURVE",
"450 169 OFFCURVE",
"479 180 QCURVE SMOOTH",
"518 196 OFFCURVE",
"559 228 QCURVE",
"559 228 LINE"
);
}
);
width = 922;
}
);
note = at;
unicode = 0040;
},
{
glyphname = A;
layers = (
{
layerId = "C1D5D18F-17E8-4A1F-B101-925564B9D079";
paths = (
{
closed = 1;
nodes = (
"410 331 OFFCURVE",
"372 331 QCURVE",
"451 460 LINE",
"477 333 LINE",
"477 333 LINE"
);
},
{
closed = 1;
nodes = (
"557 696 OFFCURVE",
"519 719 OFFCURVE",
"496 715 QCURVE",
"475 714 OFFCURVE",
"436 690 OFFCURVE",
"424 671 QCURVE SMOOTH",
"77 94 LINE SMOOTH",
"61 68 OFFCURVE",
"67 41 QCURVE SMOOTH",
"73 15 OFFCURVE",
"122 -8 OFFCURVE",
"181 15 OFFCURVE",
"198 41 QCURVE SMOOTH",
"285 190 LINE",
"334 191 OFFCURVE",
"504 195 QCURVE",
"528 43 LINE SMOOTH",
"533 17 OFFCURVE",
"582 -6 OFFCURVE",
"642 16 OFFCURVE",
"676 69 OFFCURVE",
"671 96 QCURVE SMOOTH",
"640 276 LINE",
"599 491 LINE",
"564 675 LINE",
"564 675 LINE"
);
}
);
userData = {
assembly = "SVTCA[0]\011/* SetFreedomAndProjectionVectorToAxis */
PUSHW[ ]\011/* 4 values pushed */
0 1 15 4 
CALL[ ]\011/* CallFunction */
PUSHW[ ]\011/* 1 value pushed */
0 
SRP0[ ]\011/* SetRefPoint0 */
PUSHW[ ]\011/* 1 value pushed */
2 
MDRP[10000]\011/* MoveDirectRelPt */
PUSHW[ ]\011/* 1 value pushed */
2 
MDAP[1]\011/* MoveDirectAbsPt */
PUSHW[ ]\011/* 1 value pushed */
15 
SRP0[ ]\011/* SetRefPoint0 */
PUSHW[ ]\011/* 1 value pushed */
13 
MDRP[10000]\011/* MoveDirectRelPt */
PUSHW[ ]\011/* 1 value pushed */
13 
MDAP[1]\011/* MoveDirectAbsPt */
IUP[0]\011/* InterpolateUntPts */
IUP[1]\011/* InterpolateUntPts */";
};
width = 695;
}
);
note = A;
unicode = 0041;
},
{
glyphname = B;
layers = (
{
layerId = "C1D5D18F-17E8-4A1F-B101-925564B9D079";
paths = (
{
closed = 1;
nodes = (
"337 574 OFFCURVE",
"349 574 QCURVE SMOOTH",
"396 576 OFFCURVE",
"429 574 QCURVE SMOOTH",
"507 569 OFFCURVE",
"541 540 QCURVE SMOOTH",
"553 528 OFFCURVE",
"552 517 QCURVE SMOOTH",
"552 501 OFFCURVE",
"534 474 QCURVE SMOOTH",
"513 441 OFFCURVE",
"434 434 QCURVE SMOOTH",
"381 430 OFFCURVE",
"293 440 QCURVE",
"306 512 OFFCURVE",
"316 573 QCURVE",
"316 573 LINE"
);
},
{
closed = 1;
nodes = (
"274 286 LINE",
"287 286 OFFCURVE",
"373 287 QCURVE SMOOTH",
"434 289 OFFCURVE",
"470 284 QCURVE SMOOTH",
"549 275 OFFCURVE",
"550 237 QCURVE SMOOTH",
"551 211 OFFCURVE",
"540 191 OFFCURVE",
"514 175 QCURVE SMOOTH",
"455 138 OFFCURVE",
"354 134 QCURVE SMOOTH",
"315 133 OFFCURVE",
"257 135 QCURVE SMOOTH",
"246 136 OFFCURVE",
"228 137 QCURVE",
"230 146 OFFCURVE",
"261 288 QCURVE",
"261 288 LINE"
);
},
{
closed = 1;
nodes = (
"274 714 OFFCURVE",
"257 704 QCURVE",
"230 699 OFFCURVE",
"189 656 OFFCURVE",
"185 628 QCURVE SMOOTH",
"174 543 OFFCURVE",
"142 374 OFFCURVE",
"89 134 OFFCURVE",
"79 87 QCURVE",
"76 80 OFFCURVE",
"74 73 QCURVE SMOOTH",
"70 52 OFFCURVE",
"84 18 OFFCURVE",
"100 9 QCURVE SMOOTH",
"113 1 OFFCURVE",
"131 1 QCURVE SMOOTH",
"135 1 OFFCURVE",
"139 2 QCURVE",
"154 1 OFFCURVE",
"211 -2 OFFCURVE",
"221 -2 QCURVE SMOOTH",
"284 -5 OFFCURVE",
"331 -3 QCURVE SMOOTH",
"473 3 OFFCURVE",
"570 62 QCURVE SMOOTH",
"635 103 OFFCURVE",
"665 152 QCURVE SMOOTH",
"695 202 OFFCURVE",
"692 271 QCURVE SMOOTH",
"688 350 OFFCURVE",
"622 389 QCURVE",
"637 397 OFFCURVE",
"649 416 QCURVE SMOOTH",
"691 484 OFFCURVE",
"694 541 QCURVE SMOOTH",
"698 610 OFFCURVE",
"647 656 QCURVE SMOOTH",
"586 710 OFFCURVE",
"467 717 QCURVE SMOOTH",
"429 720 OFFCURVE",
"374 718 QCURVE SMOOTH",
"363 717 OFFCURVE",
"307 715 OFFCURVE",
"293 715 QCURVE",
"293 715 LINE"
);
}
);
userData = {
assembly = "PUSHW[ ]\011/* 4 values pushed */
49 4 27 4 
CALL[ ]\011/* CallFunction */
NPUSHW[ ]\011/* 7 values pushed */
25 27 41 27 57 27 3 
DELTAP1[ ]\011/* DeltaExceptionP1 */
PUSHW[ ]\011/* 1 value pushed */
27 
SRP0[ ]\011/* SetRefPoint0 */
PUSHW[ ]\011/* 1 value pushed */
8 
MDRP[10000]\011/* MoveDirectRelPt */
PUSHW[ ]\011/* 1 value pushed */
8 
MDAP[1]\011/* MoveDirectAbsPt */
PUSHW[ ]\011/* 1 value pushed */
49 
SRP0[ ]\011/* SetRefPoint0 */
PUSHW[ ]\011/* 1 value pushed */
43 
MDRP[10000]\011/* MoveDirectRelPt */
PUSHW[ ]\011/* 1 value pushed */
43 
MDAP[1]\011/* MoveDirectAbsPt */
PUSHW[ ]\011/* 3 values pushed */
47 27 49 
SRP1[ ]\011/* SetRefPoint1 */
SRP2[ ]\011/* SetRefPoint2 */
IP[ ]\011/* InterpolatePts */
PUSHW[ ]\011/* 1 value pushed */
49 
SRP0[ ]\011/* SetRefPoint0 */
PUSHW[ ]\011/* 1 value pushed */
79 
MDRP[11100]\011/* MoveDirectRelPt */
SVTCA[0]\011/* SetFreedomAndProjectionVectorToAxis */
PUSHW[ ]\011/* 1 value pushed */
0 
RCVT[ ]\011/* ReadCVT */
IF[ ]\011/* If */
PUSHW[ ]\011/* 1 value pushed */
55 
MDAP[1]\011/* MoveDirectAbsPt */
ELSE[ ]\011/* Else */
PUSHW[ ]\011/* 2 values pushed */
55 6 
MIAP[0]\011/* MoveIndirectAbsPt */
EIF[ ]\011/* EndIf */
PUSHW[ ]\011/* 1 value pushed */
0 
RCVT[ ]\011/* ReadCVT */
IF[ ]\011/* If */
PUSHW[ ]\011/* 1 value pushed */
57 
MDAP[1]\011/* MoveDirectAbsPt */
ELSE[ ]\011/* Else */
PUSHW[ ]\011/* 2 values pushed */
57 6 
MIAP[0]\011/* MoveIndirectAbsPt */
EIF[ ]\011/* EndIf */
PUSHW[ ]\011/* 1 value pushed */
0 
RCVT[ ]\011/* ReadCVT */
IF[ ]\011/* If */
PUSHW[ ]\011/* 1 value pushed */
60 
MDAP[1]\011/* MoveDirectAbsPt */
ELSE[ ]\011/* Else */
PUSHW[ ]\011/* 2 values pushed */
60 6 
MIAP[0]\011/* MoveIndirectAbsPt */
EIF[ ]\011/* EndIf */
PUSHW[ ]\011/* 1 value pushed */
0 
RCVT[ ]\011/* ReadCVT */
IF[ ]\011/* If */
PUSHW[ ]\011/* 1 value pushed */
62 
MDAP[1]\011/* MoveDirectAbsPt */
ELSE[ ]\011/* Else */
PUSHW[ ]\011/* 2 values pushed */
62 6 
MIAP[0]\011/* MoveIndirectAbsPt */
EIF[ ]\011/* EndIf */
PUSHW[ ]\011/* 4 values pushed */
39 1 12 4 
CALL[ ]\011/* CallFunction */
PUSHW[ ]\011/* 1 value pushed */
12 
SRP0[ ]\011/* SetRefPoint0 */
PUSHW[ ]\011/* 1 value pushed */
0 
MDRP[10000]\011/* MoveDirectRelPt */
PUSHW[ ]\011/* 1 value pushed */
0 
MDAP[1]\011/* MoveDirectAbsPt */
PUSHW[ ]\011/* 1 value pushed */
12 
SRP0[ ]\011/* SetRefPoint0 */
PUSHW[ ]\011/* 1 value pushed */
14 
MDRP[10000]\011/* MoveDirectRelPt */
PUSHW[ ]\011/* 1 value pushed */
57 
SRP0[ ]\011/* SetRefPoint0 */
PUSHW[ ]\011/* 2 values pushed */
18 1 
MIRP[10100]\011/* MoveIndirectRelPt */
NPUSHW[ ]\011/* 7 values pushed */
23 18 39 18 55 18 3 
DELTAP1[ ]\011/* DeltaExceptionP1 */
PUSHW[ ]\011/* 1 value pushed */
20 
MDRP[10000]\011/* MoveDirectRelPt */
PUSHW[ ]\011/* 1 value pushed */
20 
MDAP[1]\011/* MoveDirectAbsPt */
PUSHW[ ]\011/* 1 value pushed */
22 
MDRP[10000]\011/* MoveDirectRelPt */
PUSHW[ ]\011/* 1 value pushed */
39 
SRP0[ ]\011/* SetRefPoint0 */
PUSHW[ ]\011/* 1 value pushed */
34 
MDRP[10000]\011/* MoveDirectRelPt */
PUSHW[ ]\011/* 1 value pushed */
34 
MDAP[1]\011/* MoveDirectAbsPt */
PUSHW[ ]\011/* 1 value pushed */
39 
SRP0[ ]\011/* SetRefPoint0 */
PUSHW[ ]\011/* 1 value pushed */
37 
MDRP[10000]\011/* MoveDirectRelPt */
PUSHW[ ]\011/* 1 value pushed */
37 
MDAP[1]\011/* MoveDirectAbsPt */
IUP[0]\011/* InterpolateUntPts */
IUP[1]\011/* InterpolateUntPts */";
};
width = 703;
}
);
note = B;
unicode = 0042;
},
{
glyphname = C;
layers = (
{
layerId = "C1D5D18F-17E8-4A1F-B101-925564B9D079";
paths = (
{
closed = 1;
nodes = (
"667 464 OFFCURVE",
"724 459 OFFCURVE",
"776 496 OFFCURVE",
"793 552 OFFCURVE",
"779 574 QCURVE SMOOTH",
"765 599 LINE SMOOTH",
"754 617 OFFCURVE",
"746 625 QCURVE SMOOTH",
"727 648 LINE SMOOTH",
"713 663 OFFCURVE",
"680 685 OFFCURVE",
"659 694 QCURVE SMOOTH",
"575 731 OFFCURVE",
"457 699 QCURVE SMOOTH",
"381 679 OFFCURVE",
"251 592 OFFCURVE",
"166 476 OFFCURVE",
"115 330 OFFCURVE",
"119 261 QCURVE SMOOTH",
"124 144 OFFCURVE",
"191 74 QCURVE SMOOTH",
"228 35 OFFCURVE",
"346 -3 OFFCURVE",
"412 -1 QCURVE SMOOTH",
"482 1 OFFCURVE",
"619 57 OFFCURVE",
"668 114 QCURVE SMOOTH",
"687 137 OFFCURVE",
"704 171 QCURVE",
"708 182 LINE",
"712 189 OFFCURVE",
"717 200 OFFCURVE",
"720 206 QCURVE SMOOTH",
"735 233 OFFCURVE",
"720 283 OFFCURVE",
"669 301 OFFCURVE",
"611 275 OFFCURVE",
"597 250 QCURVE",
"595 248 OFFCURVE",
"575 206 QCURVE SMOOTH",
"568 192 OFFCURVE",
"564 187 QCURVE SMOOTH",
"522 138 OFFCURVE",
"437 135 QCURVE SMOOTH",
"396 134 OFFCURVE",
"324 158 OFFCURVE",
"305 178 QCURVE SMOOTH",
"266 219 OFFCURVE",
"263 294 QCURVE SMOOTH",
"260 386 OFFCURVE",
"375 543 OFFCURVE",
"469 568 QCURVE SMOOTH",
"537 586 OFFCURVE",
"580 567 QCURVE SMOOTH",
"591 562 OFFCURVE",
"604 554 OFFCURVE",
"618 539 OFFCURVE",
"626 528 OFFCURVE",
"645 496 OFFCURVE",
"653 485 QCURVE",
"653 485 LINE"
);
}
);
userData = {
assembly = "PUSHW[ ]\011/* 4 values pushed */
11 4 41 4 
CALL[ ]\011/* CallFunction */
NPUSHW[ ]\011/* 7 values pushed */
22 11 38 11 54 11 3 
DELTAP1[ ]\011/* DeltaExceptionP1 */
SVTCA[0]\011/* SetFreedomAndProjectionVectorToAxis */
PUSHW[ ]\011/* 1 value pushed */
0 
RCVT[ ]\011/* ReadCVT */
IF[ ]\011/* If */
PUSHW[ ]\011/* 1 value pushed */
36 
MDAP[1]\011/* MoveDirectAbsPt */
ELSE[ ]\011/* Else */
PUSHW[ ]\011/* 2 values pushed */
36 6 
MIAP[0]\011/* MoveIndirectAbsPt */
EIF[ ]\011/* EndIf */
PUSHW[ ]\011/* 2 values pushed */
16 1 
MIRP[10100]\011/* MoveIndirectRelPt */
NPUSHW[ ]\011/* 7 values pushed */
23 16 39 16 55 16 3 
DELTAP1[ ]\011/* DeltaExceptionP1 */
IUP[0]\011/* InterpolateUntPts */
IUP[1]\011/* InterpolateUntPts */";
};
width = 737;
}
);
note = C;
unicode = 0043;
},
{
glyphname = D;
layers = (
{
layerId = "C1D5D18F-17E8-4A1F-B101-925564B9D079";
paths = (
{
closed = 1;
nodes = (
"232 184 OFFCURVE",
"272 384 OFFCURVE",
"294 486 OFFCURVE",
"315 581 QCURVE",
"405 588 OFFCURVE",
"521 570 OFFCURVE",
"552 535 QCURVE SMOOTH",
"591 491 OFFCURVE",
"573 324 OFFCURVE",
"480 188 OFFCURVE",
"414 159 QCURVE SMOOTH",
"375 142 OFFCURVE",
"300 139 QCURVE SMOOTH",
"271 138 OFFCURVE",
"222 138 QCURVE",
"222 138 LINE"
);
},
{
closed = 1;
nodes = (
"288 716 OFFCURVE",
"278 713 QCURVE",
"249 714 OFFCURVE",
"198 674 OFFCURVE",
"191 647 QCURVE SMOOTH",
"177 601 OFFCURVE",
"78 116 OFFCURVE",
"68 71 QCURVE SMOOTH",
"62 43 OFFCURVE",
"93 2 OFFCURVE",
"121 1 QCURVE",
"127 0 OFFCURVE",
"134 0 QCURVE SMOOTH",
"148 0 OFFCURVE",
"255 -1 OFFCURVE",
"277 0 QCURVE SMOOTH",
"381 5 OFFCURVE",
"450 35 QCURVE SMOOTH",
"516 65 OFFCURVE",
"629 172 OFFCURVE",
"700 303 OFFCURVE",
"735 458 OFFCURVE",
"710 590 OFFCURVE",
"668 637 QCURVE SMOOTH",
"646 662 OFFCURVE",
"588 698 OFFCURVE",
"516 715 OFFCURVE",
"460 725 OFFCURVE",
"374 722 OFFCURVE",
"337 720 OFFCURVE",
"297 716 QCURVE",
"297 716 LINE"
);
}
);
userData = {
assembly = "SVTCA[0]\011/* SetFreedomAndProjectionVectorToAxis */
PUSHW[ ]\011/* 1 value pushed */
0 
RCVT[ ]\011/* ReadCVT */
IF[ ]\011/* If */
PUSHW[ ]\011/* 1 value pushed */
30 
MDAP[1]\011/* MoveDirectAbsPt */
ELSE[ ]\011/* Else */
PUSHW[ ]\011/* 2 values pushed */
30 6 
MIAP[0]\011/* MoveIndirectAbsPt */
EIF[ ]\011/* EndIf */
PUSHW[ ]\011/* 1 value pushed */
0 
RCVT[ ]\011/* ReadCVT */
IF[ ]\011/* If */
PUSHW[ ]\011/* 1 value pushed */
33 
MDAP[1]\011/* MoveDirectAbsPt */
ELSE[ ]\011/* Else */
PUSHW[ ]\011/* 2 values pushed */
33 6 
MIAP[0]\011/* MoveIndirectAbsPt */
EIF[ ]\011/* EndIf */
PUSHW[ ]\011/* 1 value pushed */
0 
RCVT[ ]\011/* ReadCVT */
IF[ ]\011/* If */
PUSHW[ ]\011/* 1 value pushed */
35 
MDAP[1]\011/* MoveDirectAbsPt */
ELSE[ ]\011/* Else */
PUSHW[ ]\011/* 2 values pushed */
35 6 
MIAP[0]\011/* MoveIndirectAbsPt */
EIF[ ]\011/* EndIf */
PUSHW[ ]\011/* 4 values pushed */
44 1 11 4 
CALL[ ]\011/* CallFunction */
PUSHW[ ]\011/* 1 value pushed */
30 
SRP0[ ]\011/* SetRefPoint0 */
PUSHW[ ]\011/* 2 values pushed */
0 1 
MIRP[10100]\011/* MoveIndirectRelPt */
NPUSHW[ ]\011/* 7 values pushed */
23 0 39 0 55 0 3 
DELTAP1[ ]\011/* DeltaExceptionP1 */
PUSHW[ ]\011/* 1 value pushed */
2 
MDRP[10000]\011/* MoveDirectRelPt */
PUSHW[ ]\011/* 1 value pushed */
44 
SRP0[ ]\011/* SetRefPoint0 */
PUSHW[ ]\011/* 1 value pushed */
15 
MDRP[10000]\011/* MoveDirectRelPt */
PUSHW[ ]\011/* 1 value pushed */
15 
MDAP[1]\011/* MoveDirectAbsPt */
IUP[0]\011/* InterpolateUntPts */
IUP[1]\011/* InterpolateUntPts */";
};
width = 693;
}
);
note = D;
unicode = 0044;
},
{
glyphname = E;
layers = (
{
layerId = "C1D5D18F-17E8-4A1F-B101-925564B9D079";
paths = (
{
closed = 1;
nodes = (
"263 715 OFFCURVE",
"224 690 OFFCURVE",
"212 670 QCURVE SMOOTH",
"205 659 OFFCURVE",
"201 646 QCURVE SMOOTH",
"169 543 OFFCURVE",
"132 363 QCURVE SMOOTH",
"81 116 OFFCURVE",
"73 81 QCURVE SMOOTH",
"68 60 OFFCURVE",
"76 42 QCURVE",
"81 25 OFFCURVE",
"109 2 OFFCURVE",
"129 2 QCURVE SMOOTH",
"384 -1 OFFCURVE",
"532 -1 QCURVE SMOOTH",
"561 -1 OFFCURVE",
"610 39 OFFCURVE",
"622 97 OFFCURVE",
"591 137 OFFCURVE",
"562 137 QCURVE SMOOTH",
"426 137 OFFCURVE",
"223 139 QCURVE",
"234 185 OFFCURVE",
"256 297 QCURVE",
"302 298 OFFCURVE",
"551 298 QCURVE SMOOTH",
"580 298 OFFCURVE",
"630 339 OFFCURVE",
"642 396 OFFCURVE",
"609 436 OFFCURVE",
"580 436 QCURVE SMOOTH",
"332 436 OFFCURVE",
"284 435 QCURVE",
"303 518 OFFCURVE",
"319 579 QCURVE",
"375 580 OFFCURVE",
"597 579 OFFCURVE",
"653 579 QCURVE SMOOTH",
"682 579 OFFCURVE",
"729 620 OFFCURVE",
"741 677 OFFCURVE",
"709 717 OFFCURVE",
"680 717 QCURVE SMOOTH",
"607 716 OFFCURVE",
"359 717 OFFCURVE",
"286 716 QCURVE",
"286 716 LINE"
);
}
);
userData = {
assembly = "SVTCA[0]\011/* SetFreedomAndProjectionVectorToAxis */
PUSHW[ ]\011/* 1 value pushed */
0 
MDAP[1]\011/* MoveDirectAbsPt */
PUSHW[ ]\011/* 1 value pushed */
3 
MDAP[1]\011/* MoveDirectAbsPt */
PUSHW[ ]\011/* 1 value pushed */
0 
RCVT[ ]\011/* ReadCVT */
IF[ ]\011/* If */
PUSHW[ ]\011/* 1 value pushed */
31 
MDAP[1]\011/* MoveDirectAbsPt */
ELSE[ ]\011/* Else */
PUSHW[ ]\011/* 2 values pushed */
31 6 
MIAP[0]\011/* MoveIndirectAbsPt */
EIF[ ]\011/* EndIf */
PUSHW[ ]\011/* 1 value pushed */
0 
RCVT[ ]\011/* ReadCVT */
IF[ ]\011/* If */
PUSHW[ ]\011/* 1 value pushed */
33 
MDAP[1]\011/* MoveDirectAbsPt */
ELSE[ ]\011/* Else */
PUSHW[ ]\011/* 2 values pushed */
33 6 
MIAP[0]\011/* MoveIndirectAbsPt */
EIF[ ]\011/* EndIf */
PUSHW[ ]\011/* 4 values pushed */
15 1 20 4 
CALL[ ]\011/* CallFunction */
PUSHW[ ]\011/* 1 value pushed */
3 
SRP0[ ]\011/* SetRefPoint0 */
PUSHW[ ]\011/* 2 values pushed */
8 1 
MIRP[10100]\011/* MoveIndirectRelPt */
PUSHW[ ]\011/* 1 value pushed */
11 
MDRP[10000]\011/* MoveDirectRelPt */
PUSHW[ ]\011/* 1 value pushed */
15 
SRP0[ ]\011/* SetRefPoint0 */
PUSHW[ ]\011/* 1 value pushed */
13 
MDRP[10000]\011/* MoveDirectRelPt */
PUSHW[ ]\011/* 1 value pushed */
13 
MDAP[1]\011/* MoveDirectAbsPt */
PUSHW[ ]\011/* 1 value pushed */
20 
SRP0[ ]\011/* SetRefPoint0 */
PUSHW[ ]\011/* 1 value pushed */
22 
MDRP[10000]\011/* MoveDirectRelPt */
PUSHW[ ]\011/* 1 value pushed */
22 
MDAP[1]\011/* MoveDirectAbsPt */
PUSHW[ ]\011/* 1 value pushed */
33 
SRP0[ ]\011/* SetRefPoint0 */
PUSHW[ ]\011/* 2 values pushed */
24 1 
MIRP[10100]\011/* MoveIndirectRelPt */
NPUSHW[ ]\011/* 7 values pushed */
23 24 39 24 55 24 3 
DELTAP1[ ]\011/* DeltaExceptionP1 */
PUSHW[ ]\011/* 1 value pushed */
26 
MDRP[10000]\011/* MoveDirectRelPt */
PUSHW[ ]\011/* 1 value pushed */
26 
MDAP[1]\011/* MoveDirectAbsPt */
IUP[0]\011/* InterpolateUntPts */
IUP[1]\011/* InterpolateUntPts */";
};
width = 637;
}
);
note = E;
unicode = 0045;
},
{
glyphname = F;
layers = (
{
layerId = "C1D5D18F-17E8-4A1F-B101-925564B9D079";
paths = (
{
closed = 1;
nodes = (
"274 718 LINE",
"270 718 LINE SMOOTH",
"241 716 OFFCURVE",
"193 674 OFFCURVE",
"188 645 QCURVE SMOOTH",
"177 579 OFFCURVE",
"144 412 OFFCURVE",
"127 326 OFFCURVE",
"76 91 OFFCURVE",
"71 70 QCURVE SMOOTH",
"65 41 OFFCURVE",
"98 0 OFFCURVE",
"156 0 OFFCURVE",
"205 41 OFFCURVE",
"211 70 QCURVE SMOOTH",
"233 174 LINE",
"261 305 LINE",
"405 306 OFFCURVE",
"525 308 QCURVE SMOOTH",
"553 309 OFFCURVE",
"602 351 OFFCURVE",
"613 408 OFFCURVE",
"580 448 OFFCURVE",
"551 448 QCURVE SMOOTH",
"431 445 OFFCURVE",
"290 445 QCURVE",
"304 515 OFFCURVE",
"316 579 QCURVE",
"430 580 OFFCURVE",
"615 578 QCURVE SMOOTH",
"644 578 OFFCURVE",
"695 619 OFFCURVE",
"707 676 OFFCURVE",
"692 697 QCURVE SMOOTH",
"675 718 OFFCURVE",
"647 718 QCURVE SMOOTH",
"414 720 OFFCURVE",
"275 718 QCURVE",
"275 718 LINE"
);
}
);
userData = {
assembly = "SVTCA[0]\011/* SetFreedomAndProjectionVectorToAxis */
PUSHW[ ]\011/* 4 values pushed */
2 1 8 4 
CALL[ ]\011/* CallFunction */
PUSHW[ ]\011/* 4 values pushed */
14 1 21 4 
CALL[ ]\011/* CallFunction */
PUSHW[ ]\011/* 1 value pushed */
2 
SRP0[ ]\011/* SetRefPoint0 */
PUSHW[ ]\011/* 1 value pushed */
0 
MDRP[10000]\011/* MoveDirectRelPt */
PUSHW[ ]\011/* 1 value pushed */
8 
SRP0[ ]\011/* SetRefPoint0 */
PUSHW[ ]\011/* 1 value pushed */
10 
MDRP[10000]\011/* MoveDirectRelPt */
PUSHW[ ]\011/* 1 value pushed */
10 
MDAP[1]\011/* MoveDirectAbsPt */
PUSHW[ ]\011/* 1 value pushed */
14 
SRP0[ ]\011/* SetRefPoint0 */
PUSHW[ ]\011/* 1 value pushed */
12 
MDRP[10000]\011/* MoveDirectRelPt */
PUSHW[ ]\011/* 1 value pushed */
12 
MDAP[1]\011/* MoveDirectAbsPt */
PUSHW[ ]\011/* 1 value pushed */
21 
SRP0[ ]\011/* SetRefPoint0 */
PUSHW[ ]\011/* 1 value pushed */
19 
MDRP[10000]\011/* MoveDirectRelPt */
PUSHW[ ]\011/* 1 value pushed */
19 
MDAP[1]\011/* MoveDirectAbsPt */
PUSHW[ ]\011/* 1 value pushed */
2 
SRP0[ ]\011/* SetRefPoint0 */
PUSHW[ ]\011/* 1 value pushed */
36 
MDRP[10000]\011/* MoveDirectRelPt */
IUP[0]\011/* InterpolateUntPts */
IUP[1]\011/* InterpolateUntPts */";
};
width = 614;
}
);
note = F;
unicode = 0046;
},
{
glyphname = G;
layers = (
{
layerId = "C1D5D18F-17E8-4A1F-B101-925564B9D079";
paths = (
{
closed = 1;
nodes = (
"498 388 OFFCURVE",
"451 346 OFFCURVE",
"441 288 OFFCURVE",
"475 250 OFFCURVE",
"504 251 QCURVE SMOOTH",
"586 255 OFFCURVE",
"614 254 QCURVE",
"612 248 OFFCURVE",
"609 241 QCURVE SMOOTH",
"603 227 OFFCURVE",
"578 204 QCURVE SMOOTH",
"524 152 OFFCURVE",
"389 129 OFFCURVE",
"279 191 OFFCURVE",
"260 256 QCURVE SMOOTH",
"242 324 OFFCURVE",
"297 461 OFFCURVE",
"361 513 QCURVE SMOOTH",
"422 565 OFFCURVE",
"556 588 OFFCURVE",
"619 552 QCURVE",
"628 545 OFFCURVE",
"641 534 OFFCURVE",
"654 516 OFFCURVE",
"657 510 QCURVE SMOOTH",
"668 488 LINE",
"683 462 LINE SMOOTH",
"696 439 OFFCURVE",
"750 431 OFFCURVE",
"803 465 OFFCURVE",
"823 522 OFFCURVE",
"811 545 QCURVE SMOOTH",
"808 550 OFFCURVE",
"788 588 OFFCURVE",
"778 605 OFFCURVE",
"756 635 OFFCURVE",
"731 660 OFFCURVE",
"713 670 QCURVE",
"648 714 OFFCURVE",
"490 720 OFFCURVE",
"417 691 QCURVE SMOOTH",
"346 663 OFFCURVE",
"282 609 QCURVE SMOOTH",
"219 557 OFFCURVE",
"177 490 QCURVE SMOOTH",
"134 424 OFFCURVE",
"102 265 OFFCURVE",
"124 192 QCURVE SMOOTH",
"142 133 OFFCURVE",
"225 43 OFFCURVE",
"339 -1 OFFCURVE",
"467 -2 OFFCURVE",
"606 57 OFFCURVE",
"666 115 QCURVE SMOOTH",
"715 162 OFFCURVE",
"736 207 QCURVE SMOOTH",
"744 225 OFFCURVE",
"757 272 OFFCURVE",
"761 296 QCURVE SMOOTH",
"766 319 LINE SMOOTH",
"774 350 OFFCURVE",
"756 371 QCURVE SMOOTH",
"740 392 OFFCURVE",
"711 392 QCURVE SMOOTH",
"609 392 OFFCURVE",
"527 389 QCURVE",
"527 389 LINE"
);
}
);
userData = {
assembly = "SVTCA[0]\011/* SetFreedomAndProjectionVectorToAxis */
PUSHW[ ]\011/* 4 values pushed */
2 1 61 4 
CALL[ ]\011/* CallFunction */
PUSHW[ ]\011/* 1 value pushed */
2 
SRP0[ ]\011/* SetRefPoint0 */
PUSHW[ ]\011/* 1 value pushed */
0 
MDRP[10000]\011/* MoveDirectRelPt */
PUSHW[ ]\011/* 1 value pushed */
0 
MDAP[1]\011/* MoveDirectAbsPt */
PUSHW[ ]\011/* 1 value pushed */
61 
SRP0[ ]\011/* SetRefPoint0 */
PUSHW[ ]\011/* 1 value pushed */
59 
MDRP[10000]\011/* MoveDirectRelPt */
PUSHW[ ]\011/* 1 value pushed */
59 
MDAP[1]\011/* MoveDirectAbsPt */
IUP[0]\011/* InterpolateUntPts */
IUP[1]\011/* InterpolateUntPts */";
};
width = 762;
}
);
note = G;
unicode = 0047;
},
{
glyphname = H;
layers = (
{
layerId = "C1D5D18F-17E8-4A1F-B101-925564B9D079";
paths = (
{
closed = 1;
nodes = (
"786 676 OFFCURVE",
"755 717 OFFCURVE",
"697 718 OFFCURVE",
"648 678 OFFCURVE",
"640 649 QCURVE SMOOTH",
"623 570 OFFCURVE",
"599 460 QCURVE",
"493 460 OFFCURVE",
"287 454 QCURVE",
"311 570 OFFCURVE",
"329 646 QCURVE SMOOTH",
"335 675 OFFCURVE",
"305 717 OFFCURVE",
"247 718 OFFCURVE",
"197 679 OFFCURVE",
"190 650 QCURVE SMOOTH",
"167 555 OFFCURVE",
"87 148 OFFCURVE",
"70 71 QCURVE SMOOTH",
"63 42 OFFCURVE",
"96 0 OFFCURVE",
"153 0 OFFCURVE",
"203 41 OFFCURVE",
"209 69 QCURVE SMOOTH",
"226 150 OFFCURVE",
"259 314 QCURVE",
"466 321 OFFCURVE",
"570 320 QCURVE",
"516 69 LINE SMOOTH",
"510 40 OFFCURVE",
"542 -1 OFFCURVE",
"600 -1 OFFCURVE",
"650 40 OFFCURVE",
"656 69 QCURVE SMOOTH",
"765 582 OFFCURVE",
"780 647 QCURVE",
"780 647 LINE"
);
}
);
userData = {
assembly = "SVTCA[0]\011/* SetFreedomAndProjectionVectorToAxis */
PUSHW[ ]\011/* 4 values pushed */
27 1 10 4 
CALL[ ]\011/* CallFunction */
PUSHW[ ]\011/* 1 value pushed */
10 
SRP0[ ]\011/* SetRefPoint0 */
PUSHW[ ]\011/* 1 value pushed */
8 
MDRP[10000]\011/* MoveDirectRelPt */
PUSHW[ ]\011/* 1 value pushed */
8 
MDAP[1]\011/* MoveDirectAbsPt */
PUSHW[ ]\011/* 1 value pushed */
27 
SRP0[ ]\011/* SetRefPoint0 */
PUSHW[ ]\011/* 1 value pushed */
29 
MDRP[10000]\011/* MoveDirectRelPt */
PUSHW[ ]\011/* 1 value pushed */
29 
MDAP[1]\011/* MoveDirectAbsPt */
IUP[0]\011/* InterpolateUntPts */
IUP[1]\011/* InterpolateUntPts */";
};
width = 693;
}
);
note = H;
unicode = 0048;
},
{
glyphname = I;
layers = (
{
layerId = "C1D5D18F-17E8-4A1F-B101-925564B9D079";
paths = (
{
closed = 1;
nodes = (
"244 715 OFFCURVE",
"194 675 OFFCURVE",
"188 646 QCURVE SMOOTH",
"182 620 OFFCURVE",
"206 582 OFFCURVE",
"229 577 QCURVE",
"174 310 OFFCURVE",
"136 136 QCURVE",
"111 132 OFFCURVE",
"69 91 OFFCURVE",
"63 65 QCURVE SMOOTH",
"58 36 OFFCURVE",
"92 -3 OFFCURVE",
"121 -3 QCURVE SMOOTH",
"239 0 LINE SMOOTH",
"268 1 OFFCURVE",
"316 43 OFFCURVE",
"322 72 QCURVE SMOOTH",
"326 97 OFFCURVE",
"301 135 OFFCURVE",
"277 139 QCURVE",
"315 312 OFFCURVE",
"368 575 QCURVE",
"394 580 OFFCURVE",
"435 618 OFFCURVE",
"440 643 QCURVE SMOOTH",
"446 672 OFFCURVE",
"415 714 OFFCURVE",
"386 714 QCURVE SMOOTH",
"273 715 LINE",
"273 715 LINE"
);
}
);
userData = {
assembly = "SVTCA[0]\011/* SetFreedomAndProjectionVectorToAxis */
PUSHW[ ]\011/* 1 value pushed */
0 
MDAP[1]\011/* MoveDirectAbsPt */
PUSHW[ ]\011/* 1 value pushed */
0 
RCVT[ ]\011/* ReadCVT */
IF[ ]\011/* If */
PUSHW[ ]\011/* 1 value pushed */
16 
MDAP[1]\011/* MoveDirectAbsPt */
ELSE[ ]\011/* Else */
PUSHW[ ]\011/* 2 values pushed */
16 6 
MIAP[0]\011/* MoveIndirectAbsPt */
EIF[ ]\011/* EndIf */
IUP[0]\011/* InterpolateUntPts */
IUP[1]\011/* InterpolateUntPts */";
};
width = 357;
}
);
note = I;
unicode = 0049;
},
{
glyphname = J;
layers = (
{
layerId = "C1D5D18F-17E8-4A1F-B101-925564B9D079";
paths = (
{
closed = 1;
nodes = (
"404 715 OFFCURVE",
"355 672 OFFCURVE",
"345 615 OFFCURVE",
"380 575 OFFCURVE",
"437 577 OFFCURVE",
"458 578 QCURVE",
"447 503 OFFCURVE",
"438 444 OFFCURVE",
"417 337 OFFCURVE",
"387 251 OFFCURVE",
"366 209 QCURVE SMOOTH",
"355 187 OFFCURVE",
"313 150 OFFCURVE",
"292 142 QCURVE SMOOTH",
"259 130 OFFCURVE",
"246 160 QCURVE",
"243 165 OFFCURVE",
"242 181 QCURVE SMOOTH",
"242 194 LINE SMOOTH",
"241 202 OFFCURVE",
"242 203 QCURVE",
"241 219 OFFCURVE",
"240 231 QCURVE SMOOTH",
"236 258 OFFCURVE",
"191 284 OFFCURVE",
"132 266 OFFCURVE",
"95 215 OFFCURVE",
"98 187 QCURVE SMOOTH",
"99 181 OFFCURVE",
"99 170 QCURVE SMOOTH",
"100 147 OFFCURVE",
"100 146 QCURVE SMOOTH",
"101 107 OFFCURVE",
"113 82 QCURVE SMOOTH",
"132 42 OFFCURVE",
"199 -1 OFFCURVE",
"274 -1 OFFCURVE",
"316 13 QCURVE SMOOTH",
"370 32 OFFCURVE",
"466 118 OFFCURVE",
"492 171 QCURVE SMOOTH",
"523 234 OFFCURVE",
"547 316 QCURVE SMOOTH",
"568 387 OFFCURVE",
"586 490 OFFCURVE",
"598 578 QCURVE",
"622 578 OFFCURVE",
"646 576 QCURVE SMOOTH",
"675 575 OFFCURVE",
"726 613 OFFCURVE",
"741 671 OFFCURVE",
"712 714 OFFCURVE",
"684 716 QCURVE SMOOTH",
"588 721 OFFCURVE",
"433 716 QCURVE",
"433 716 LINE"
);
}
);
userData = {
assembly = "SVTCA[0]\011/* SetFreedomAndProjectionVectorToAxis */
PUSHW[ ]\011/* 4 values pushed */
2 1 9 4 
CALL[ ]\011/* CallFunction */
PUSHW[ ]\011/* 1 value pushed */
2 
SRP0[ ]\011/* SetRefPoint0 */
PUSHW[ ]\011/* 1 value pushed */
0 
MDRP[10000]\011/* MoveDirectRelPt */
PUSHW[ ]\011/* 1 value pushed */
9 
SRP0[ ]\011/* SetRefPoint0 */
PUSHW[ ]\011/* 1 value pushed */
7 
MDRP[10000]\011/* MoveDirectRelPt */
PUSHW[ ]\011/* 1 value pushed */
7 
MDAP[1]\011/* MoveDirectAbsPt */
PUSHW[ ]\011/* 1 value pushed */
9 
SRP0[ ]\011/* SetRefPoint0 */
PUSHW[ ]\011/* 1 value pushed */
49 
MDRP[10000]\011/* MoveDirectRelPt */
IUP[0]\011/* InterpolateUntPts */
IUP[1]\011/* InterpolateUntPts */";
};
width = 649;
}
);
note = J;
unicode = 004A;
},
{
glyphname = K;
layers = (
{
layerId = "C1D5D18F-17E8-4A1F-B101-925564B9D079";
paths = (
{
closed = 1;
nodes = (
"339 686 OFFCURVE",
"308 727 OFFCURVE",
"250 728 OFFCURVE",
"201 688 OFFCURVE",
"194 659 QCURVE SMOOTH",
"128 367 OFFCURVE",
"77 59 QCURVE SMOOTH",
"73 30 OFFCURVE",
"108 -9 OFFCURVE",
"165 -6 OFFCURVE",
"213 37 OFFCURVE",
"218 65 QCURVE SMOOTH",
"234 159 OFFCURVE",
"249 240 QCURVE",
"347 309 LINE",
"511 20 LINE SMOOTH",
"524 -3 OFFCURVE",
"580 -10 OFFCURVE",
"633 26 OFFCURVE",
"642 55 QCURVE SMOOTH",
"652 84 OFFCURVE",
"639 106 QCURVE SMOOTH",
"472 402 LINE",
"594 495 OFFCURVE",
"716 607 QCURVE SMOOTH",
"740 629 OFFCURVE",
"750 686 OFFCURVE",
"716 726 OFFCURVE",
"658 724 OFFCURVE",
"634 703 QCURVE SMOOTH",
"468 552 OFFCURVE",
"282 418 QCURVE",
"304 530 OFFCURVE",
"333 657 QCURVE",
"333 657 LINE"
);
}
);
width = 685;
}
);
note = K;
unicode = 004B;
},
{
glyphname = L;
layers = (
{
layerId = "C1D5D18F-17E8-4A1F-B101-925564B9D079";
paths = (
{
closed = 1;
nodes = (
"98 -1 OFFCURVE",
"132 -2 QCURVE SMOOTH",
"165 -3 OFFCURVE",
"304 -2 QCURVE SMOOTH",
"442 -1 OFFCURVE",
"475 -1 QCURVE SMOOTH",
"504 -1 OFFCURVE",
"554 40 OFFCURVE",
"566 98 OFFCURVE",
"534 139 OFFCURVE",
"505 139 QCURVE SMOOTH",
"461 139 OFFCURVE",
"274 137 OFFCURVE",
"225 137 QCURVE",
"274 385 LINE",
"327 647 LINE SMOOTH",
"332 676 OFFCURVE",
"300 716 OFFCURVE",
"241 715 OFFCURVE",
"193 674 OFFCURVE",
"187 645 QCURVE SMOOTH",
"130 364 LINE SMOOTH",
"93 177 OFFCURVE",
"72 75 QCURVE SMOOTH",
"67 46 OFFCURVE",
"83 26 QCURVE",
"83 26 LINE"
);
}
);
userData = {
assembly = "SVTCA[0]\011/* SetFreedomAndProjectionVectorToAxis */
PUSHW[ ]\011/* 1 value pushed */
0 
RCVT[ ]\011/* ReadCVT */
IF[ ]\011/* If */
PUSHW[ ]\011/* 1 value pushed */
20 
MDAP[1]\011/* MoveDirectAbsPt */
ELSE[ ]\011/* Else */
PUSHW[ ]\011/* 2 values pushed */
20 6 
MIAP[0]\011/* MoveIndirectAbsPt */
EIF[ ]\011/* EndIf */
PUSHW[ ]\011/* 1 value pushed */
0 
RCVT[ ]\011/* ReadCVT */
IF[ ]\011/* If */
PUSHW[ ]\011/* 1 value pushed */
22 
MDAP[1]\011/* MoveDirectAbsPt */
ELSE[ ]\011/* Else */
PUSHW[ ]\011/* 2 values pushed */
22 6 
MIAP[0]\011/* MoveIndirectAbsPt */
EIF[ ]\011/* EndIf */
PUSHW[ ]\011/* 1 value pushed */
0 
RCVT[ ]\011/* ReadCVT */
IF[ ]\011/* If */
PUSHW[ ]\011/* 1 value pushed */
24 
MDAP[1]\011/* MoveDirectAbsPt */
ELSE[ ]\011/* Else */
PUSHW[ ]\011/* 2 values pushed */
24 6 
MIAP[0]\011/* MoveIndirectAbsPt */
EIF[ ]\011/* EndIf */
PUSHW[ ]\011/* 1 value pushed */
22 
SRP0[ ]\011/* SetRefPoint0 */
PUSHW[ ]\011/* 2 values pushed */
12 1 
MIRP[10100]\011/* MoveIndirectRelPt */
PUSHW[ ]\011/* 1 value pushed */
15 
MDRP[10000]\011/* MoveDirectRelPt */
IUP[0]\011/* InterpolateUntPts */
IUP[1]\011/* InterpolateUntPts */";
};
width = 596;
}
);
note = L;
unicode = 004C;
},
{
glyphname = M;
layers = (
{
layerId = "C1D5D18F-17E8-4A1F-B101-925564B9D079";
paths = (
{
closed = 1;
nodes = (
"905 672 OFFCURVE",
"874 714 OFFCURVE",
"845 715 QCURVE SMOOTH",
"805 716 OFFCURVE",
"776 680 QCURVE",
"639 560 OFFCURVE",
"499 410 QCURVE",
"336 689 LINE SMOOTH",
"324 712 OFFCURVE",
"297 716 QCURVE",
"285 721 OFFCURVE",
"270 720 QCURVE SMOOTH",
"240 718 OFFCURVE",
"193 674 OFFCURVE",
"189 645 QCURVE SMOOTH",
"177 569 OFFCURVE",
"164 498 QCURVE SMOOTH",
"149 418 OFFCURVE",
"126 310 OFFCURVE",
"83 112 OFFCURVE",
"74 70 QCURVE SMOOTH",
"68 41 OFFCURVE",
"101 0 OFFCURVE",
"159 0 OFFCURVE",
"208 41 OFFCURVE",
"214 70 QCURVE",
"215 71 OFFCURVE",
"296 450 OFFCURVE",
"296 452 QCURVE",
"408 258 LINE SMOOTH",
"414 248 OFFCURVE",
"424 241 QCURVE",
"425 239 OFFCURVE",
"428 237 QCURVE SMOOTH",
"448 221 OFFCURVE",
"507 232 OFFCURVE",
"529 256 QCURVE SMOOTH",
"623 362 OFFCURVE",
"717 455 QCURVE",
"653 136 OFFCURVE",
"638 71 QCURVE SMOOTH",
"630 42 OFFCURVE",
"662 0 OFFCURVE",
"719 -2 OFFCURVE",
"770 38 OFFCURVE",
"777 67 QCURVE SMOOTH",
"798 157 OFFCURVE",
"875 548 OFFCURVE",
"898 643 QCURVE",
"898 643 LINE"
);
}
);
width = 815;
}
);
note = M;
unicode = 004D;
},
{
glyphname = N;
layers = (
{
layerId = "C1D5D18F-17E8-4A1F-B101-925564B9D079";
paths = (
{
closed = 1;
nodes = (
"322 707 OFFCURVE",
"304 713 QCURVE SMOOTH",
"292 718 OFFCURVE",
"278 719 QCURVE SMOOTH",
"250 720 OFFCURVE",
"199 680 OFFCURVE",
"192 651 QCURVE SMOOTH",
"166 550 OFFCURVE",
"94 157 OFFCURVE",
"75 69 QCURVE SMOOTH",
"69 40 OFFCURVE",
"101 -1 OFFCURVE",
"159 -1 OFFCURVE",
"209 40 OFFCURVE",
"215 69 QCURVE SMOOTH",
"235 160 OFFCURVE",
"285 435 OFFCURVE",
"292 475 QCURVE",
"327 419 OFFCURVE",
"404 262 QCURVE SMOOTH",
"473 107 OFFCURVE",
"523 28 QCURVE SMOOTH",
"543 -3 OFFCURVE",
"583 4 QCURVE",
"612 6 OFFCURVE",
"658 45 OFFCURVE",
"665 73 QCURVE SMOOTH",
"763 516 OFFCURVE",
"791 652 QCURVE SMOOTH",
"796 681 OFFCURVE",
"764 721 OFFCURVE",
"706 720 OFFCURVE",
"657 679 OFFCURVE",
"651 650 QCURVE SMOOTH",
"622 505 OFFCURVE",
"570 273 QCURVE",
"536 342 LINE SMOOTH",
"459 498 OFFCURVE",
"416 556 QCURVE",
"402 579 OFFCURVE",
"345 670 OFFCURVE",
"332 691 QCURVE",
"332 691 LINE"
);
}
);
userData = {
assembly = "SVTCA[0]\011/* SetFreedomAndProjectionVectorToAxis */
PUSHW[ ]\011/* 1 value pushed */
38 
MDAP[1]\011/* MoveDirectAbsPt */
PUSHW[ ]\011/* 1 value pushed */
40 
MDAP[1]\011/* MoveDirectAbsPt */
IUP[0]\011/* InterpolateUntPts */
IUP[1]\011/* InterpolateUntPts */";
};
width = 704;
}
);
note = N;
unicode = 004E;
},
{
glyphname = O;
layers = (
{
layerId = "C1D5D18F-17E8-4A1F-B101-925564B9D079";
paths = (
{
closed = 1;
nodes = (
"520 586 OFFCURVE",
"565 584 OFFCURVE",
"577 583 OFFCURVE",
"600 578 OFFCURVE",
"614 569 OFFCURVE",
"626 560 QCURVE SMOOTH",
"671 524 OFFCURVE",
"672 386 OFFCURVE",
"625 301 QCURVE SMOOTH",
"581 225 OFFCURVE",
"450 132 OFFCURVE",
"385 135 QCURVE SMOOTH",
"310 137 OFFCURVE",
"246 246 OFFCURVE",
"262 331 QCURVE SMOOTH",
"280 427 OFFCURVE",
"392 566 OFFCURVE",
"466 587 QCURVE SMOOTH",
"469 588 OFFCURVE",
"481 588 QCURVE SMOOTH",
"485 588 OFFCURVE",
"501 587 OFFCURVE",
"505 587 QCURVE",
"505 587 LINE"
);
},
{
closed = 1;
nodes = (
"552 724 OFFCURVE",
"544 724 QCURVE SMOOTH",
"541 724 LINE",
"533 724 LINE",
"524 724 LINE",
"512 724 LINE SMOOTH",
"482 725 OFFCURVE",
"455 718 QCURVE SMOOTH",
"388 700 OFFCURVE",
"272 618 OFFCURVE",
"191 512 OFFCURVE",
"136 395 OFFCURVE",
"124 327 QCURVE SMOOTH",
"112 267 OFFCURVE",
"126 155 OFFCURVE",
"176 59 OFFCURVE",
"279 0 OFFCURVE",
"352 -3 QCURVE SMOOTH",
"411 -5 OFFCURVE",
"531 37 OFFCURVE",
"632 111 OFFCURVE",
"715 203 OFFCURVE",
"745 255 QCURVE SMOOTH",
"786 326 OFFCURVE",
"821 482 OFFCURVE",
"785 627 OFFCURVE",
"726 674 QCURVE SMOOTH",
"699 695 OFFCURVE",
"640 717 OFFCURVE",
"603 721 OFFCURVE",
"571 722 QCURVE SMOOTH",
"563 722 OFFCURVE",
"560 723 QCURVE",
"560 723 LINE"
);
}
);
userData = {
assembly = "SVTCA[0]\011/* SetFreedomAndProjectionVectorToAxis */
PUSHW[ ]\011/* 1 value pushed */
23 
MDAP[1]\011/* MoveDirectAbsPt */
PUSHW[ ]\011/* 1 value pushed */
25 
MDAP[1]\011/* MoveDirectAbsPt */
PUSHW[ ]\011/* 1 value pushed */
48 
MDAP[1]\011/* MoveDirectAbsPt */
PUSHW[ ]\011/* 1 value pushed */
50 
MDAP[1]\011/* MoveDirectAbsPt */
PUSHW[ ]\011/* 1 value pushed */
52 
MDAP[1]\011/* MoveDirectAbsPt */
PUSHW[ ]\011/* 1 value pushed */
54 
MDAP[1]\011/* MoveDirectAbsPt */
PUSHW[ ]\011/* 1 value pushed */
0 
RCVT[ ]\011/* ReadCVT */
IF[ ]\011/* If */
PUSHW[ ]\011/* 1 value pushed */
38 
MDAP[1]\011/* MoveDirectAbsPt */
ELSE[ ]\011/* Else */
PUSHW[ ]\011/* 2 values pushed */
38 6 
MIAP[0]\011/* MoveIndirectAbsPt */
EIF[ ]\011/* EndIf */
PUSHW[ ]\011/* 2 values pushed */
11 1 
MIRP[10100]\011/* MoveIndirectRelPt */
NPUSHW[ ]\011/* 7 values pushed */
23 11 39 11 55 11 3 
DELTAP1[ ]\011/* DeltaExceptionP1 */
IUP[0]\011/* InterpolateUntPts */
IUP[1]\011/* InterpolateUntPts */";
};
width = 777;
}
);
note = O;
unicode = 004F;
},
{
glyphname = P;
layers = (
{
layerId = "C1D5D18F-17E8-4A1F-B101-925564B9D079";
paths = (
{
closed = 1;
nodes = (
"300 513 OFFCURVE",
"315 580 QCURVE",
"397 592 OFFCURVE",
"447 589 QCURVE SMOOTH",
"521 585 OFFCURVE",
"545 546 QCURVE SMOOTH",
"556 526 OFFCURVE",
"556 484 OFFCURVE",
"547 469 OFFCURVE",
"537 460 QCURVE SMOOTH",
"517 441 OFFCURVE",
"445 414 OFFCURVE",
"408 413 QCURVE SMOOTH",
"390 412 OFFCURVE",
"352 414 OFFCURVE",
"327 416 QCURVE SMOOTH",
"281 421 LINE",
"280 421 LINE",
"280 421 LINE"
);
},
{
closed = 1;
nodes = (
"288 712 OFFCURVE",
"286 712 QCURVE SMOOTH",
"281 713 OFFCURVE",
"276 713 QCURVE SMOOTH",
"247 713 OFFCURVE",
"197 674 OFFCURVE",
"190 645 QCURVE",
"180 616 OFFCURVE",
"73 92 OFFCURVE",
"61 34 OFFCURVE",
"93 -7 OFFCURVE",
"151 -7 OFFCURVE",
"201 34 OFFCURVE",
"207 63 QCURVE SMOOTH",
"221 130 OFFCURVE",
"251 281 QCURVE",
"255 280 OFFCURVE",
"319 274 OFFCURVE",
"364 272 OFFCURVE",
"385 273 QCURVE SMOOTH",
"446 276 OFFCURVE",
"574 324 OFFCURVE",
"623 367 QCURVE SMOOTH",
"681 418 OFFCURVE",
"711 568 OFFCURVE",
"671 634 QCURVE SMOOTH",
"620 720 OFFCURVE",
"485 729 QCURVE SMOOTH",
"417 733 OFFCURVE",
"291 713 QCURVE",
"291 713 LINE"
);
}
);
userData = {
assembly = "SVTCA[0]\011/* SetFreedomAndProjectionVectorToAxis */
PUSHW[ ]\011/* 1 value pushed */
0 
RCVT[ ]\011/* ReadCVT */
IF[ ]\011/* If */
PUSHW[ ]\011/* 1 value pushed */
20 
MDAP[1]\011/* MoveDirectAbsPt */
ELSE[ ]\011/* Else */
PUSHW[ ]\011/* 2 values pushed */
20 12 
MIAP[0]\011/* MoveIndirectAbsPt */
EIF[ ]\011/* EndIf */
PUSHW[ ]\011/* 4 values pushed */
5 1 28 4 
CALL[ ]\011/* CallFunction */
PUSHW[ ]\011/* 1 value pushed */
5 
SRP0[ ]\011/* SetRefPoint0 */
PUSHW[ ]\011/* 1 value pushed */
2 
MDRP[10000]\011/* MoveDirectRelPt */
PUSHW[ ]\011/* 1 value pushed */
2 
MDAP[1]\011/* MoveDirectAbsPt */
PUSHW[ ]\011/* 1 value pushed */
20 
SRP0[ ]\011/* SetRefPoint0 */
PUSHW[ ]\011/* 2 values pushed */
14 1 
MIRP[10100]\011/* MoveIndirectRelPt */
NPUSHW[ ]\011/* 7 values pushed */
24 14 40 14 56 14 3 
DELTAP1[ ]\011/* DeltaExceptionP1 */
IUP[0]\011/* InterpolateUntPts */
IUP[1]\011/* InterpolateUntPts */";
};
width = 643;
}
);
note = P;
unicode = 0050;
},
{
glyphname = Q;
layers = (
{
layerId = "C1D5D18F-17E8-4A1F-B101-925564B9D079";
paths = (
{
closed = 1;
nodes = (
"440 582 OFFCURVE",
"452 582 QCURVE SMOOTH",
"483 585 OFFCURVE",
"535 592 QCURVE SMOOTH",
"568 596 OFFCURVE",
"581 596 QCURVE SMOOTH",
"606 595 OFFCURVE",
"637 560 QCURVE SMOOTH",
"686 505 OFFCURVE",
"674 299 OFFCURVE",
"617 229 QCURVE SMOOTH",
"606 216 OFFCURVE",
"586 201 QCURVE",
"557 225 OFFCURVE",
"525 258 QCURVE SMOOTH",
"508 278 OFFCURVE",
"451 274 OFFCURVE",
"403 230 OFFCURVE",
"400 203 QCURVE SMOOTH",
"395 174 OFFCURVE",
"413 156 QCURVE SMOOTH",
"432 135 LINE",
"388 131 OFFCURVE",
"332 161 QCURVE SMOOTH",
"292 183 OFFCURVE",
"272 223 QCURVE SMOOTH",
"251 262 OFFCURVE",
"253 357 OFFCURVE",
"288 454 OFFCURVE",
"326 501 QCURVE SMOOTH",
"364 546 OFFCURVE",
"413 577 QCURVE",
"421 581 OFFCURVE",
"429 585 QCURVE",
"429 585 LINE"
);
},
{
closed = 1;
nodes = (
"507 754 OFFCURVE",
"463 735 QCURVE",
"462 734 OFFCURVE",
"418 719 OFFCURVE",
"373 699 OFFCURVE",
"357 689 QCURVE SMOOTH",
"297 651 OFFCURVE",
"198 543 OFFCURVE",
"133 423 OFFCURVE",
"106 292 OFFCURVE",
"118 173 OFFCURVE",
"186 70 OFFCURVE",
"244 37 QCURVE SMOOTH",
"306 5 OFFCURVE",
"415 -8 OFFCURVE",
"494 14 QCURVE SMOOTH",
"523 23 OFFCURVE",
"555 37 QCURVE",
"593 15 OFFCURVE",
"647 -9 QCURVE SMOOTH",
"671 -21 OFFCURVE",
"728 2 OFFCURVE",
"762 54 OFFCURVE",
"750 106 OFFCURVE",
"727 117 QCURVE SMOOTH",
"696 132 LINE",
"709 145 OFFCURVE",
"720 158 QCURVE SMOOTH",
"780 232 OFFCURVE",
"831 426 OFFCURVE",
"802 604 OFFCURVE",
"751 662 QCURVE SMOOTH",
"720 698 OFFCURVE",
"656 732 OFFCURVE",
"614 733 QCURVE SMOOTH",
"591 734 OFFCURVE",
"545 728 QCURVE SMOOTH",
"534 726 LINE",
"534 726 LINE"
);
}
);
width = 822;
}
);
note = Q;
unicode = 0051;
},
{
glyphname = R;
layers = (
{
layerId = "C1D5D18F-17E8-4A1F-B101-925564B9D079";
paths = (
{
closed = 1;
nodes = (
"446 297 OFFCURVE",
"466 274 QCURVE SMOOTH",
"484 253 OFFCURVE",
"493 208 QCURVE",
"499 156 OFFCURVE",
"500 53 QCURVE SMOOTH",
"501 25 OFFCURVE",
"544 -5 OFFCURVE",
"603 9 OFFCURVE",
"644 59 OFFCURVE",
"643 87 QCURVE SMOOTH",
"644 198 OFFCURVE",
"624 315 OFFCURVE",
"597 357 QCURVE",
"703 413 OFFCURVE",
"730 509 QCURVE SMOOTH",
"756 607 OFFCURVE",
"685 665 QCURVE SMOOTH",
"638 704 OFFCURVE",
"546 718 QCURVE SMOOTH",
"427 737 OFFCURVE",
"280 719 QCURVE",
"275 719 LINE SMOOTH",
"246 719 OFFCURVE",
"197 678 OFFCURVE",
"190 649 QCURVE SMOOTH",
"171 556 OFFCURVE",
"95 182 OFFCURVE",
"71 69 QCURVE SMOOTH",
"65 40 OFFCURVE",
"97 -1 OFFCURVE",
"155 -1 OFFCURVE",
"205 40 OFFCURVE",
"211 69 QCURVE SMOOTH",
"231 163 OFFCURVE",
"259 299 QCURVE",
"264 299 LINE",
"289 299 LINE SMOOTH",
"310 300 OFFCURVE",
"349 301 QCURVE SMOOTH",
"350 301 OFFCURVE",
"389 302 OFFCURVE",
"400 303 QCURVE",
"400 303 LINE"
);
},
{
closed = 1;
nodes = (
"375 449 OFFCURVE",
"290 439 QCURVE SMOOTH",
"287 439 LINE",
"304 524 OFFCURVE",
"317 585 QCURVE",
"421 592 OFFCURVE",
"495 580 QCURVE SMOOTH",
"556 571 OFFCURVE",
"581 550 QCURVE SMOOTH",
"598 537 OFFCURVE",
"591 517 QCURVE",
"586 494 OFFCURVE",
"548 475 QCURVE SMOOTH",
"508 455 OFFCURVE",
"447 445 QCURVE SMOOTH",
"441 444 OFFCURVE",
"433 443 QCURVE",
"433 443 LINE"
);
}
);
userData = {
assembly = "PUSHW[ ]\011/* 4 values pushed */
32 4 37 4 
CALL[ ]\011/* CallFunction */
NPUSHW[ ]\011/* 7 values pushed */
25 37 41 37 57 37 3 
DELTAP1[ ]\011/* DeltaExceptionP1 */
PUSHW[ ]\011/* 1 value pushed */
37 
SRP0[ ]\011/* SetRefPoint0 */
PUSHW[ ]\011/* 1 value pushed */
39 
MDRP[10000]\011/* MoveDirectRelPt */
PUSHW[ ]\011/* 1 value pushed */
39 
MDAP[1]\011/* MoveDirectAbsPt */
PUSHW[ ]\011/* 1 value pushed */
32 
SRP0[ ]\011/* SetRefPoint0 */
PUSHW[ ]\011/* 1 value pushed */
61 
MDRP[11100]\011/* MoveDirectRelPt */
IUP[0]\011/* InterpolateUntPts */
IUP[1]\011/* InterpolateUntPts */";
};
width = 685;
}
);
note = R;
unicode = 0052;
},
{
glyphname = S;
layers = (
{
layerId = "C1D5D18F-17E8-4A1F-B101-925564B9D079";
paths = (
{
closed = 1;
nodes = (
"550 449 OFFCURVE",
"596 423 OFFCURVE",
"654 441 OFFCURVE",
"691 493 OFFCURVE",
"688 520 QCURVE SMOOTH",
"688 527 OFFCURVE",
"687 549 OFFCURVE",
"687 551 QCURVE SMOOTH",
"686 584 OFFCURVE",
"675 605 QCURVE",
"650 663 OFFCURVE",
"522 727 OFFCURVE",
"448 727 QCURVE SMOOTH",
"411 727 OFFCURVE",
"336 709 OFFCURVE",
"261 670 OFFCURVE",
"200 599 OFFCURVE",
"183 552 QCURVE SMOOTH",
"144 445 OFFCURVE",
"218 377 QCURVE SMOOTH",
"254 343 OFFCURVE",
"354 307 QCURVE SMOOTH",
"447 273 OFFCURVE",
"472 257 QCURVE SMOOTH",
"506 236 OFFCURVE",
"505 213 QCURVE SMOOTH",
"503 192 OFFCURVE",
"452 148 OFFCURVE",
"397 136 QCURVE SMOOTH",
"336 125 OFFCURVE",
"266 143 OFFCURVE",
"259 161 QCURVE",
"255 168 OFFCURVE",
"256 186 QCURVE SMOOTH",
"256 191 OFFCURVE",
"256 209 OFFCURVE",
"256 210 QCURVE SMOOTH",
"257 227 OFFCURVE",
"256 240 QCURVE SMOOTH",
"253 268 OFFCURVE",
"209 296 OFFCURVE",
"150 280 OFFCURVE",
"111 230 OFFCURVE",
"113 202 QCURVE SMOOTH",
"114 195 OFFCURVE",
"113 183 QCURVE SMOOTH",
"113 158 OFFCURVE",
"113 157 QCURVE SMOOTH",
"113 116 OFFCURVE",
"123 89 QCURVE SMOOTH",
"139 52 OFFCURVE",
"202 6 OFFCURVE",
"280 -10 OFFCURVE",
"321 -9 QCURVE SMOOTH",
"361 -9 OFFCURVE",
"401 0 QCURVE SMOOTH",
"440 9 OFFCURVE",
"480 27 QCURVE SMOOTH",
"519 44 OFFCURVE",
"595 100 OFFCURVE",
"645 185 OFFCURVE",
"647 235 QCURVE SMOOTH",
"652 326 OFFCURVE",
"565 380 QCURVE SMOOTH",
"532 401 OFFCURVE",
"426 439 QCURVE SMOOTH",
"349 467 OFFCURVE",
"326 488 QCURVE SMOOTH",
"315 498 OFFCURVE",
"311 517 OFFCURVE",
"317 532 QCURVE SMOOTH",
"336 588 OFFCURVE",
"417 588 QCURVE SMOOTH",
"462 587 OFFCURVE",
"532 552 OFFCURVE",
"543 529 QCURVE",
"543 526 OFFCURVE",
"544 516 QCURVE SMOOTH",
"546 478 OFFCURVE",
"547 476 QCURVE",
"547 476 LINE"
);
}
);
userData = {
assembly = "SVTCA[0]\011/* SetFreedomAndProjectionVectorToAxis */
PUSHW[ ]\011/* 1 value pushed */
0 
RCVT[ ]\011/* ReadCVT */
IF[ ]\011/* If */
PUSHW[ ]\011/* 1 value pushed */
67 
MDAP[1]\011/* MoveDirectAbsPt */
ELSE[ ]\011/* Else */
PUSHW[ ]\011/* 2 values pushed */
67 12 
MIAP[0]\011/* MoveIndirectAbsPt */
EIF[ ]\011/* EndIf */
PUSHW[ ]\011/* 1 value pushed */
0 
RCVT[ ]\011/* ReadCVT */
IF[ ]\011/* If */
PUSHW[ ]\011/* 1 value pushed */
26 
MDAP[1]\011/* MoveDirectAbsPt */
ELSE[ ]\011/* Else */
PUSHW[ ]\011/* 2 values pushed */
26 6 
MIAP[0]\011/* MoveIndirectAbsPt */
EIF[ ]\011/* EndIf */
PUSHW[ ]\011/* 1 value pushed */
67 
SRP0[ ]\011/* SetRefPoint0 */
PUSHW[ ]\011/* 2 values pushed */
7 1 
MIRP[10100]\011/* MoveIndirectRelPt */
NPUSHW[ ]\011/* 7 values pushed */
24 7 40 7 56 7 3 
DELTAP1[ ]\011/* DeltaExceptionP1 */
IUP[0]\011/* InterpolateUntPts */
IUP[1]\011/* InterpolateUntPts */";
};
width = 656;
}
);
note = S;
unicode = 0053;
},
{
glyphname = T;
layers = (
{
layerId = "C1D5D18F-17E8-4A1F-B101-925564B9D079";
paths = (
{
closed = 1;
nodes = (
"242 718 OFFCURVE",
"193 677 OFFCURVE",
"182 619 OFFCURVE",
"215 579 OFFCURVE",
"244 579 QCURVE SMOOTH",
"299 580 OFFCURVE",
"379 580 QCURVE",
"354 489 OFFCURVE",
"327 354 QCURVE SMOOTH",
"275 102 OFFCURVE",
"268 71 QCURVE SMOOTH",
"261 42 OFFCURVE",
"293 1 OFFCURVE",
"351 0 OFFCURVE",
"400 40 OFFCURVE",
"407 69 QCURVE SMOOTH",
"415 100 OFFCURVE",
"467 355 QCURVE SMOOTH",
"495 493 OFFCURVE",
"519 580 QCURVE",
"606 580 OFFCURVE",
"669 581 QCURVE SMOOTH",
"697 582 OFFCURVE",
"746 624 OFFCURVE",
"757 681 OFFCURVE",
"724 721 OFFCURVE",
"695 721 QCURVE SMOOTH",
"631 719 OFFCURVE",
"335 720 OFFCURVE",
"271 719 QCURVE",
"271 719 LINE"
);
}
);
userData = {
assembly = "SVTCA[0]\011/* SetFreedomAndProjectionVectorToAxis */
PUSHW[ ]\011/* 1 value pushed */
0 
MDAP[1]\011/* MoveDirectAbsPt */
PUSHW[ ]\011/* 1 value pushed */
3 
MDAP[1]\011/* MoveDirectAbsPt */
PUSHW[ ]\011/* 1 value pushed */
0 
SRP0[ ]\011/* SetRefPoint0 */
PUSHW[ ]\011/* 2 values pushed */
25 1 
MIRP[10100]\011/* MoveIndirectRelPt */
PUSHW[ ]\011/* 1 value pushed */
8 
MDRP[10000]\011/* MoveDirectRelPt */
PUSHW[ ]\011/* 1 value pushed */
8 
MDAP[1]\011/* MoveDirectAbsPt */
PUSHW[ ]\011/* 1 value pushed */
25 
SRP0[ ]\011/* SetRefPoint0 */
PUSHW[ ]\011/* 1 value pushed */
10 
MDRP[10000]\011/* MoveDirectRelPt */
PUSHW[ ]\011/* 1 value pushed */
10 
MDAP[1]\011/* MoveDirectAbsPt */
PUSHW[ ]\011/* 1 value pushed */
25 
SRP0[ ]\011/* SetRefPoint0 */
PUSHW[ ]\011/* 1 value pushed */
23 
MDRP[10000]\011/* MoveDirectRelPt */
PUSHW[ ]\011/* 1 value pushed */
23 
MDAP[1]\011/* MoveDirectAbsPt */
IUP[0]\011/* InterpolateUntPts */
IUP[1]\011/* InterpolateUntPts */";
};
width = 664;
}
);
note = T;
unicode = 0054;
},
{
glyphname = U;
layers = (
{
layerId = "C1D5D18F-17E8-4A1F-B101-925564B9D079";
paths = (
{
closed = 1;
nodes = (
"790 678 OFFCURVE",
"756 717 OFFCURVE",
"698 716 OFFCURVE",
"650 674 OFFCURVE",
"644 645 QCURVE SMOOTH",
"640 623 OFFCURVE",
"625 523 QCURVE SMOOTH",
"613 448 OFFCURVE",
"602 402 QCURVE SMOOTH",
"572 273 OFFCURVE",
"510 205 QCURVE SMOOTH",
"473 164 OFFCURVE",
"420 147 QCURVE SMOOTH",
"367 131 OFFCURVE",
"273 157 OFFCURVE",
"253 197 QCURVE SMOOTH",
"246 213 OFFCURVE",
"256 312 OFFCURVE",
"276 391 QCURVE SMOOTH",
"284 427 OFFCURVE",
"313 531 QCURVE SMOOTH",
"338 617 OFFCURVE",
"351 675 OFFCURVE",
"320 716 OFFCURVE",
"262 717 OFFCURVE",
"212 677 OFFCURVE",
"205 648 QCURVE SMOOTH",
"200 623 OFFCURVE",
"176 541 QCURVE SMOOTH",
"149 443 OFFCURVE",
"136 395 QCURVE SMOOTH",
"115 307 OFFCURVE",
"109 247 QCURVE SMOOTH",
"100 162 OFFCURVE",
"122 117 QCURVE SMOOTH",
"152 55 OFFCURVE",
"275 -5 OFFCURVE",
"414 3 OFFCURVE",
"558 70 OFFCURVE",
"609 127 QCURVE SMOOTH",
"700 228 OFFCURVE",
"740 398 QCURVE SMOOTH",
"753 450 OFFCURVE",
"765 531 QCURVE SMOOTH",
"780 629 OFFCURVE",
"784 649 QCURVE",
"784 649 LINE"
);
}
);
width = 708;
}
);
note = U;
unicode = 0055;
},
{
glyphname = V;
layers = (
{
layerId = "C1D5D18F-17E8-4A1F-B101-925564B9D079";
paths = (
{
closed = 1;
nodes = (
"294 9 OFFCURVE",
"344 -13 OFFCURVE",
"373 -1 QCURVE SMOOTH",
"379 1 OFFCURVE",
"385 5 QCURVE",
"410 17 OFFCURVE",
"424 42 QCURVE SMOOTH",
"459 99 OFFCURVE",
"526 218 QCURVE SMOOTH",
"646 428 LINE SMOOTH",
"700 520 OFFCURVE",
"768 622 QCURVE SMOOTH",
"785 649 OFFCURVE",
"775 703 OFFCURVE",
"727 726 OFFCURVE",
"668 704 OFFCURVE",
"652 678 QCURVE SMOOTH",
"552 524 OFFCURVE",
"398 254 QCURVE",
"386 327 OFFCURVE",
"368 462 QCURVE SMOOTH",
"336 673 LINE SMOOTH",
"331 700 OFFCURVE",
"283 724 OFFCURVE",
"225 705 OFFCURVE",
"190 652 OFFCURVE",
"193 625 QCURVE SMOOTH",
"202 569 OFFCURVE",
"224 426 QCURVE SMOOTH",
"256 211 LINE SMOOTH",
"269 126 OFFCURVE",
"289 35 QCURVE",
"289 35 LINE"
);
}
);
width = 690;
}
);
note = V;
unicode = 0056;
},
{
glyphname = W;
layers = (
{
layerId = "C1D5D18F-17E8-4A1F-B101-925564B9D079";
paths = (
{
closed = 1;
nodes = (
"719 688 OFFCURVE",
"685 717 OFFCURVE",
"661 717 QCURVE SMOOTH",
"640 717 OFFCURVE",
"599 694 OFFCURVE",
"587 674 QCURVE SMOOTH",
"468 483 OFFCURVE",
"348 281 QCURVE",
"339 552 OFFCURVE",
"333 664 QCURVE SMOOTH",
"333 692 OFFCURVE",
"291 724 OFFCURVE",
"233 712 OFFCURVE",
"191 664 OFFCURVE",
"191 636 QCURVE SMOOTH",
"196 505 OFFCURVE",
"203 331 QCURVE SMOOTH",
"209 144 OFFCURVE",
"210 53 QCURVE SMOOTH",
"209 27 OFFCURVE",
"247 -5 OFFCURVE",
"274 -1 QCURVE",
"298 -4 OFFCURVE",
"345 21 OFFCURVE",
"359 44 QCURVE SMOOTH",
"594 440 LINE",
"601 393 OFFCURVE",
"604 363 QCURVE SMOOTH",
"622 188 OFFCURVE",
"647 44 QCURVE SMOOTH",
"651 19 OFFCURVE",
"693 -5 OFFCURVE",
"721 2 QCURVE",
"742 4 OFFCURVE",
"782 32 OFFCURVE",
"793 53 QCURVE SMOOTH",
"850 166 LINE",
"911 285 LINE SMOOTH",
"927 316 OFFCURVE",
"1034 548 OFFCURVE",
"1080 631 QCURVE SMOOTH",
"1094 659 OFFCURVE",
"1076 710 OFFCURVE",
"1025 726 OFFCURVE",
"968 698 OFFCURVE",
"954 671 QCURVE SMOOTH",
"908 587 OFFCURVE",
"774 299 OFFCURVE",
"761 274 QCURVE",
"747 405 LINE",
"719 606 LINE",
"719 606 LINE"
);
}
);
width = 1004;
}
);
note = W;
unicode = 0057;
},
{
glyphname = X;
layers = (
{
layerId = "C1D5D18F-17E8-4A1F-B101-925564B9D079";
paths = (
{
closed = 1;
nodes = (
"445 121 OFFCURVE",
"496 29 QCURVE",
"506 6 OFFCURVE",
"556 -5 OFFCURVE",
"608 25 OFFCURVE",
"630 76 OFFCURVE",
"620 99 QCURVE SMOOTH",
"567 212 OFFCURVE",
"487 352 QCURVE",
"717 605 LINE SMOOTH",
"739 628 OFFCURVE",
"743 683 OFFCURVE",
"705 718 OFFCURVE",
"646 710 OFFCURVE",
"624 687 QCURVE SMOOTH",
"424 464 LINE",
"358 608 OFFCURVE",
"319 688 QCURVE SMOOTH",
"309 711 OFFCURVE",
"257 721 OFFCURVE",
"206 690 OFFCURVE",
"185 638 OFFCURVE",
"196 616 QCURVE",
"235 520 OFFCURVE",
"320 356 QCURVE",
"90 110 LINE SMOOTH",
"68 86 OFFCURVE",
"64 31 OFFCURVE",
"103 -3 OFFCURVE",
"162 5 OFFCURVE",
"183 28 QCURVE SMOOTH",
"383 243 LINE",
"383 243 LINE"
);
}
);
width = 663;
}
);
note = X;
unicode = 0058;
},
{
glyphname = Y;
layers = (
{
layerId = "C1D5D18F-17E8-4A1F-B101-925564B9D079";
paths = (
{
closed = 1;
nodes = (
"519 345 OFFCURVE",
"597 434 QCURVE SMOOTH",
"742 600 OFFCURVE",
"750 610 QCURVE SMOOTH",
"771 635 OFFCURVE",
"769 691 OFFCURVE",
"727 722 OFFCURVE",
"668 708 OFFCURVE",
"648 684 QCURVE SMOOTH",
"497 512 LINE",
"425 428 LINE",
"350 622 OFFCURVE",
"329 681 QCURVE SMOOTH",
"321 707 OFFCURVE",
"269 723 OFFCURVE",
"212 695 OFFCURVE",
"185 640 OFFCURVE",
"193 615 QCURVE SMOOTH",
"215 547 OFFCURVE",
"263 426 QCURVE SMOOTH",
"328 260 LINE",
"316 203 LINE SMOOTH",
"310 178 OFFCURVE",
"293 91 OFFCURVE",
"288 66 QCURVE SMOOTH",
"282 37 OFFCURVE",
"316 -3 OFFCURVE",
"374 -1 OFFCURVE",
"423 41 OFFCURVE",
"428 70 QCURVE SMOOTH",
"435 106 OFFCURVE",
"468 262 OFFCURVE",
"472 285 QCURVE",
"472 285 LINE"
);
}
);
width = 680;
}
);
note = Y;
unicode = 0059;
},
{
glyphname = Z;
layers = (
{
layerId = "C1D5D18F-17E8-4A1F-B101-925564B9D079";
paths = (
{
closed = 1;
nodes = (
"258 719 OFFCURVE",
"209 682 OFFCURVE",
"193 624 OFFCURVE",
"220 582 OFFCURVE",
"248 580 QCURVE SMOOTH",
"347 573 OFFCURVE",
"565 577 QCURVE",
"522 521 OFFCURVE",
"218 243 QCURVE",
"134 155 OFFCURVE",
"99 123 QCURVE",
"73 103 OFFCURVE",
"66 75 QCURVE SMOOTH",
"59 47 OFFCURVE",
"87 5 OFFCURVE",
"114 4 QCURVE SMOOTH",
"201 0 OFFCURVE",
"337 0 QCURVE SMOOTH",
"527 4 OFFCURVE",
"564 4 QCURVE SMOOTH",
"591 4 OFFCURVE",
"639 44 OFFCURVE",
"651 99 OFFCURVE",
"620 139 OFFCURVE",
"593 139 QCURVE SMOOTH",
"554 139 OFFCURVE",
"362 135 QCURVE",
"315 137 OFFCURVE",
"282 137 QCURVE",
"307 162 LINE",
"597 426 OFFCURVE",
"696 527 OFFCURVE",
"742 596 QCURVE SMOOTH",
"744 599 OFFCURVE",
"746 602 QCURVE",
"765 621 OFFCURVE",
"771 647 QCURVE SMOOTH",
"777 675 OFFCURVE",
"746 715 OFFCURVE",
"719 715 QCURVE SMOOTH",
"674 715 OFFCURVE",
"491 711 OFFCURVE",
"350 713 OFFCURVE",
"285 717 QCURVE",
"285 717 LINE"
);
}
);
userData = {
assembly = "SVTCA[0]\011/* SetFreedomAndProjectionVectorToAxis */
PUSHW[ ]\011/* 1 value pushed */
0 
RCVT[ ]\011/* ReadCVT */
IF[ ]\011/* If */
PUSHW[ ]\011/* 1 value pushed */
24 
MDAP[1]\011/* MoveDirectAbsPt */
ELSE[ ]\011/* Else */
PUSHW[ ]\011/* 2 values pushed */
24 6 
MIAP[0]\011/* MoveIndirectAbsPt */
EIF[ ]\011/* EndIf */
PUSHW[ ]\011/* 1 value pushed */
0 
RCVT[ ]\011/* ReadCVT */
IF[ ]\011/* If */
PUSHW[ ]\011/* 1 value pushed */
26 
MDAP[1]\011/* MoveDirectAbsPt */
ELSE[ ]\011/* Else */
PUSHW[ ]\011/* 2 values pushed */
26 6 
MIAP[0]\011/* MoveIndirectAbsPt */
EIF[ ]\011/* EndIf */
PUSHW[ ]\011/* 1 value pushed */
0 
RCVT[ ]\011/* ReadCVT */
IF[ ]\011/* If */
PUSHW[ ]\011/* 1 value pushed */
28 
MDAP[1]\011/* MoveDirectAbsPt */
ELSE[ ]\011/* Else */
PUSHW[ ]\011/* 2 values pushed */
28 6 
MIAP[0]\011/* MoveIndirectAbsPt */
EIF[ ]\011/* EndIf */
PUSHW[ ]\011/* 4 values pushed */
4 1 37 4 
CALL[ ]\011/* CallFunction */
PUSHW[ ]\011/* 1 value pushed */
4 
SRP0[ ]\011/* SetRefPoint0 */
PUSHW[ ]\011/* 1 value pushed */
0 
MDRP[10000]\011/* MoveDirectRelPt */
PUSHW[ ]\011/* 1 value pushed */
0 
MDAP[1]\011/* MoveDirectAbsPt */
PUSHW[ ]\011/* 1 value pushed */
24 
SRP0[ ]\011/* SetRefPoint0 */
PUSHW[ ]\011/* 2 values pushed */
17 3 
MIRP[10100]\011/* MoveIndirectRelPt */
PUSHW[ ]\011/* 1 value pushed */
15 
MDRP[10000]\011/* MoveDirectRelPt */
PUSHW[ ]\011/* 1 value pushed */
15 
MDAP[1]\011/* MoveDirectAbsPt */
PUSHW[ ]\011/* 1 value pushed */
17 
SRP0[ ]\011/* SetRefPoint0 */
PUSHW[ ]\011/* 1 value pushed */
19 
MDRP[10000]\011/* MoveDirectRelPt */
PUSHW[ ]\011/* 1 value pushed */
19 
MDAP[1]\011/* MoveDirectAbsPt */
PUSHW[ ]\011/* 1 value pushed */
37 
SRP0[ ]\011/* SetRefPoint0 */
PUSHW[ ]\011/* 1 value pushed */
39 
MDRP[10000]\011/* MoveDirectRelPt */
PUSHW[ ]\011/* 1 value pushed */
39 
MDAP[1]\011/* MoveDirectAbsPt */
IUP[0]\011/* InterpolateUntPts */
IUP[1]\011/* InterpolateUntPts */";
};
width = 684;
}
);
note = Z;
unicode = 005A;
},
{
glyphname = bracketleft;
layers = (
{
layerId = "C1D5D18F-17E8-4A1F-B101-925564B9D079";
paths = (
{
closed = 1;
nodes = (
"439 590 OFFCURVE",
"485 636 OFFCURVE",
"490 693 OFFCURVE",
"451 729 OFFCURVE",
"422 725 QCURVE SMOOTH",
"419 725 OFFCURVE",
"377 722 OFFCURVE",
"337 717 OFFCURVE",
"322 713 QCURVE SMOOTH",
"246 692 OFFCURVE",
"194 615 QCURVE SMOOTH",
"187 604 OFFCURVE",
"184 593 QCURVE SMOOTH",
"182 584 LINE",
"179 577 OFFCURVE",
"177 566 QCURVE SMOOTH",
"172 548 OFFCURVE",
"165 514 QCURVE SMOOTH",
"153 460 OFFCURVE",
"130 344 QCURVE SMOOTH",
"121 299 OFFCURVE",
"97 181 OFFCURVE",
"82 108 OFFCURVE",
"80 98 QCURVE SMOOTH",
"61 8 LINE",
"60 2 LINE SMOOTH",
"60 0 OFFCURVE",
"58 -4 OFFCURVE",
"52 -17 OFFCURVE",
"49 -25 QCURVE SMOOTH",
"32 -72 OFFCURVE",
"43 -106 QCURVE SMOOTH",
"61 -164 OFFCURVE",
"149 -183 QCURVE SMOOTH",
"171 -187 OFFCURVE",
"201 -191 QCURVE",
"206 -191 OFFCURVE",
"228 -193 OFFCURVE",
"232 -194 QCURVE SMOOTH",
"260 -198 OFFCURVE",
"314 -163 OFFCURVE",
"334 -106 OFFCURVE",
"309 -60 OFFCURVE",
"282 -56 QCURVE SMOOTH",
"278 -55 OFFCURVE",
"267 -54 OFFCURVE",
"250 -53 OFFCURVE",
"245 -52 QCURVE SMOOTH",
"222 -49 OFFCURVE",
"207 -46 QCURVE SMOOTH",
"193 -43 OFFCURVE",
"185 -40 QCURVE",
"197 -10 OFFCURVE",
"201 6 QCURVE SMOOTH",
"220 98 LINE SMOOTH",
"222 108 OFFCURVE",
"237 182 OFFCURVE",
"260 300 OFFCURVE",
"270 346 QCURVE SMOOTH",
"293 461 OFFCURVE",
"305 514 QCURVE SMOOTH",
"315 563 LINE",
"316 567 LINE",
"324 576 OFFCURVE",
"333 579 QCURVE SMOOTH",
"341 581 OFFCURVE",
"356 582 OFFCURVE",
"390 584 OFFCURVE",
"410 587 QCURVE",
"410 587 LINE"
);
}
);
width = 385;
}
);
note = bracketleft;
unicode = 005B;
},
{
glyphname = backslash;
layers = (
{
layerId = "C1D5D18F-17E8-4A1F-B101-925564B9D079";
paths = (
{
closed = 1;
nodes = (
"325 701 OFFCURVE",
"275 723 OFFCURVE",
"217 700 OFFCURVE",
"184 646 OFFCURVE",
"190 620 QCURVE SMOOTH",
"239 350 OFFCURVE",
"280 45 QCURVE SMOOTH",
"284 18 OFFCURVE",
"331 -7 OFFCURVE",
"389 12 OFFCURVE",
"425 64 OFFCURVE",
"422 91 QCURVE SMOOTH",
"381 400 OFFCURVE",
"330 674 QCURVE",
"330 674 LINE"
);
}
);
width = 456;
}
);
note = backslash;
unicode = 005C;
},
{
glyphname = bracketright;
layers = (
{
layerId = "C1D5D18F-17E8-4A1F-B101-925564B9D079";
paths = (
{
closed = 1;
nodes = (
"70 -52 OFFCURVE",
"27 -98 OFFCURVE",
"22 -156 OFFCURVE",
"61 -190 OFFCURVE",
"91 -186 QCURVE SMOOTH",
"98 -185 OFFCURVE",
"100 -186 OFFCURVE",
"109 -186 QCURVE SMOOTH",
"130 -186 LINE SMOOTH",
"184 -185 OFFCURVE",
"223 -157 QCURVE SMOOTH",
"243 -142 OFFCURVE",
"258 -117 QCURVE",
"264 -104 OFFCURVE",
"272 -87 QCURVE SMOOTH",
"283 -61 OFFCURVE",
"295 -18 QCURVE SMOOTH",
"314 50 OFFCURVE",
"338 162 QCURVE SMOOTH",
"354 238 OFFCURVE",
"375 350 QCURVE SMOOTH",
"396 461 LINE SMOOTH",
"399 474 OFFCURVE",
"409 524 OFFCURVE",
"411 536 QCURVE SMOOTH",
"412 540 OFFCURVE",
"414 545 OFFCURVE",
"417 551 OFFCURVE",
"419 559 QCURVE",
"427 577 LINE",
"449 639 OFFCURVE",
"401 717 OFFCURVE",
"338 718 QCURVE SMOOTH",
"325 718 OFFCURVE",
"306 717 OFFCURVE",
"303 717 OFFCURVE",
"297 718 QCURVE SMOOTH",
"269 723 OFFCURVE",
"215 689 OFFCURVE",
"193 632 OFFCURVE",
"217 585 OFFCURVE",
"244 580 QCURVE SMOOTH",
"258 578 OFFCURVE",
"285 578 QCURVE",
"275 551 OFFCURVE",
"271 536 QCURVE SMOOTH",
"269 523 OFFCURVE",
"259 473 OFFCURVE",
"256 461 QCURVE SMOOTH",
"256 460 OFFCURVE",
"214 238 OFFCURVE",
"198 162 QCURVE SMOOTH",
"175 54 OFFCURVE",
"158 -8 QCURVE SMOOTH",
"151 -30 OFFCURVE",
"146 -46 QCURVE",
"117 -46 OFFCURVE",
"100 -48 QCURVE",
"100 -48 LINE"
);
}
);
width = 348;
}
);
note = bracketright;
unicode = 005D;
},
{
glyphname = asciicircum;
layers = (
{
layerId = "C1D5D18F-17E8-4A1F-B101-925564B9D079";
paths = (
{
closed = 1;
nodes = (
"120 340 OFFCURVE",
"129 289 OFFCURVE",
"174 268 OFFCURVE",
"230 288 OFFCURVE",
"246 313 QCURVE SMOOTH",
"315 422 OFFCURVE",
"389 522 QCURVE",
"446 309 LINE SMOOTH",
"453 284 OFFCURVE",
"501 266 OFFCURVE",
"555 289 OFFCURVE",
"584 341 OFFCURVE",
"578 365 QCURVE SMOOTH",
"521 582 OFFCURVE",
"486 693 QCURVE SMOOTH",
"478 717 OFFCURVE",
"429 733 OFFCURVE",
"403 720 QCURVE SMOOTH",
"378 709 OFFCURVE",
"364 685 QCURVE",
"359 680 OFFCURVE",
"355 675 QCURVE SMOOTH",
"240 528 OFFCURVE",
"135 365 QCURVE",
"135 365 LINE"
);
}
);
width = 527;
}
);
note = asciicircum;
unicode = 005E;
},
{
glyphname = underscore;
layers = (
{
layerId = "C1D5D18F-17E8-4A1F-B101-925564B9D079";
paths = (
{
closed = 1;
nodes = (
"-4 -36 OFFCURVE",
"-54 -77 OFFCURVE",
"-66 -135 OFFCURVE",
"-34 -176 OFFCURVE",
"-5 -176 QCURVE SMOOTH",
"482 -176 LINE SMOOTH",
"511 -176 OFFCURVE",
"561 -135 OFFCURVE",
"573 -77 OFFCURVE",
"541 -36 OFFCURVE",
"512 -36 QCURVE SMOOTH",
"24 -36 LINE",
"24 -36 LINE"
);
}
);
userData = {
assembly = "SVTCA[0]\011/* SetFreedomAndProjectionVectorToAxis */
PUSHW[ ]\011/* 4 values pushed */
1 1 6 4 
CALL[ ]\011/* CallFunction */
IUP[0]\011/* InterpolateUntPts */
IUP[1]\011/* InterpolateUntPts */";
};
width = 587;
}
);
note = underscore;
unicode = 005F;
},
{
glyphname = grave;
layers = (
{
layerId = "C1D5D18F-17E8-4A1F-B101-925564B9D079";
paths = (
{
closed = 1;
nodes = (
"318 774 OFFCURVE",
"289 776 QCURVE SMOOTH",
"262 777 OFFCURVE",
"210 739 OFFCURVE",
"194 682 OFFCURVE",
"209 660 QCURVE SMOOTH",
"269 574 LINE SMOOTH",
"283 552 OFFCURVE",
"311 550 QCURVE SMOOTH",
"339 549 OFFCURVE",
"391 587 OFFCURVE",
"406 644 OFFCURVE",
"392 666 QCURVE SMOOTH",
"332 752 LINE",
"332 752 LINE"
);
}
);
width = 294;
}
);
note = grave;
unicode = 0060;
},
{
glyphname = a;
lastChange = "2019-10-25 21:30:59 +0000";
layers = (
{
layerId = "C1D5D18F-17E8-4A1F-B101-925564B9D079";
paths = (
{
closed = 1;
nodes = (
"435 222 OFFCURVE",
"427 216 QCURVE SMOOTH",
"399 192 LINE",
"379 174 LINE SMOOTH",
"372 168 OFFCURVE",
"363 163 QCURVE SMOOTH",
"310 129 OFFCURVE",
"269 145 QCURVE SMOOTH",
"237 157 OFFCURVE",
"232 228 OFFCURVE",
"267 286 QCURVE SMOOTH",
"304 346 OFFCURVE",
"399 400 OFFCURVE",
"437 388 QCURVE",
"445 382 LINE",
"456 371 LINE",
"465 364 LINE",
"458 306 OFFCURVE",
"444 226 QCURVE",
"444 226 LINE"
);
},
{
closed = 1;
nodes = (
"616 469 OFFCURVE",
"579 505 OFFCURVE",
"549 501 QCURVE",
"544 501 LINE",
"525 516 OFFCURVE",
"503 522 QCURVE SMOOTH",
"449 536 OFFCURVE",
"348 519 OFFCURVE",
"252 461 OFFCURVE",
"179 387 OFFCURVE",
"124 303 OFFCURVE",
"93 206 OFFCURVE",
"90 112 OFFCURVE",
"116 72 QCURVE SMOOTH",
"143 33 OFFCURVE",
"195 13 QCURVE SMOOTH",
"296 -26 OFFCURVE",
"415 46 QCURVE",
"419 25 OFFCURVE",
"451 0 OFFCURVE",
"474 1 QCURVE SMOOTH",
"502 2 OFFCURVE",
"551 45 OFFCURVE",
"556 74 QCURVE SMOOTH",
"559 90 OFFCURVE",
"568 143 QCURVE SMOOTH",
"581 221 LINE SMOOTH",
"586 246 OFFCURVE",
"601 336 OFFCURVE",
"610 406 OFFCURVE",
"613 440 QCURVE",
"613 440 LINE"
);
}
);
width = 562;
}
);
note = a;
unicode = 0061;
},
{
glyphname = b;
layers = (
{
layerId = "C1D5D18F-17E8-4A1F-B101-925564B9D079";
paths = (
{
closed = 1;
nodes = (
"251 265 OFFCURVE",
"265 333 QCURVE",
"266 334 LINE SMOOTH",
"276 350 OFFCURVE",
"297 365 QCURVE",
"334 387 OFFCURVE",
"341 390 QCURVE SMOOTH",
"391 408 OFFCURVE",
"422 381 QCURVE SMOOTH",
"457 350 OFFCURVE",
"459 286 QCURVE",
"464 233 OFFCURVE",
"433 188 QCURVE SMOOTH",
"405 147 OFFCURVE",
"350 141 QCURVE SMOOTH",
"306 137 OFFCURVE",
"283 151 QCURVE",
"276 154 OFFCURVE",
"267 169 QCURVE SMOOTH",
"255 191 LINE SMOOTH",
"247 206 OFFCURVE",
"240 217 QCURVE",
"240 217 LINE"
);
},
{
closed = 1;
nodes = (
"190 27 LINE",
"248 -7 OFFCURVE",
"335 3 QCURVE SMOOTH",
"403 10 OFFCURVE",
"511 76 OFFCURVE",
"547 128 QCURVE SMOOTH",
"609 218 OFFCURVE",
"602 321 QCURVE SMOOTH",
"597 432 OFFCURVE",
"530 492 QCURVE SMOOTH",
"492 527 OFFCURVE",
"439 535 QCURVE SMOOTH",
"386 543 OFFCURVE",
"317 520 QCURVE SMOOTH",
"302 514 LINE",
"306 536 OFFCURVE",
"326 634 OFFCURVE",
"330 650 QCURVE SMOOTH",
"335 679 OFFCURVE",
"302 719 OFFCURVE",
"244 718 OFFCURVE",
"195 677 OFFCURVE",
"189 648 QCURVE SMOOTH",
"110 250 OFFCURVE",
"66 73 QCURVE SMOOTH",
"59 45 OFFCURVE",
"90 2 OFFCURVE",
"119 1 QCURVE SMOOTH",
"151 0 OFFCURVE",
"180 35 QCURVE",
"180 35 LINE"
);
}
);
width = 613;
}
);
note = b;
unicode = 0062;
},
{
glyphname = c;
layers = (
{
layerId = "C1D5D18F-17E8-4A1F-B101-925564B9D079";
paths = (
{
closed = 1;
nodes = (
"578 187 OFFCURVE",
"573 241 OFFCURVE",
"526 266 OFFCURVE",
"467 249 OFFCURVE",
"449 224 QCURVE SMOOTH",
"448 222 OFFCURVE",
"417 176 QCURVE SMOOTH",
"407 160 OFFCURVE",
"400 155 QCURVE SMOOTH",
"382 140 OFFCURVE",
"332 133 OFFCURVE",
"300 146 QCURVE SMOOTH",
"269 159 OFFCURVE",
"240 209 OFFCURVE",
"244 237 QCURVE SMOOTH",
"247 267 OFFCURVE",
"289 335 OFFCURVE",
"318 360 QCURVE SMOOTH",
"374 409 OFFCURVE",
"424 387 QCURVE",
"429 384 OFFCURVE",
"439 374 QCURVE SMOOTH",
"468 343 OFFCURVE",
"470 342 QCURVE",
"489 324 OFFCURVE",
"548 331 OFFCURVE",
"593 376 OFFCURVE",
"598 431 OFFCURVE",
"579 449 QCURVE SMOOTH",
"564 464 LINE SMOOTH",
"555 474 OFFCURVE",
"554 476 QCURVE",
"529 501 OFFCURVE",
"504 512 QCURVE SMOOTH",
"459 534 OFFCURVE",
"359 524 OFFCURVE",
"274 485 OFFCURVE",
"236 453 QCURVE SMOOTH",
"183 409 OFFCURVE",
"110 286 OFFCURVE",
"102 227 QCURVE SMOOTH",
"93 156 OFFCURVE",
"159 47 OFFCURVE",
"218 21 QCURVE SMOOTH",
"256 5 OFFCURVE",
"342 -3 OFFCURVE",
"391 13 QCURVE SMOOTH",
"441 27 OFFCURVE",
"483 62 QCURVE SMOOTH",
"509 84 OFFCURVE",
"533 122 QCURVE SMOOTH",
"537 127 OFFCURVE",
"547 143 OFFCURVE",
"556 156 OFFCURVE",
"560 162 QCURVE",
"560 162 LINE"
);
}
);
width = 589;
}
);
note = c;
unicode = 0063;
},
{
glyphname = d;
layers = (
{
layerId = "C1D5D18F-17E8-4A1F-B101-925564B9D079";
paths = (
{
closed = 1;
nodes = (
"451 245 OFFCURVE",
"449 242 QCURVE SMOOTH",
"436 225 OFFCURVE",
"418 196 OFFCURVE",
"409 183 OFFCURVE",
"402 176 QCURVE SMOOTH",
"373 148 OFFCURVE",
"338 134 OFFCURVE",
"308 140 QCURVE SMOOTH",
"259 149 OFFCURVE",
"229 235 OFFCURVE",
"255 294 QCURVE SMOOTH",
"280 350 OFFCURVE",
"324 377 QCURVE SMOOTH",
"371 405 OFFCURVE",
"428 385 QCURVE",
"433 384 OFFCURVE",
"443 376 QCURVE SMOOTH",
"473 351 OFFCURVE",
"474 351 QCURVE",
"462 294 OFFCURVE",
"453 247 QCURVE",
"453 247 LINE"
);
},
{
closed = 1;
nodes = (
"679 678 OFFCURVE",
"646 718 OFFCURVE",
"588 717 OFFCURVE",
"539 676 OFFCURVE",
"533 647 QCURVE SMOOTH",
"531 632 OFFCURVE",
"507 515 QCURVE",
"502 517 OFFCURVE",
"499 519 QCURVE",
"380 558 OFFCURVE",
"269 491 QCURVE SMOOTH",
"173 433 OFFCURVE",
"125 324 QCURVE",
"111 286 OFFCURVE",
"93 206 OFFCURVE",
"105 126 OFFCURVE",
"137 60 OFFCURVE",
"206 11 OFFCURVE",
"255 2 QCURVE SMOOTH",
"323 -10 OFFCURVE",
"382 12 QCURVE SMOOTH",
"405 21 OFFCURVE",
"427 36 QCURVE",
"441 4 OFFCURVE",
"471 4 QCURVE SMOOTH",
"500 4 OFFCURVE",
"550 45 OFFCURVE",
"556 74 QCURVE SMOOTH",
"574 158 OFFCURVE",
"673 649 QCURVE",
"673 649 LINE"
);
}
);
width = 591;
}
);
note = d;
unicode = 0064;
},
{
glyphname = e;
layers = (
{
layerId = "C1D5D18F-17E8-4A1F-B101-925564B9D079";
paths = (
{
closed = 1;
nodes = (
"480 312 OFFCURVE",
"370 311 OFFCURVE",
"294 313 OFFCURVE",
"259 314 QCURVE",
"278 375 OFFCURVE",
"339 401 QCURVE SMOOTH",
"402 428 OFFCURVE",
"447 405 QCURVE SMOOTH",
"484 384 OFFCURVE",
"499 335 OFFCURVE",
"496 319 QCURVE",
"496 319 LINE"
);
},
{
closed = 1;
nodes = (
"559 115 OFFCURVE",
"552 148 OFFCURVE",
"522 173 OFFCURVE",
"470 170 OFFCURVE",
"423 131 QCURVE SMOOTH",
"394 108 OFFCURVE",
"333 112 QCURVE",
"230 127 OFFCURVE",
"240 219 QCURVE",
"382 209 OFFCURVE",
"486 212 OFFCURVE",
"512 215 QCURVE SMOOTH",
"568 219 OFFCURVE",
"597 253 QCURVE SMOOTH",
"621 280 OFFCURVE",
"619 323 QCURVE SMOOTH",
"615 529 OFFCURVE",
"424 530 QCURVE SMOOTH",
"215 526 OFFCURVE",
"126 314 QCURVE SMOOTH",
"108 274 OFFCURVE",
"106 227 QCURVE",
"108 146 OFFCURVE",
"152 61 OFFCURVE",
"225 11 OFFCURVE",
"327 -4 OFFCURVE",
"399 5 QCURVE",
"447 15 OFFCURVE",
"494 41 OFFCURVE",
"518 60 QCURVE",
"542 83 OFFCURVE",
"549 98 QCURVE",
"549 98 LINE"
);
}
);
userData = {
assembly = "SVTCA[0]\011/* SetFreedomAndProjectionVectorToAxis */
PUSHW[ ]\011/* 1 value pushed */
25 
MDAP[1]\011/* MoveDirectAbsPt */
PUSHW[ ]\011/* 4 values pushed */
7 3 34 4 
CALL[ ]\011/* CallFunction */
PUSHW[ ]\011/* 1 value pushed */
34 
SRP0[ ]\011/* SetRefPoint0 */
PUSHW[ ]\011/* 1 value pushed */
31 
MDRP[10000]\011/* MoveDirectRelPt */
PUSHW[ ]\011/* 1 value pushed */
31 
MDAP[1]\011/* MoveDirectAbsPt */
IUP[0]\011/* InterpolateUntPts */
IUP[1]\011/* InterpolateUntPts */";
};
width = 612;
}
);
note = e;
unicode = 0065;
},
{
glyphname = f;
layers = (
{
layerId = "C1D5D18F-17E8-4A1F-B101-925564B9D079";
paths = (
{
closed = 1;
nodes = (
"480 561 OFFCURVE",
"532 597 OFFCURVE",
"551 654 OFFCURVE",
"524 699 OFFCURVE",
"496 702 QCURVE SMOOTH",
"491 703 OFFCURVE",
"459 709 QCURVE SMOOTH",
"425 715 OFFCURVE",
"402 715 QCURVE SMOOTH",
"307 714 OFFCURVE",
"249 631 QCURVE SMOOTH",
"230 606 OFFCURVE",
"221 565 QCURVE SMOOTH",
"217 552 OFFCURVE",
"211 520 QCURVE",
"189 514 OFFCURVE",
"153 478 OFFCURVE",
"147 455 QCURVE SMOOTH",
"140 428 OFFCURVE",
"167 388 OFFCURVE",
"192 384 QCURVE",
"163 227 OFFCURVE",
"121 75 QCURVE SMOOTH",
"113 46 OFFCURVE",
"143 2 OFFCURVE",
"199 -2 OFFCURVE",
"251 37 OFFCURVE",
"259 65 QCURVE SMOOTH",
"301 221 OFFCURVE",
"330 379 QCURVE",
"367 378 LINE SMOOTH",
"396 377 OFFCURVE",
"446 417 OFFCURVE",
"460 475 OFFCURVE",
"429 517 OFFCURVE",
"401 518 QCURVE SMOOTH",
"351 519 LINE",
"351 521 LINE SMOOTH",
"356 551 OFFCURVE",
"358 559 QCURVE SMOOTH",
"360 566 OFFCURVE",
"362 572 QCURVE",
"365 575 OFFCURVE",
"374 575 QCURVE SMOOTH",
"384 575 OFFCURVE",
"405 571 QCURVE SMOOTH",
"442 565 OFFCURVE",
"452 564 QCURVE",
"452 564 LINE"
);
}
);
userData = {
assembly = "SVTCA[0]\011/* SetFreedomAndProjectionVectorToAxis */
PUSHW[ ]\011/* 1 value pushed */
39 
MDAP[1]\011/* MoveDirectAbsPt */
PUSHW[ ]\011/* 1 value pushed */
41 
MDAP[1]\011/* MoveDirectAbsPt */
PUSHW[ ]\011/* 4 values pushed */
12 1 17 4 
CALL[ ]\011/* CallFunction */
IUP[0]\011/* InterpolateUntPts */
IUP[1]\011/* InterpolateUntPts */";
};
width = 462;
}
);
note = f;
unicode = 0066;
},
{
glyphname = g;
layers = (
{
layerId = "C1D5D18F-17E8-4A1F-B101-925564B9D079";
paths = (
{
closed = 1;
nodes = (
"468 305 OFFCURVE",
"449 218 QCURVE",
"446 215 OFFCURVE",
"431 200 OFFCURVE",
"426 196 OFFCURVE",
"413 183 OFFCURVE",
"409 179 OFFCURVE",
"397 169 OFFCURVE",
"392 165 OFFCURVE",
"383 158 OFFCURVE",
"380 156 QCURVE SMOOTH",
"372 151 LINE SMOOTH",
"368 149 OFFCURVE",
"364 147 QCURVE SMOOTH",
"299 116 OFFCURVE",
"270 143 QCURVE SMOOTH",
"239 172 OFFCURVE",
"246 240 QCURVE SMOOTH",
"253 312 OFFCURVE",
"296 358 QCURVE SMOOTH",
"337 404 OFFCURVE",
"403 397 QCURVE SMOOTH",
"413 396 OFFCURVE",
"448 380 QCURVE SMOOTH",
"479 365 LINE",
"479 365 LINE"
);
},
{
closed = 1;
nodes = (
"633 494 OFFCURVE",
"599 530 OFFCURVE",
"572 529 QCURVE SMOOTH",
"542 526 OFFCURVE",
"520 504 QCURVE",
"471 526 OFFCURVE",
"443 529 QCURVE SMOOTH",
"373 536 OFFCURVE",
"251 485 OFFCURVE",
"204 435 QCURVE SMOOTH",
"123 347 OFFCURVE",
"111 225 QCURVE SMOOTH",
"106 170 OFFCURVE",
"132 70 OFFCURVE",
"168 38 QCURVE SMOOTH",
"209 1 OFFCURVE",
"328 -4 OFFCURVE",
"401 31 QCURVE",
"407 33 LINE",
"380 -17 OFFCURVE",
"336 -54 QCURVE SMOOTH",
"293 -90 OFFCURVE",
"247 -76 QCURVE",
"243 -74 OFFCURVE",
"218 -54 OFFCURVE",
"204 -27 QCURVE SMOOTH",
"195 -8 OFFCURVE",
"134 4 OFFCURVE",
"79 -46 OFFCURVE",
"74 -112 OFFCURVE",
"96 -132 QCURVE",
"136 -180 OFFCURVE",
"187 -200 QCURVE",
"235 -211 OFFCURVE",
"313 -204 OFFCURVE",
"379 -173 OFFCURVE",
"411 -146 QCURVE SMOOTH",
"492 -77 OFFCURVE",
"535 17 QCURVE SMOOTH",
"544 39 OFFCURVE",
"557 97 OFFCURVE",
"612 357 OFFCURVE",
"629 466 QCURVE",
"629 466 LINE"
);
}
);
width = 587;
}
);
note = g;
unicode = 0067;
},
{
glyphname = h;
lastChange = "2019-10-23 22:27:59 +0000";
layers = (
{
layerId = "C1D5D18F-17E8-4A1F-B101-925564B9D079";
paths = (
{
closed = 1;
nodes = (
"316 380 OFFCURVE",
"331 386 QCURVE SMOOTH",
"373 403 OFFCURVE",
"406 396 QCURVE SMOOTH",
"430 391 OFFCURVE",
"432 368 QCURVE SMOOTH",
"433 360 OFFCURVE",
"428 325 QCURVE SMOOTH",
"421 290 OFFCURVE",
"407 230 QCURVE",
"407 228 OFFCURVE",
"367 67 QCURVE SMOOTH",
"360 40 OFFCURVE",
"388 -1 OFFCURVE",
"442 -3 OFFCURVE",
"491 34 OFFCURVE",
"497 61 QCURVE SMOOTH",
"531 195 OFFCURVE",
"539 228 QCURVE SMOOTH",
"553 291 OFFCURVE",
"560 330 QCURVE SMOOTH",
"569 384 OFFCURVE",
"567 410 QCURVE SMOOTH",
"561 459 OFFCURVE",
"502 517 OFFCURVE",
"459 526 QCURVE SMOOTH",
"387 541 OFFCURVE",
"302 506 QCURVE SMOOTH",
"298 504 LINE",
"307 580 OFFCURVE",
"327 664 QCURVE SMOOTH",
"334 693 OFFCURVE",
"301 734 OFFCURVE",
"243 734 OFFCURVE",
"194 693 OFFCURVE",
"187 664 QCURVE SMOOTH",
"91 158 OFFCURVE",
"71 65 QCURVE SMOOTH",
"65 36 OFFCURVE",
"97 -5 OFFCURVE",
"155 -5 OFFCURVE",
"205 36 OFFCURVE",
"211 65 QCURVE SMOOTH",
"231 158 OFFCURVE",
"268 351 QCURVE",
"268 351 LINE"
);
}
);
width = 542;
}
);
note = h;
unicode = 0068;
},
{
glyphname = i;
layers = (
{
layerId = "C1D5D18F-17E8-4A1F-B101-925564B9D079";
paths = (
{
closed = 1;
nodes = (
"300 488 OFFCURVE",
"270 531 OFFCURVE",
"213 533 OFFCURVE",
"162 494 OFFCURVE",
"154 465 QCURVE SMOOTH",
"109 280 OFFCURVE",
"67 68 QCURVE SMOOTH",
"62 39 OFFCURVE",
"94 -1 OFFCURVE",
"153 0 OFFCURVE",
"201 41 OFFCURVE",
"207 70 QCURVE SMOOTH",
"247 272 OFFCURVE",
"293 459 QCURVE",
"293 459 LINE"
);
},
{
closed = 1;
nodes = (
"303 720 OFFCURVE",
"245 720 OFFCURVE",
"195 679 OFFCURVE",
"182 621 OFFCURVE",
"215 580 OFFCURVE",
"273 580 OFFCURVE",
"322 621 OFFCURVE",
"335 679 OFFCURVE",
"318 699 QCURVE",
"318 699 LINE"
);
}
);
width = 247;
}
);
note = i;
unicode = 0069;
},
{
glyphname = j;
layers = (
{
layerId = "C1D5D18F-17E8-4A1F-B101-925564B9D079";
paths = (
{
closed = 1;
nodes = (
"411 493 OFFCURVE",
"377 533 OFFCURVE",
"319 531 OFFCURVE",
"270 488 OFFCURVE",
"265 460 QCURVE",
"265 453 OFFCURVE",
"244 334 OFFCURVE",
"218 192 OFFCURVE",
"208 137 QCURVE SMOOTH",
"186 34 OFFCURVE",
"167 -26 QCURVE SMOOTH",
"160 -49 OFFCURVE",
"154 -65 QCURVE",
"118 -64 OFFCURVE",
"100 -66 QCURVE SMOOTH",
"71 -69 OFFCURVE",
"25 -114 OFFCURVE",
"20 -172 OFFCURVE",
"57 -208 OFFCURVE",
"87 -204 QCURVE",
"87 -203 OFFCURVE",
"116 -204 OFFCURVE",
"128 -204 QCURVE SMOOTH",
"178 -204 OFFCURVE",
"216 -182 QCURVE SMOOTH",
"251 -161 OFFCURVE",
"276 -112 QCURVE SMOOTH",
"290 -84 OFFCURVE",
"303 -40 QCURVE SMOOTH",
"321 17 OFFCURVE",
"347 138 QCURVE SMOOTH",
"359 193 OFFCURVE",
"384 337 OFFCURVE",
"405 458 OFFCURVE",
"406 464 QCURVE",
"406 464 LINE"
);
},
{
closed = 1;
nodes = (
"408 721 OFFCURVE",
"350 721 OFFCURVE",
"300 680 OFFCURVE",
"288 622 OFFCURVE",
"320 581 OFFCURVE",
"378 581 OFFCURVE",
"428 622 OFFCURVE",
"440 680 OFFCURVE",
"423 700 QCURVE",
"423 700 LINE"
);
}
);
width = 368;
}
);
note = j;
unicode = 006A;
},
{
glyphname = k;
layers = (
{
layerId = "C1D5D18F-17E8-4A1F-B101-925564B9D079";
paths = (
{
closed = 1;
nodes = (
"326 105 OFFCURVE",
"391 20 QCURVE SMOOTH",
"406 -1 OFFCURVE",
"464 -2 OFFCURVE",
"514 38 OFFCURVE",
"527 96 OFFCURVE",
"511 116 QCURVE SMOOTH",
"447 200 OFFCURVE",
"410 289 QCURVE",
"555 411 LINE SMOOTH",
"580 433 OFFCURVE",
"590 490 OFFCURVE",
"555 530 OFFCURVE",
"498 528 OFFCURVE",
"473 507 QCURVE SMOOTH",
"368 415 OFFCURVE",
"274 339 QCURVE",
"300 476 OFFCURVE",
"331 651 QCURVE SMOOTH",
"335 680 OFFCURVE",
"301 719 OFFCURVE",
"243 716 OFFCURVE",
"195 674 OFFCURVE",
"190 645 QCURVE SMOOTH",
"118 249 OFFCURVE",
"77 69 QCURVE SMOOTH",
"71 40 OFFCURVE",
"102 -1 OFFCURVE",
"160 -2 OFFCURVE",
"210 38 OFFCURVE",
"217 67 QCURVE SMOOTH",
"234 148 LINE",
"236 150 OFFCURVE",
"239 151 QCURVE",
"287 189 LINE",
"287 189 LINE"
);
}
);
width = 532;
}
);
note = k;
unicode = 006B;
},
{
glyphname = l;
layers = (
{
layerId = "C1D5D18F-17E8-4A1F-B101-925564B9D079";
paths = (
{
closed = 1;
nodes = (
"333 675 OFFCURVE",
"301 716 OFFCURVE",
"243 716 OFFCURVE",
"193 675 OFFCURVE",
"187 646 QCURVE SMOOTH",
"125 350 LINE SMOOTH",
"66 69 OFFCURVE",
"64 69 QCURVE",
"58 40 OFFCURVE",
"89 -1 OFFCURVE",
"147 -2 OFFCURVE",
"197 38 OFFCURVE",
"204 67 QCURVE SMOOTH",
"223 152 OFFCURVE",
"262 338 OFFCURVE",
"310 566 OFFCURVE",
"327 646 QCURVE",
"327 646 LINE"
);
}
);
width = 241;
}
);
note = l;
unicode = 006C;
},
{
glyphname = m;
layers = (
{
layerId = "C1D5D18F-17E8-4A1F-B101-925564B9D079";
paths = (
{
closed = 1;
nodes = (
"286 383 OFFCURVE",
"337 402 OFFCURVE",
"364 399 QCURVE SMOOTH",
"391 397 OFFCURVE",
"422 372 OFFCURVE",
"424 353 QCURVE SMOOTH",
"425 337 OFFCURVE",
"424 316 QCURVE",
"423 312 OFFCURVE",
"423 308 QCURVE SMOOTH",
"421 284 OFFCURVE",
"407 209 OFFCURVE",
"401 184 QCURVE SMOOTH",
"386 126 LINE SMOOTH",
"375 84 OFFCURVE",
"371 67 QCURVE SMOOTH",
"364 40 OFFCURVE",
"394 0 OFFCURVE",
"447 -2 OFFCURVE",
"495 36 OFFCURVE",
"502 63 QCURVE SMOOTH",
"504 73 OFFCURVE",
"523 144 OFFCURVE",
"537 198 OFFCURVE",
"553 286 OFFCURVE",
"557 317 QCURVE",
"559 324 OFFCURVE",
"562 333 QCURVE SMOOTH",
"563 336 OFFCURVE",
"564 339 QCURVE SMOOTH",
"567 347 LINE SMOOTH",
"568 350 OFFCURVE",
"569 353 QCURVE SMOOTH",
"572 361 OFFCURVE",
"574 364 QCURVE SMOOTH",
"588 381 OFFCURVE",
"640 400 OFFCURVE",
"667 397 QCURVE SMOOTH",
"693 395 OFFCURVE",
"724 370 OFFCURVE",
"726 351 QCURVE SMOOTH",
"729 327 OFFCURVE",
"716 239 OFFCURVE",
"704 187 OFFCURVE",
"677 80 OFFCURVE",
"674 68 QCURVE SMOOTH",
"667 41 OFFCURVE",
"697 1 OFFCURVE",
"750 -1 OFFCURVE",
"798 37 OFFCURVE",
"805 64 QCURVE SMOOTH",
"805 65 OFFCURVE",
"835 181 OFFCURVE",
"849 244 OFFCURVE",
"864 357 OFFCURVE",
"861 391 QCURVE SMOOTH",
"854 453 OFFCURVE",
"767 523 OFFCURVE",
"706 529 QCURVE SMOOTH",
"662 533 OFFCURVE",
"564 507 OFFCURVE",
"522 476 QCURVE",
"479 524 OFFCURVE",
"403 531 QCURVE SMOOTH",
"340 537 OFFCURVE",
"276 510 QCURVE",
"259 529 OFFCURVE",
"231 529 QCURVE SMOOTH",
"202 528 OFFCURVE",
"153 487 OFFCURVE",
"147 458 QCURVE SMOOTH",
"88 165 OFFCURVE",
"67 70 QCURVE SMOOTH",
"61 41 OFFCURVE",
"94 0 OFFCURVE",
"152 0 OFFCURVE",
"201 41 OFFCURVE",
"207 70 QCURVE SMOOTH",
"228 169 OFFCURVE",
"265 351 QCURVE SMOOTH",
"266 355 LINE",
"270 363 OFFCURVE",
"271 366 QCURVE",
"271 366 LINE"
);
}
);
width = 848;
}
);
note = m;
unicode = 006D;
},
{
glyphname = n;
layers = (
{
layerId = "C1D5D18F-17E8-4A1F-B101-925564B9D079";
paths = (
{
closed = 1;
nodes = (
"295 381 OFFCURVE",
"347 400 OFFCURVE",
"374 397 QCURVE SMOOTH",
"400 395 OFFCURVE",
"431 370 OFFCURVE",
"433 351 QCURVE SMOOTH",
"436 327 OFFCURVE",
"425 248 OFFCURVE",
"411 188 OFFCURVE",
"383 78 OFFCURVE",
"381 67 QCURVE SMOOTH",
"374 40 OFFCURVE",
"404 0 OFFCURVE",
"457 -2 OFFCURVE",
"505 36 OFFCURVE",
"512 63 QCURVE SMOOTH",
"512 64 OFFCURVE",
"542 182 OFFCURVE",
"558 253 OFFCURVE",
"571 357 OFFCURVE",
"568 391 QCURVE SMOOTH",
"561 453 OFFCURVE",
"474 523 OFFCURVE",
"413 529 QCURVE SMOOTH",
"339 536 OFFCURVE",
"273 499 QCURVE",
"266 518 OFFCURVE",
"214 518 QCURVE",
"183 515 OFFCURVE",
"153 486 OFFCURVE",
"147 456 QCURVE",
"137 372 OFFCURVE",
"84 112 OFFCURVE",
"75 70 QCURVE SMOOTH",
"69 41 OFFCURVE",
"102 0 OFFCURVE",
"160 0 OFFCURVE",
"209 41 OFFCURVE",
"215 70 QCURVE SMOOTH",
"225 117 OFFCURVE",
"262 299 OFFCURVE",
"269 330 QCURVE",
"269 333 LINE",
"270 336 OFFCURVE",
"272 339 QCURVE",
"273 347 LINE",
"275 350 OFFCURVE",
"276 353 QCURVE SMOOTH",
"279 361 OFFCURVE",
"281 364 QCURVE",
"281 364 LINE"
);
}
);
width = 555;
}
);
note = n;
unicode = 006E;
},
{
glyphname = o;
layers = (
{
layerId = "C1D5D18F-17E8-4A1F-B101-925564B9D079";
paths = (
{
closed = 1;
nodes = (
"362 392 OFFCURVE",
"401 387 OFFCURVE",
"422 382 OFFCURVE",
"433 376 QCURVE SMOOTH",
"449 369 OFFCURVE",
"458 305 OFFCURVE",
"427 208 OFFCURVE",
"375 145 OFFCURVE",
"355 138 QCURVE SMOOTH",
"331 130 OFFCURVE",
"291 138 QCURVE SMOOTH",
"257 145 OFFCURVE",
"225 197 OFFCURVE",
"230 239 QCURVE SMOOTH",
"234 283 OFFCURVE",
"280 365 OFFCURVE",
"313 388 QCURVE",
"324 392 LINE",
"325 392 OFFCURVE",
"343 397 QCURVE",
"343 397 LINE"
);
},
{
closed = 1;
nodes = (
"376 542 OFFCURVE",
"345 531 QCURVE SMOOTH",
"341 529 OFFCURVE",
"333 527 QCURVE SMOOTH",
"311 521 OFFCURVE",
"310 521 QCURVE",
"273 510 OFFCURVE",
"245 492 QCURVE SMOOTH",
"177 443 OFFCURVE",
"95 297 OFFCURVE",
"88 224 QCURVE SMOOTH",
"81 145 OFFCURVE",
"117 84 QCURVE SMOOTH",
"153 23 OFFCURVE",
"237 6 QCURVE SMOOTH",
"312 -10 OFFCURVE",
"374 10 QCURVE SMOOTH",
"424 26 OFFCURVE",
"510 106 OFFCURVE",
"563 194 OFFCURVE",
"578 242 QCURVE",
"591 273 OFFCURVE",
"597 350 OFFCURVE",
"591 420 OFFCURVE",
"553 482 OFFCURVE",
"520 500 QCURVE SMOOTH",
"491 514 OFFCURVE",
"400 529 QCURVE",
"400 529 LINE"
);
}
);
width = 567;
}
);
note = o;
unicode = 006F;
},
{
glyphname = p;
layers = (
{
layerId = "C1D5D18F-17E8-4A1F-B101-925564B9D079";
paths = (
{
closed = 1;
nodes = (
"260 319 LINE",
"308 374 OFFCURVE",
"380 400 OFFCURVE",
"411 384 QCURVE SMOOTH",
"442 368 OFFCURVE",
"453 319 QCURVE",
"460 264 OFFCURVE",
"414 172 OFFCURVE",
"371 152 QCURVE SMOOTH",
"330 134 OFFCURVE",
"316 139 QCURVE",
"292 139 OFFCURVE",
"249 172 OFFCURVE",
"237 209 QCURVE",
"237 209 LINE"
);
},
{
closed = 1;
nodes = (
"273 528 OFFCURVE",
"235 528 QCURVE SMOOTH",
"206 528 OFFCURVE",
"156 487 OFFCURVE",
"150 458 QCURVE SMOOTH",
"62 43 OFFCURVE",
"22 -130 QCURVE SMOOTH",
"16 -159 OFFCURVE",
"47 -200 OFFCURVE",
"105 -201 OFFCURVE",
"154 -161 OFFCURVE",
"161 -132 QCURVE SMOOTH",
"181 -46 OFFCURVE",
"198 31 QCURVE",
"221 13 OFFCURVE",
"248 5 QCURVE SMOOTH",
"311 -15 OFFCURVE",
"406 28 QCURVE SMOOTH",
"463 53 OFFCURVE",
"545 139 OFFCURVE",
"587 236 OFFCURVE",
"599 327 OFFCURVE",
"592 369 QCURVE SMOOTH",
"574 471 OFFCURVE",
"496 511 QCURVE SMOOTH",
"407 555 OFFCURVE",
"287 495 QCURVE",
"287 495 LINE"
);
}
);
width = 587;
}
);
note = p;
unicode = 0070;
},
{
glyphname = q;
layers = (
{
layerId = "C1D5D18F-17E8-4A1F-B101-925564B9D079";
paths = (
{
closed = 1;
nodes = (
"639 490 OFFCURVE",
"606 530 OFFCURVE",
"577 530 QCURVE SMOOTH",
"557 529 OFFCURVE",
"518 507 OFFCURVE",
"506 489 QCURVE",
"439 534 OFFCURVE",
"296 531 OFFCURVE",
"234 481 QCURVE SMOOTH",
"182 441 OFFCURVE",
"119 318 OFFCURVE",
"109 257 QCURVE SMOOTH",
"98 194 OFFCURVE",
"119 76 OFFCURVE",
"156 39 QCURVE SMOOTH",
"201 -3 OFFCURVE",
"329 2 OFFCURVE",
"404 44 QCURVE",
"387 -30 OFFCURVE",
"364 -130 QCURVE SMOOTH",
"358 -159 OFFCURVE",
"388 -201 OFFCURVE",
"446 -202 OFFCURVE",
"496 -163 OFFCURVE",
"503 -134 QCURVE SMOOTH",
"581 201 OFFCURVE",
"633 461 QCURVE",
"633 461 LINE"
);
},
{
closed = 1;
nodes = (
"438 379 OFFCURVE",
"456 360 OFFCURVE",
"461 352 QCURVE SMOOTH",
"466 342 OFFCURVE",
"469 333 QCURVE",
"447 232 LINE",
"408 164 OFFCURVE",
"329 130 OFFCURVE",
"279 147 QCURVE",
"236 184 OFFCURVE",
"246 297 OFFCURVE",
"289 365 OFFCURVE",
"305 375 QCURVE SMOOTH",
"359 411 OFFCURVE",
"422 387 QCURVE",
"422 387 LINE"
);
}
);
width = 585;
}
);
note = q;
unicode = 0071;
},
{
glyphname = r;
layers = (
{
layerId = "C1D5D18F-17E8-4A1F-B101-925564B9D079";
paths = (
{
closed = 1;
nodes = (
"284 506 OFFCURVE",
"254 529 OFFCURVE",
"233 529 QCURVE SMOOTH",
"204 529 OFFCURVE",
"154 488 OFFCURVE",
"146 449 QCURVE SMOOTH",
"127 359 OFFCURVE",
"104 248 QCURVE",
"100 237 OFFCURVE",
"99 225 QCURVE",
"87 168 OFFCURVE",
"67 69 QCURVE SMOOTH",
"61 41 OFFCURVE",
"78 21 QCURVE SMOOTH",
"95 0 OFFCURVE",
"152 0 OFFCURVE",
"201 42 OFFCURVE",
"208 71 QCURVE SMOOTH",
"231 186 OFFCURVE",
"243 249 QCURVE SMOOTH",
"253 308 OFFCURVE",
"264 340 QCURVE",
"335 371 OFFCURVE",
"434 403 QCURVE SMOOTH",
"462 412 OFFCURVE",
"495 461 OFFCURVE",
"489 513 OFFCURVE",
"444 536 OFFCURVE",
"417 527 QCURVE SMOOTH",
"331 499 OFFCURVE",
"286 477 QCURVE",
"286 477 LINE"
);
}
);
width = 448;
}
);
note = r;
unicode = 0072;
},
{
glyphname = s;
layers = (
{
layerId = "C1D5D18F-17E8-4A1F-B101-925564B9D079";
paths = (
{
closed = 1;
nodes = (
"457 337 OFFCURVE",
"513 341 OFFCURVE",
"557 380 OFFCURVE",
"565 433 OFFCURVE",
"547 450 QCURVE",
"544 454 OFFCURVE",
"533 465 QCURVE SMOOTH",
"514 485 LINE SMOOTH",
"506 494 OFFCURVE",
"499 500 QCURVE",
"466 521 OFFCURVE",
"408 529 QCURVE SMOOTH",
"376 534 OFFCURVE",
"334 526 QCURVE SMOOTH",
"292 519 OFFCURVE",
"253 501 QCURVE SMOOTH",
"202 477 OFFCURVE",
"176 435 QCURVE SMOOTH",
"143 385 OFFCURVE",
"159 331 QCURVE SMOOTH",
"172 285 OFFCURVE",
"237 253 QCURVE SMOOTH",
"252 245 OFFCURVE",
"320 218 OFFCURVE",
"326 215 QCURVE SMOOTH",
"369 196 OFFCURVE",
"390 171 OFFCURVE",
"385 157 QCURVE SMOOTH",
"378 135 OFFCURVE",
"323 127 QCURVE SMOOTH",
"292 122 OFFCURVE",
"239 132 OFFCURVE",
"228 140 QCURVE",
"228 143 OFFCURVE",
"226 147 QCURVE",
"222 160 LINE SMOOTH",
"218 171 OFFCURVE",
"214 180 QCURVE SMOOTH",
"203 202 OFFCURVE",
"151 213 OFFCURVE",
"99 184 OFFCURVE",
"77 133 OFFCURVE",
"87 111 QCURVE SMOOTH",
"88 108 OFFCURVE",
"90 102 QCURVE SMOOTH",
"95 86 LINE SMOOTH",
"106 57 OFFCURVE",
"123 41 QCURVE SMOOTH",
"154 14 OFFCURVE",
"262 -5 OFFCURVE",
"316 2 QCURVE SMOOTH",
"344 6 OFFCURVE",
"401 24 OFFCURVE",
"457 55 OFFCURVE",
"503 108 OFFCURVE",
"516 142 QCURVE SMOOTH",
"527 175 OFFCURVE",
"520 234 OFFCURVE",
"498 272 OFFCURVE",
"456 306 OFFCURVE",
"422 323 OFFCURVE",
"401 333 QCURVE SMOOTH",
"393 336 OFFCURVE",
"332 360 OFFCURVE",
"318 367 QCURVE SMOOTH",
"307 372 OFFCURVE",
"294 382 OFFCURVE",
"293 383 QCURVE SMOOTH",
"292 384 LINE",
"291 388 LINE",
"298 392 LINE SMOOTH",
"313 400 OFFCURVE",
"352 406 OFFCURVE",
"364 405 QCURVE SMOOTH",
"392 400 OFFCURVE",
"401 394 QCURVE",
"404 390 OFFCURVE",
"412 383 OFFCURVE",
"428 366 OFFCURVE",
"439 355 QCURVE",
"439 355 LINE"
);
}
);
width = 537;
}
);
note = s;
unicode = 0073;
},
{
glyphname = t;
layers = (
{
layerId = "C1D5D18F-17E8-4A1F-B101-925564B9D079";
paths = (
{
closed = 1;
nodes = (
"194 544 OFFCURVE",
"157 507 OFFCURVE",
"147 461 OFFCURVE",
"167 424 OFFCURVE",
"213 417 QCURVE",
"205 384 OFFCURVE",
"199 354 QCURVE SMOOTH",
"178 263 OFFCURVE",
"168 206 QCURVE SMOOTH",
"161 169 OFFCURVE",
"159 150 QCURVE SMOOTH",
"158 136 OFFCURVE",
"158 126 QCURVE SMOOTH",
"158 104 OFFCURVE",
"166 90 QCURVE SMOOTH",
"182 60 OFFCURVE",
"221 36 QCURVE SMOOTH",
"246 21 LINE SMOOTH",
"257 15 OFFCURVE",
"263 11 QCURVE SMOOTH",
"283 -5 OFFCURVE",
"342 7 OFFCURVE",
"384 55 OFFCURVE",
"384 111 OFFCURVE",
"363 127 QCURVE SMOOTH",
"353 136 OFFCURVE",
"336 145 QCURVE",
"334 147 OFFCURVE",
"329 149 QCURVE",
"321 154 LINE",
"314 158 LINE SMOOTH",
"308 162 OFFCURVE",
"302 167 OFFCURVE",
"301 169 QCURVE",
"302 169 LINE",
"301 169 LINE",
"317 260 OFFCURVE",
"338 353 QCURVE SMOOTH",
"344 381 OFFCURVE",
"351 412 QCURVE",
"394 414 OFFCURVE",
"442 454 OFFCURVE",
"448 481 QCURVE SMOOTH",
"454 509 OFFCURVE",
"425 549 OFFCURVE",
"384 551 QCURVE",
"387 564 OFFCURVE",
"396 599 OFFCURVE",
"397 603 QCURVE SMOOTH",
"403 632 OFFCURVE",
"373 674 OFFCURVE",
"315 675 OFFCURVE",
"265 636 OFFCURVE",
"258 607 QCURVE",
"256 602 OFFCURVE",
"248 565 OFFCURVE",
"244 550 QCURVE",
"244 550 LINE"
);
}
);
userData = {
assembly = "SVTCA[0]\011/* SetFreedomAndProjectionVectorToAxis */
PUSHW[ ]\011/* 4 values pushed */
11 1 17 4 
CALL[ ]\011/* CallFunction */
PUSHW[ ]\011/* 1 value pushed */
11 
SRP0[ ]\011/* SetRefPoint0 */
PUSHW[ ]\011/* 1 value pushed */
0 
MDRP[10000]\011/* MoveDirectRelPt */
PUSHW[ ]\011/* 1 value pushed */
0 
MDAP[1]\011/* MoveDirectAbsPt */
PUSHW[ ]\011/* 1 value pushed */
17 
SRP0[ ]\011/* SetRefPoint0 */
PUSHW[ ]\011/* 1 value pushed */
52 
MDRP[10000]\011/* MoveDirectRelPt */
PUSHW[ ]\011/* 1 value pushed */
52 
MDAP[1]\011/* MoveDirectAbsPt */
IUP[0]\011/* InterpolateUntPts */
IUP[1]\011/* InterpolateUntPts */";
};
width = 423;
}
);
note = t;
unicode = 0074;
},
{
glyphname = u;
layers = (
{
layerId = "C1D5D18F-17E8-4A1F-B101-925564B9D079";
paths = (
{
closed = 1;
nodes = (
"308 482 OFFCURVE",
"283 525 OFFCURVE",
"231 532 OFFCURVE",
"180 498 OFFCURVE",
"171 471 QCURVE SMOOTH",
"168 462 OFFCURVE",
"141 385 OFFCURVE",
"128 342 OFFCURVE",
"103 251 OFFCURVE",
"102 231 QCURVE SMOOTH",
"97 194 OFFCURVE",
"101 130 OFFCURVE",
"123 65 OFFCURVE",
"177 17 OFFCURVE",
"219 5 QCURVE SMOOTH",
"299 -17 OFFCURVE",
"386 38 QCURVE",
"399 9 OFFCURVE",
"435 8 QCURVE SMOOTH",
"464 8 OFFCURVE",
"489 28 QCURVE SMOOTH",
"515 49 OFFCURVE",
"521 77 QCURVE SMOOTH",
"573 314 OFFCURVE",
"602 461 QCURVE SMOOTH",
"608 490 OFFCURVE",
"575 530 OFFCURVE",
"517 529 OFFCURVE",
"468 488 OFFCURVE",
"462 459 QCURVE SMOOTH",
"440 344 OFFCURVE",
"410 211 QCURVE",
"403 207 OFFCURVE",
"396 201 QCURVE SMOOTH",
"345 154 OFFCURVE",
"300 127 OFFCURVE",
"280 133 QCURVE SMOOTH",
"249 141 OFFCURVE",
"229 191 OFFCURVE",
"236 240 QCURVE",
"236 256 OFFCURVE",
"257 330 OFFCURVE",
"269 367 OFFCURVE",
"281 403 QCURVE SMOOTH",
"299 455 LINE",
"299 455 LINE"
);
}
);
width = 557;
}
);
note = u;
unicode = 0075;
},
{
glyphname = v;
layers = (
{
layerId = "C1D5D18F-17E8-4A1F-B101-925564B9D079";
paths = (
{
closed = 1;
nodes = (
"616 452 OFFCURVE",
"614 504 OFFCURVE",
"574 533 OFFCURVE",
"518 521 OFFCURVE",
"499 498 QCURVE SMOOTH",
"420 392 OFFCURVE",
"333 257 QCURVE",
"313 381 OFFCURVE",
"283 495 QCURVE SMOOTH",
"275 520 OFFCURVE",
"226 535 OFFCURVE",
"172 508 OFFCURVE",
"146 455 OFFCURVE",
"154 431 QCURVE",
"198 268 OFFCURVE",
"218 57 QCURVE SMOOTH",
"218 55 OFFCURVE",
"218 52 QCURVE SMOOTH",
"218 18 OFFCURVE",
"246 4 QCURVE SMOOTH",
"270 -6 OFFCURVE",
"324 15 OFFCURVE",
"340 40 QCURVE SMOOTH",
"364 79 LINE SMOOTH",
"384 112 OFFCURVE",
"395 131 OFFCURVE",
"413 159 QCURVE SMOOTH",
"439 199 LINE",
"462 234 LINE",
"565 382 LINE",
"595 427 LINE",
"595 427 LINE"
);
}
);
width = 570;
}
);
note = v;
unicode = 0076;
},
{
glyphname = w;
layers = (
{
layerId = "C1D5D18F-17E8-4A1F-B101-925564B9D079";
paths = (
{
closed = 1;
nodes = (
"175 21 OFFCURVE",
"217 -7 OFFCURVE",
"245 -1 QCURVE",
"268 0 OFFCURVE",
"309 27 OFFCURVE",
"321 49 QCURVE SMOOTH",
"420 237 LINE",
"444 47 LINE SMOOTH",
"447 26 OFFCURVE",
"476 0 OFFCURVE",
"495 -2 QCURVE SMOOTH",
"521 -6 OFFCURVE",
"572 23 OFFCURVE",
"586 48 QCURVE SMOOTH",
"610 97 OFFCURVE",
"769 436 QCURVE SMOOTH",
"783 465 OFFCURVE",
"765 516 OFFCURVE",
"713 532 OFFCURVE",
"656 502 OFFCURVE",
"643 473 QCURVE SMOOTH",
"560 296 LINE",
"538 470 LINE SMOOTH",
"535 489 OFFCURVE",
"510 514 OFFCURVE",
"490 516 QCURVE",
"466 522 OFFCURVE",
"416 497 OFFCURVE",
"402 471 QCURVE SMOOTH",
"349 375 OFFCURVE",
"298 285 QCURVE",
"290 355 OFFCURVE",
"289 472 QCURVE SMOOTH",
"288 501 OFFCURVE",
"245 532 OFFCURVE",
"185 517 OFFCURVE",
"145 466 OFFCURVE",
"145 437 QCURVE SMOOTH",
"151 270 OFFCURVE",
"172 47 QCURVE",
"172 47 LINE"
);
}
);
userData = {
assembly = "PUSHW[ ]\011/* 4 values pushed */
7 4 2 4 
CALL[ ]\011/* CallFunction */
NPUSHW[ ]\011/* 7 values pushed */
22 7 38 7 54 7 3 
DELTAP1[ ]\011/* DeltaExceptionP1 */
IUP[0]\011/* InterpolateUntPts */
IUP[1]\011/* InterpolateUntPts */";
};
width = 754;
}
);
note = w;
unicode = 0077;
},
{
glyphname = x;
layers = (
{
layerId = "C1D5D18F-17E8-4A1F-B101-925564B9D079";
paths = (
{
closed = 1;
nodes = (
"539 411 LINE SMOOTH",
"562 435 OFFCURVE",
"567 495 OFFCURVE",
"528 531 OFFCURVE",
"469 523 OFFCURVE",
"447 500 QCURVE SMOOTH",
"346 388 LINE",
"281 501 LINE SMOOTH",
"267 524 OFFCURVE",
"210 530 OFFCURVE",
"157 493 OFFCURVE",
"139 433 OFFCURVE",
"152 410 QCURVE SMOOTH",
"234 266 LINE",
"162 183 OFFCURVE",
"101 107 QCURVE SMOOTH",
"81 82 OFFCURVE",
"83 23 OFFCURVE",
"127 -7 OFFCURVE",
"187 8 OFFCURVE",
"208 33 QCURVE SMOOTH",
"250 87 OFFCURVE",
"300 142 QCURVE",
"356 28 LINE SMOOTH",
"367 4 OFFCURVE",
"423 -6 OFFCURVE",
"478 27 OFFCURVE",
"501 87 OFFCURVE",
"489 111 QCURVE SMOOTH",
"411 269 LINE",
"411 269 LINE"
);
}
);
width = 528;
}
);
note = x;
unicode = 0078;
},
{
glyphname = y;
layers = (
{
layerId = "C1D5D18F-17E8-4A1F-B101-925564B9D079";
paths = (
{
closed = 1;
nodes = (
"38 -104 OFFCURVE",
"25 -159 OFFCURVE",
"54 -198 OFFCURVE",
"109 -200 OFFCURVE",
"133 -181 QCURVE",
"139 -175 OFFCURVE",
"163 -157 QCURVE SMOOTH",
"211 -121 LINE SMOOTH",
"233 -104 OFFCURVE",
"250 -87 QCURVE SMOOTH",
"274 -63 OFFCURVE",
"321 -10 OFFCURVE",
"344 21 QCURVE SMOOTH",
"383 75 LINE SMOOTH",
"401 99 OFFCURVE",
"422 135 QCURVE SMOOTH",
"457 193 LINE SMOOTH",
"469 213 OFFCURVE",
"511 295 OFFCURVE",
"528 325 OFFCURVE",
"576 434 OFFCURVE",
"581 443 QCURVE SMOOTH",
"594 470 OFFCURVE",
"579 518 OFFCURVE",
"529 533 OFFCURVE",
"475 507 OFFCURVE",
"463 481 QCURVE SMOOTH",
"364 276 OFFCURVE",
"328 215 QCURVE",
"289 486 LINE SMOOTH",
"285 513 OFFCURVE",
"236 536 OFFCURVE",
"178 516 OFFCURVE",
"144 463 OFFCURVE",
"148 436 QCURVE SMOOTH",
"208 54 LINE",
"208 49 OFFCURVE",
"210 45 QCURVE",
"187 18 OFFCURVE",
"163 -5 QCURVE SMOOTH",
"151 -18 OFFCURVE",
"123 -40 OFFCURVE",
"79 -71 OFFCURVE",
"61 -85 QCURVE",
"61 -85 LINE"
);
}
);
width = 544;
}
);
note = y;
unicode = 0079;
},
{
glyphname = z;
layers = (
{
layerId = "C1D5D18F-17E8-4A1F-B101-925564B9D079";
paths = (
{
closed = 1;
nodes = (
"68 84 OFFCURVE",
"67 30 OFFCURVE",
"85 14 QCURVE SMOOTH",
"102 0 OFFCURVE",
"126 2 QCURVE SMOOTH",
"130 2 LINE SMOOTH",
"306 -3 OFFCURVE",
"451 5 QCURVE SMOOTH",
"479 7 OFFCURVE",
"524 48 OFFCURVE",
"531 103 OFFCURVE",
"498 139 OFFCURVE",
"471 137 QCURVE SMOOTH",
"371 132 OFFCURVE",
"282 132 QCURVE",
"363 208 LINE",
"562 405 LINE SMOOTH",
"587 429 OFFCURVE",
"588 459 QCURVE",
"594 486 OFFCURVE",
"565 525 OFFCURVE",
"538 526 QCURVE SMOOTH",
"380 531 OFFCURVE",
"226 531 QCURVE",
"198 529 OFFCURVE",
"153 488 OFFCURVE",
"146 433 OFFCURVE",
"179 397 OFFCURVE",
"206 399 QCURVE",
"293 394 OFFCURVE",
"374 395 QCURVE",
"164 188 OFFCURVE",
"89 106 QCURVE",
"89 106 LINE"
);
}
);
userData = {
assembly = "SVTCA[0]\011/* SetFreedomAndProjectionVectorToAxis */
PUSHW[ ]\011/* 1 value pushed */
9 
MDAP[1]\011/* MoveDirectAbsPt */
PUSHW[ ]\011/* 1 value pushed */
11 
MDAP[1]\011/* MoveDirectAbsPt */
PUSHW[ ]\011/* 1 value pushed */
0 
RCVT[ ]\011/* ReadCVT */
IF[ ]\011/* If */
PUSHW[ ]\011/* 1 value pushed */
25 
MDAP[1]\011/* MoveDirectAbsPt */
ELSE[ ]\011/* Else */
PUSHW[ ]\011/* 2 values pushed */
25 6 
MIAP[0]\011/* MoveIndirectAbsPt */
EIF[ ]\011/* EndIf */
PUSHW[ ]\011/* 1 value pushed */
0 
RCVT[ ]\011/* ReadCVT */
IF[ ]\011/* If */
PUSHW[ ]\011/* 1 value pushed */
27 
MDAP[1]\011/* MoveDirectAbsPt */
ELSE[ ]\011/* Else */
PUSHW[ ]\011/* 2 values pushed */
27 6 
MIAP[0]\011/* MoveIndirectAbsPt */
EIF[ ]\011/* EndIf */
PUSHW[ ]\011/* 1 value pushed */
11 
SRP0[ ]\011/* SetRefPoint0 */
PUSHW[ ]\011/* 2 values pushed */
4 3 
MIRP[10100]\011/* MoveIndirectRelPt */
PUSHW[ ]\011/* 1 value pushed */
2 
MDRP[10000]\011/* MoveDirectRelPt */
PUSHW[ ]\011/* 1 value pushed */
2 
MDAP[1]\011/* MoveDirectAbsPt */
PUSHW[ ]\011/* 1 value pushed */
27 
SRP0[ ]\011/* SetRefPoint0 */
PUSHW[ ]\011/* 2 values pushed */
18 1 
MIRP[10100]\011/* MoveIndirectRelPt */
PUSHW[ ]\011/* 1 value pushed */
20 
MDRP[10000]\011/* MoveDirectRelPt */
IUP[0]\011/* InterpolateUntPts */
IUP[1]\011/* InterpolateUntPts */";
};
width = 564;
}
);
note = z;
unicode = 007A;
},
{
glyphname = braceleft;
layers = (
{
layerId = "C1D5D18F-17E8-4A1F-B101-925564B9D079";
paths = (
{
closed = 1;
nodes = (
"534 558 OFFCURVE",
"587 583 OFFCURVE",
"615 635 OFFCURVE",
"601 683 OFFCURVE",
"577 692 QCURVE SMOOTH",
"575 693 OFFCURVE",
"569 695 QCURVE",
"554 703 OFFCURVE",
"553 703 QCURVE",
"521 719 OFFCURVE",
"491 716 QCURVE SMOOTH",
"351 703 OFFCURVE",
"286 523 QCURVE SMOOTH",
"279 505 OFFCURVE",
"257 435 OFFCURVE",
"251 419 QCURVE SMOOTH",
"236 378 OFFCURVE",
"226 367 QCURVE SMOOTH",
"222 363 OFFCURVE",
"210 356 QCURVE SMOOTH",
"169 332 OFFCURVE",
"167 331 QCURVE SMOOTH",
"162 328 OFFCURVE",
"158 324 QCURVE",
"134 312 OFFCURVE",
"120 289 QCURVE SMOOTH",
"105 263 OFFCURVE",
"118 213 OFFCURVE",
"141 204 QCURVE SMOOTH",
"153 199 OFFCURVE",
"177 194 QCURVE",
"176 187 LINE SMOOTH",
"174 171 OFFCURVE",
"173 168 QCURVE",
"172 151 OFFCURVE",
"158 108 QCURVE SMOOTH",
"143 53 OFFCURVE",
"140 22 QCURVE SMOOTH",
"130 -98 OFFCURVE",
"203 -153 QCURVE SMOOTH",
"255 -191 OFFCURVE",
"366 -202 QCURVE SMOOTH",
"392 -204 OFFCURVE",
"442 -169 OFFCURVE",
"458 -115 OFFCURVE",
"432 -73 OFFCURVE",
"406 -70 QCURVE SMOOTH",
"326 -63 OFFCURVE",
"299 -42 QCURVE SMOOTH",
"269 -20 OFFCURVE",
"274 38 QCURVE SMOOTH",
"275 55 OFFCURVE",
"288 97 QCURVE SMOOTH",
"305 152 OFFCURVE",
"308 182 QCURVE SMOOTH",
"308 184 OFFCURVE",
"312 212 OFFCURVE",
"312 222 QCURVE SMOOTH",
"313 254 OFFCURVE",
"302 276 QCURVE",
"308 282 OFFCURVE",
"315 289 QCURVE SMOOTH",
"351 327 OFFCURVE",
"378 400 QCURVE SMOOTH",
"394 450 LINE",
"411 503 LINE SMOOTH",
"428 549 OFFCURVE",
"455 582 OFFCURVE",
"472 584 QCURVE",
"475 582 LINE",
"478 581 OFFCURVE",
"487 576 OFFCURVE",
"488 576 QCURVE",
"500 570 OFFCURVE",
"510 566 QCURVE",
"510 566 LINE"
);
}
);
width = 533;
}
);
note = braceleft;
unicode = 007B;
},
{
glyphname = bar;
layers = (
{
layerId = "C1D5D18F-17E8-4A1F-B101-925564B9D079";
paths = (
{
closed = 1;
nodes = (
"343 687 OFFCURVE",
"310 728 OFFCURVE",
"252 728 OFFCURVE",
"203 687 OFFCURVE",
"196 658 QCURVE SMOOTH",
"192 639 OFFCURVE",
"138 381 OFFCURVE",
"120 298 OFFCURVE",
"82 133 OFFCURVE",
"65 67 QCURVE SMOOTH",
"58 38 OFFCURVE",
"88 -4 OFFCURVE",
"145 -7 OFFCURVE",
"195 32 OFFCURVE",
"203 61 QCURVE SMOOTH",
"217 115 OFFCURVE",
"244 226 OFFCURVE",
"272 356 OFFCURVE",
"281 398 QCURVE SMOOTH",
"307 518 LINE",
"336 658 LINE",
"336 658 LINE"
);
}
);
width = 247;
}
);
note = bar;
unicode = 007C;
},
{
glyphname = braceright;
layers = (
{
layerId = "C1D5D18F-17E8-4A1F-B101-925564B9D079";
paths = (
{
closed = 1;
nodes = (
"267 724 OFFCURVE",
"213 703 OFFCURVE",
"182 652 OFFCURVE",
"192 602 OFFCURVE",
"216 592 QCURVE SMOOTH",
"225 588 OFFCURVE",
"239 584 QCURVE",
"240 583 OFFCURVE",
"246 581 OFFCURVE",
"292 580 OFFCURVE",
"294 579 QCURVE SMOOTH",
"302 576 LINE",
"319 557 OFFCURVE",
"302 467 QCURVE",
"301 465 OFFCURVE",
"294 427 OFFCURVE",
"293 415 OFFCURVE",
"287 378 OFFCURVE",
"287 368 QCURVE SMOOTH",
"286 341 LINE SMOOTH",
"286 324 OFFCURVE",
"291 301 OFFCURVE",
"300 273 OFFCURVE",
"306 262 QCURVE SMOOTH",
"311 252 OFFCURVE",
"319 243 QCURVE",
"258 183 OFFCURVE",
"239 102 QCURVE SMOOTH",
"233 74 LINE SMOOTH",
"229 55 OFFCURVE",
"227 48 QCURVE SMOOTH",
"219 28 LINE SMOOTH",
"214 14 OFFCURVE",
"200 -8 OFFCURVE",
"188 -22 QCURVE SMOOTH",
"180 -32 OFFCURVE",
"136 -45 QCURVE",
"104 -62 LINE SMOOTH",
"83 -75 OFFCURVE",
"67 -85 QCURVE SMOOTH",
"42 -102 OFFCURVE",
"23 -156 OFFCURVE",
"48 -199 OFFCURVE",
"101 -206 OFFCURVE",
"145 -189 QCURVE",
"155 -183 OFFCURVE",
"171 -174 QCURVE SMOOTH",
"204 -156 LINE SMOOTH",
"256 -126 OFFCURVE",
"285 -92 QCURVE SMOOTH",
"305 -69 OFFCURVE",
"320 -46 QCURVE SMOOTH",
"335 -22 OFFCURVE",
"352 26 OFFCURVE",
"360 50 OFFCURVE",
"365 74 QCURVE SMOOTH",
"371 99 LINE SMOOTH",
"373 112 OFFCURVE",
"379 127 OFFCURVE",
"395 153 OFFCURVE",
"428 181 OFFCURVE",
"477 215 OFFCURVE",
"496 269 OFFCURVE",
"483 291 QCURVE SMOOTH",
"480 297 OFFCURVE",
"475 302 QCURVE SMOOTH",
"470 309 OFFCURVE",
"464 314 QCURVE",
"459 320 OFFCURVE",
"448 327 QCURVE SMOOTH",
"436 336 LINE SMOOTH",
"429 340 OFFCURVE",
"427 342 QCURVE",
"419 357 OFFCURVE",
"424 410 OFFCURVE",
"434 470 QCURVE SMOOTH",
"441 502 OFFCURVE",
"446 537 OFFCURVE",
"448 603 OFFCURVE",
"429 655 OFFCURVE",
"409 676 QCURVE SMOOTH",
"392 695 OFFCURVE",
"359 705 QCURVE",
"358 705 OFFCURVE",
"342 711 QCURVE SMOOTH",
"330 714 LINE",
"330 714 LINE"
);
}
);
width = 448;
}
);
note = braceright;
unicode = 007D;
},
{
glyphname = asciitilde;
layers = (
{
layerId = "C1D5D18F-17E8-4A1F-B101-925564B9D079";
paths = (
{
closed = 1;
nodes = (
"111 267 OFFCURVE",
"94 213 OFFCURVE",
"120 170 OFFCURVE",
"172 164 OFFCURVE",
"197 182 QCURVE SMOOTH",
"199 183 OFFCURVE",
"233 209 QCURVE SMOOTH",
"242 216 OFFCURVE",
"247 218 QCURVE SMOOTH",
"269 226 OFFCURVE",
"309 221 OFFCURVE",
"345 207 QCURVE SMOOTH",
"347 206 OFFCURVE",
"374 195 OFFCURVE",
"385 191 OFFCURVE",
"413 182 OFFCURVE",
"430 178 OFFCURVE",
"459 173 OFFCURVE",
"483 173 OFFCURVE",
"513 175 OFFCURVE",
"527 177 QCURVE",
"542 182 LINE SMOOTH",
"551 184 OFFCURVE",
"566 190 OFFCURVE",
"581 197 OFFCURVE",
"588 200 QCURVE SMOOTH",
"599 206 LINE SMOOTH",
"605 209 OFFCURVE",
"608 210 QCURVE SMOOTH",
"612 212 LINE SMOOTH",
"639 224 OFFCURVE",
"668 276 OFFCURVE",
"656 325 OFFCURVE",
"607 343 OFFCURVE",
"581 332 QCURVE SMOOTH",
"562 324 OFFCURVE",
"540 312 OFFCURVE",
"533 308 OFFCURVE",
"527 307 QCURVE SMOOTH",
"519 305 OFFCURVE",
"504 304 OFFCURVE",
"485 307 OFFCURVE",
"473 310 OFFCURVE",
"446 319 OFFCURVE",
"434 324 OFFCURVE",
"416 331 QCURVE SMOOTH",
"390 341 OFFCURVE",
"377 344 QCURVE SMOOTH",
"361 349 OFFCURVE",
"307 358 OFFCURVE",
"249 351 OFFCURVE",
"218 338 QCURVE SMOOTH",
"193 328 OFFCURVE",
"165 306 QCURVE SMOOTH",
"161 303 OFFCURVE",
"150 295 OFFCURVE",
"146 292 QCURVE SMOOTH",
"137 284 LINE",
"137 284 LINE"
);
}
);
width = 704;
}
);
note = asciitilde;
unicode = 007E;
},
{
glyphname = exclamdown;
layers = (
{
layerId = "C1D5D18F-17E8-4A1F-B101-925564B9D079";
paths = (
{
closed = 1;
nodes = (
"262 291 OFFCURVE",
"231 332 OFFCURVE",
"173 333 OFFCURVE",
"124 293 OFFCURVE",
"117 264 QCURVE SMOOTH",
"103 204 OFFCURVE",
"78 74 OFFCURVE",
"63 -14 QCURVE SMOOTH",
"39 -139 LINE SMOOTH",
"34 -168 OFFCURVE",
"68 -207 OFFCURVE",
"126 -206 OFFCURVE",
"174 -164 OFFCURVE",
"180 -135 QCURVE SMOOTH",
"187 -97 OFFCURVE",
"217 74 OFFCURVE",
"242 202 OFFCURVE",
"256 262 QCURVE",
"256 262 LINE"
);
},
{
closed = 1;
nodes = (
"258 513 OFFCURVE",
"200 513 OFFCURVE",
"150 472 OFFCURVE",
"137 414 OFFCURVE",
"170 373 OFFCURVE",
"228 373 OFFCURVE",
"277 414 OFFCURVE",
"290 472 OFFCURVE",
"273 492 QCURVE",
"273 492 LINE"
);
}
);
width = 259;
}
);
note = exclamdown;
unicode = 00A1;
},
{
glyphname = cent;
layers = (
{
layerId = "C1D5D18F-17E8-4A1F-B101-925564B9D079";
paths = (
{
closed = 1;
nodes = (
"235 209 OFFCURVE",
"252 264 QCURVE SMOOTH",
"270 327 OFFCURVE",
"315 359 QCURVE SMOOTH",
"333 372 OFFCURVE",
"353 378 QCURVE",
"296 261 OFFCURVE",
"249 170 QCURVE",
"249 170 LINE"
);
},
{
closed = 1;
nodes = (
"565 519 LINE SMOOTH",
"579 547 OFFCURVE",
"560 597 OFFCURVE",
"508 612 OFFCURVE",
"451 583 OFFCURVE",
"438 555 QCURVE SMOOTH",
"422 522 LINE",
"326 524 OFFCURVE",
"245 464 QCURVE SMOOTH",
"151 395 OFFCURVE",
"115 277 QCURVE SMOOTH",
"93 205 OFFCURVE",
"105 132 QCURVE SMOOTH",
"116 60 OFFCURVE",
"166 18 QCURVE",
"144 -23 LINE SMOOTH",
"129 -50 OFFCURVE",
"142 -102 OFFCURVE",
"193 -121 OFFCURVE",
"250 -97 OFFCURVE",
"266 -69 QCURVE SMOOTH",
"292 -23 LINE",
"300 -23 LINE SMOOTH",
"378 -22 OFFCURVE",
"441 16 QCURVE SMOOTH",
"474 36 OFFCURVE",
"509 74 QCURVE SMOOTH",
"531 98 LINE SMOOTH",
"542 110 OFFCURVE",
"549 117 QCURVE SMOOTH",
"572 139 OFFCURVE",
"579 196 OFFCURVE",
"542 233 OFFCURVE",
"484 228 OFFCURVE",
"460 205 QCURVE SMOOTH",
"450 195 OFFCURVE",
"434 178 QCURVE SMOOTH",
"413 155 LINE SMOOTH",
"397 137 OFFCURVE",
"388 132 QCURVE SMOOTH",
"379 127 OFFCURVE",
"370 124 QCURVE",
"419 217 OFFCURVE",
"475 334 QCURVE",
"492 311 LINE SMOOTH",
"506 289 OFFCURVE",
"563 286 OFFCURVE",
"614 324 OFFCURVE",
"630 382 OFFCURVE",
"615 403 QCURVE SMOOTH",
"603 423 LINE",
"588 446 LINE SMOOTH",
"583 454 OFFCURVE",
"561 477 OFFCURVE",
"549 486 QCURVE",
"549 486 LINE"
);
}
);
width = 592;
}
);
note = cent;
unicode = 00A2;
},
{
glyphname = sterling;
layers = (
{
layerId = "C1D5D18F-17E8-4A1F-B101-925564B9D079";
paths = (
{
closed = 1;
nodes = (
"524 436 OFFCURVE",
"569 409 OFFCURVE",
"628 426 OFFCURVE",
"666 477 OFFCURVE",
"664 504 QCURVE SMOOTH",
"663 510 OFFCURVE",
"663 520 QCURVE SMOOTH",
"663 543 OFFCURVE",
"663 544 QCURVE SMOOTH",
"662 582 OFFCURVE",
"652 608 QCURVE SMOOTH",
"630 657 OFFCURVE",
"535 701 OFFCURVE",
"478 698 QCURVE SMOOTH",
"424 696 OFFCURVE",
"315 651 OFFCURVE",
"275 611 QCURVE SMOOTH",
"186 520 OFFCURVE",
"204 405 QCURVE",
"203 404 LINE",
"175 402 OFFCURVE",
"128 361 OFFCURVE",
"122 333 QCURVE SMOOTH",
"117 304 OFFCURVE",
"150 264 OFFCURVE",
"179 264 QCURVE SMOOTH",
"200 265 OFFCURVE",
"224 265 QCURVE",
"218 226 OFFCURVE",
"173 178 QCURVE",
"173 177 LINE",
"169 175 OFFCURVE",
"153 167 OFFCURVE",
"151 165 QCURVE",
"125 151 OFFCURVE",
"109 134 QCURVE SMOOTH",
"69 91 OFFCURVE",
"83 45 QCURVE SMOOTH",
"97 2 OFFCURVE",
"147 0 QCURVE SMOOTH",
"167 -1 OFFCURVE",
"194 8 QCURVE SMOOTH",
"221 18 LINE",
"283 22 OFFCURVE",
"305 19 QCURVE SMOOTH",
"330 15 OFFCURVE",
"341 11 QCURVE",
"342 10 OFFCURVE",
"353 3 QCURVE SMOOTH",
"373 -10 OFFCURVE",
"427 -18 OFFCURVE",
"474 -16 QCURVE SMOOTH",
"484 -15 OFFCURVE",
"508 -11 OFFCURVE",
"531 -5 OFFCURVE",
"540 -2 QCURVE SMOOTH",
"557 4 LINE",
"564 6 LINE SMOOTH",
"593 13 OFFCURVE",
"633 63 OFFCURVE",
"630 119 OFFCURVE",
"586 148 OFFCURVE",
"556 140 QCURVE SMOOTH",
"536 135 OFFCURVE",
"524 131 QCURVE SMOOTH",
"512 127 OFFCURVE",
"504 124 OFFCURVE",
"498 124 QCURVE SMOOTH",
"460 122 OFFCURVE",
"448 124 QCURVE",
"433 135 OFFCURVE",
"418 141 QCURVE SMOOTH",
"394 151 OFFCURVE",
"352 157 QCURVE SMOOTH",
"337 159 OFFCURVE",
"320 160 QCURVE",
"355 213 OFFCURVE",
"364 270 QCURVE",
"404 271 OFFCURVE",
"435 271 QCURVE SMOOTH",
"464 272 OFFCURVE",
"513 313 OFFCURVE",
"524 371 OFFCURVE",
"492 411 OFFCURVE",
"463 411 QCURVE SMOOTH",
"422 410 OFFCURVE",
"354 408 QCURVE",
"347 438 OFFCURVE",
"345 453 QCURVE SMOOTH",
"340 475 OFFCURVE",
"350 508 OFFCURVE",
"367 525 QCURVE SMOOTH",
"380 538 OFFCURVE",
"427 558 OFFCURVE",
"454 559 QCURVE SMOOTH",
"506 561 OFFCURVE",
"518 532 QCURVE SMOOTH",
"520 527 OFFCURVE",
"521 513 QCURVE SMOOTH",
"521 500 LINE",
"520 492 LINE SMOOTH",
"520 475 OFFCURVE",
"521 464 QCURVE",
"521 464 LINE"
);
}
);
userData = {
assembly = "SVTCA[0]\011/* SetFreedomAndProjectionVectorToAxis */
PUSHW[ ]\011/* 4 values pushed */
89 1 8 4 
CALL[ ]\011/* CallFunction */
PUSHW[ ]\011/* 4 values pushed */
16 1 77 4 
CALL[ ]\011/* CallFunction */
PUSHW[ ]\011/* 1 value pushed */
16 
SRP0[ ]\011/* SetRefPoint0 */
PUSHW[ ]\011/* 1 value pushed */
18 
MDRP[10000]\011/* MoveDirectRelPt */
PUSHW[ ]\011/* 1 value pushed */
18 
MDAP[1]\011/* MoveDirectAbsPt */
PUSHW[ ]\011/* 1 value pushed */
77 
SRP0[ ]\011/* SetRefPoint0 */
PUSHW[ ]\011/* 1 value pushed */
23 
MDRP[10000]\011/* MoveDirectRelPt */
PUSHW[ ]\011/* 1 value pushed */
23 
MDAP[1]\011/* MoveDirectAbsPt */
PUSHW[ ]\011/* 1 value pushed */
77 
SRP0[ ]\011/* SetRefPoint0 */
PUSHW[ ]\011/* 1 value pushed */
25 
MDRP[10000]\011/* MoveDirectRelPt */
PUSHW[ ]\011/* 1 value pushed */
25 
MDAP[1]\011/* MoveDirectAbsPt */
PUSHW[ ]\011/* 1 value pushed */
77 
SRP0[ ]\011/* SetRefPoint0 */
PUSHW[ ]\011/* 1 value pushed */
75 
MDRP[10000]\011/* MoveDirectRelPt */
PUSHW[ ]\011/* 1 value pushed */
75 
MDAP[1]\011/* MoveDirectAbsPt */
PUSHW[ ]\011/* 1 value pushed */
16 
SRP0[ ]\011/* SetRefPoint0 */
PUSHW[ ]\011/* 1 value pushed */
83 
MDRP[10000]\011/* MoveDirectRelPt */
PUSHW[ ]\011/* 1 value pushed */
83 
MDAP[1]\011/* MoveDirectAbsPt */
IUP[0]\011/* InterpolateUntPts */
IUP[1]\011/* InterpolateUntPts */";
};
width = 664;
}
);
note = sterling;
unicode = 00A3;
},
{
glyphname = currency;
layers = (
{
layerId = "C1D5D18F-17E8-4A1F-B101-925564B9D079";
paths = (
{
closed = 1;
nodes = (
"349 398 LINE",
"363 392 OFFCURVE",
"384 384 QCURVE SMOOTH",
"388 383 OFFCURVE",
"399 378 OFFCURVE",
"408 375 OFFCURVE",
"413 373 QCURVE SMOOTH",
"437 364 OFFCURVE",
"445 355 QCURVE SMOOTH",
"475 321 OFFCURVE",
"426 280 QCURVE SMOOTH",
"400 258 OFFCURVE",
"341 250 OFFCURVE",
"312 268 QCURVE",
"302 277 OFFCURVE",
"295 315 OFFCURVE",
"303 341 QCURVE SMOOTH",
"315 382 OFFCURVE",
"344 402 QCURVE",
"344 402 LINE"
);
},
{
closed = 1;
nodes = (
"480 515 LINE",
"465 546 OFFCURVE",
"426 545 QCURVE SMOOTH",
"415 545 LINE SMOOTH",
"397 546 OFFCURVE",
"396 546 QCURVE SMOOTH",
"359 548 OFFCURVE",
"328 536 QCURVE SMOOTH",
"318 532 LINE",
"289 566 LINE SMOOTH",
"272 586 OFFCURVE",
"214 584 OFFCURVE",
"165 542 OFFCURVE",
"154 484 OFFCURVE",
"171 464 QCURVE SMOOTH",
"202 429 LINE",
"178 393 OFFCURVE",
"167 353 QCURVE SMOOTH",
"148 293 OFFCURVE",
"159 240 QCURVE",
"126 213 LINE SMOOTH",
"101 193 OFFCURVE",
"87 135 OFFCURVE",
"118 94 OFFCURVE",
"176 93 OFFCURVE",
"201 113 QCURVE SMOOTH",
"232 138 LINE",
"283 112 OFFCURVE",
"386 115 OFFCURVE",
"437 139 QCURVE",
"454 116 LINE SMOOTH",
"470 95 OFFCURVE",
"527 94 OFFCURVE",
"578 133 OFFCURVE",
"591 191 OFFCURVE",
"577 212 QCURVE SMOOTH",
"556 239 LINE",
"589 280 OFFCURVE",
"605 388 OFFCURVE",
"579 432 QCURVE",
"619 461 LINE SMOOTH",
"645 480 OFFCURVE",
"662 538 OFFCURVE",
"633 581 OFFCURVE",
"576 586 OFFCURVE",
"550 567 QCURVE SMOOTH",
"480 516 LINE",
"480 516 LINE"
);
}
);
width = 588;
}
);
note = currency;
unicode = 00A4;
},
{
glyphname = yen;
layers = (
{
layerId = "C1D5D18F-17E8-4A1F-B101-925564B9D079";
paths = (
{
closed = 1;
nodes = (
"273 140 OFFCURVE",
"257 69 QCURVE SMOOTH",
"251 40 OFFCURVE",
"282 -1 OFFCURVE",
"340 -2 OFFCURVE",
"390 38 OFFCURVE",
"397 67 QCURVE SMOOTH",
"412 133 OFFCURVE",
"421 180 QCURVE",
"525 176 LINE SMOOTH",
"554 175 OFFCURVE",
"605 214 OFFCURVE",
"619 272 OFFCURVE",
"589 315 OFFCURVE",
"561 316 QCURVE SMOOTH",
"516 317 OFFCURVE",
"468 319 QCURVE",
"498 354 LINE",
"578 353 LINE SMOOTH",
"607 353 OFFCURVE",
"656 393 OFFCURVE",
"663 422 QCURVE SMOOTH",
"669 449 OFFCURVE",
"643 488 OFFCURVE",
"619 492 QCURVE",
"697 577 LINE SMOOTH",
"719 601 OFFCURVE",
"721 658 OFFCURVE",
"682 692 OFFCURVE",
"622 682 OFFCURVE",
"601 659 QCURVE SMOOTH",
"494 545 OFFCURVE",
"401 434 QCURVE",
"323 652 LINE SMOOTH",
"313 676 OFFCURVE",
"260 691 OFFCURVE",
"205 661 OFFCURVE",
"178 605 OFFCURVE",
"188 580 QCURVE SMOOTH",
"221 491 LINE",
"194 489 OFFCURVE",
"150 450 OFFCURVE",
"143 423 QCURVE SMOOTH",
"137 394 OFFCURVE",
"169 353 OFFCURVE",
"197 352 QCURVE SMOOTH",
"269 351 LINE",
"279 322 LINE",
"209 322 LINE SMOOTH",
"180 322 OFFCURVE",
"130 281 OFFCURVE",
"118 223 OFFCURVE",
"150 182 OFFCURVE",
"179 182 QCURVE SMOOTH",
"282 182 LINE",
"282 182 LINE"
);
}
);
userData = {
assembly = "SVTCA[0]\011/* SetFreedomAndProjectionVectorToAxis */
PUSHW[ ]\011/* 4 values pushed */
40 1 45 4 
CALL[ ]\011/* CallFunction */
PUSHW[ ]\011/* 1 value pushed */
45 
SRP0[ ]\011/* SetRefPoint0 */
PUSHW[ ]\011/* 1 value pushed */
0 
MDRP[10000]\011/* MoveDirectRelPt */
PUSHW[ ]\011/* 1 value pushed */
0 
MDAP[1]\011/* MoveDirectAbsPt */
PUSHW[ ]\011/* 1 value pushed */
40 
SRP0[ ]\011/* SetRefPoint0 */
PUSHW[ ]\011/* 1 value pushed */
6 
MDRP[10000]\011/* MoveDirectRelPt */
PUSHW[ ]\011/* 1 value pushed */
6 
MDAP[1]\011/* MoveDirectAbsPt */
PUSHW[ ]\011/* 1 value pushed */
40 
SRP0[ ]\011/* SetRefPoint0 */
PUSHW[ ]\011/* 2 values pushed */
36 2 
MIRP[10100]\011/* MoveIndirectRelPt */
PUSHW[ ]\011/* 1 value pushed */
8 
MDRP[10000]\011/* MoveDirectRelPt */
PUSHW[ ]\011/* 1 value pushed */
8 
MDAP[1]\011/* MoveDirectAbsPt */
PUSHW[ ]\011/* 1 value pushed */
40 
SRP0[ ]\011/* SetRefPoint0 */
PUSHW[ ]\011/* 1 value pushed */
38 
MDRP[10000]\011/* MoveDirectRelPt */
PUSHW[ ]\011/* 1 value pushed */
38 
MDAP[1]\011/* MoveDirectAbsPt */
IUP[0]\011/* InterpolateUntPts */
IUP[1]\011/* InterpolateUntPts */";
};
width = 600;
}
);
note = yen;
unicode = 00A5;
},
{
glyphname = brokenbar;
layers = (
{
layerId = "C1D5D18F-17E8-4A1F-B101-925564B9D079";
paths = (
{
closed = 1;
nodes = (
"336 678 OFFCURVE",
"304 719 OFFCURVE",
"247 720 OFFCURVE",
"197 680 OFFCURVE",
"190 651 QCURVE SMOOTH",
"157 505 LINE SMOOTH",
"151 476 OFFCURVE",
"182 435 OFFCURVE",
"240 434 OFFCURVE",
"289 474 OFFCURVE",
"296 503 QCURVE SMOOTH",
"329 649 LINE",
"329 649 LINE"
);
},
{
closed = 1;
nodes = (
"248 254 OFFCURVE",
"218 296 OFFCURVE",
"161 297 OFFCURVE",
"110 258 OFFCURVE",
"103 229 QCURVE SMOOTH",
"66 72 LINE SMOOTH",
"60 43 OFFCURVE",
"90 1 OFFCURVE",
"148 0 OFFCURVE",
"198 39 OFFCURVE",
"205 68 QCURVE SMOOTH",
"242 225 LINE",
"242 225 LINE"
);
}
);
width = 245;
}
);
note = brokenbar;
unicode = 00A6;
},
{
glyphname = section;
layers = (
{
layerId = "C1D5D18F-17E8-4A1F-B101-925564B9D079";
paths = (
{
closed = 1;
nodes = (
"275 318 OFFCURVE",
"298 335 QCURVE",
"318 321 OFFCURVE",
"347 303 QCURVE SMOOTH",
"403 269 LINE SMOOTH",
"455 234 OFFCURVE",
"466 209 QCURVE SMOOTH",
"474 191 OFFCURVE",
"452 160 QCURVE",
"449 158 LINE",
"432 175 OFFCURVE",
"388 210 OFFCURVE",
"358 230 QCURVE SMOOTH",
"322 256 LINE SMOOTH",
"275 291 OFFCURVE",
"270 307 QCURVE",
"270 307 LINE"
);
},
{
closed = 1;
nodes = (
"490 466 OFFCURVE",
"538 443 OFFCURVE",
"596 465 OFFCURVE",
"631 518 OFFCURVE",
"625 545 QCURVE SMOOTH",
"624 549 OFFCURVE",
"624 554 OFFCURVE",
"624 567 OFFCURVE",
"623 575 QCURVE SMOOTH",
"619 615 OFFCURVE",
"600 639 QCURVE SMOOTH",
"576 668 OFFCURVE",
"499 697 OFFCURVE",
"416 696 OFFCURVE",
"377 683 QCURVE SMOOTH",
"306 660 OFFCURVE",
"208 546 OFFCURVE",
"211 466 QCURVE SMOOTH",
"212 448 OFFCURVE",
"217 432 QCURVE",
"125 357 OFFCURVE",
"127 278 QCURVE SMOOTH",
"127 254 OFFCURVE",
"145 210 OFFCURVE",
"178 174 OFFCURVE",
"203 152 OFFCURVE",
"222 139 QCURVE SMOOTH",
"236 128 OFFCURVE",
"292 90 OFFCURVE",
"327 62 OFFCURVE",
"341 48 QCURVE SMOOTH",
"377 11 OFFCURVE",
"367 -19 QCURVE SMOOTH",
"362 -33 OFFCURVE",
"332 -57 OFFCURVE",
"306 -62 QCURVE SMOOTH",
"281 -67 OFFCURVE",
"245 -55 OFFCURVE",
"239 -43 QCURVE",
"239 -35 LINE SMOOTH",
"239 -32 OFFCURVE",
"239 -19 OFFCURVE",
"240 -18 QCURVE",
"240 -3 OFFCURVE",
"239 8 QCURVE SMOOTH",
"237 35 OFFCURVE",
"192 63 OFFCURVE",
"133 47 OFFCURVE",
"95 -4 OFFCURVE",
"97 -32 QCURVE SMOOTH",
"97 -35 OFFCURVE",
"97 -43 QCURVE SMOOTH",
"96 -63 LINE SMOOTH",
"96 -100 OFFCURVE",
"108 -125 QCURVE SMOOTH",
"134 -176 OFFCURVE",
"246 -211 OFFCURVE",
"306 -198 QCURVE SMOOTH",
"369 -186 OFFCURVE",
"480 -102 OFFCURVE",
"502 -35 QCURVE SMOOTH",
"516 8 OFFCURVE",
"510 47 QCURVE",
"542 70 OFFCURVE",
"562 96 QCURVE SMOOTH",
"637 198 OFFCURVE",
"599 285 QCURVE SMOOTH",
"576 338 OFFCURVE",
"498 390 QCURVE SMOOTH",
"440 426 LINE SMOOTH",
"405 448 OFFCURVE",
"391 458 QCURVE SMOOTH",
"371 474 LINE",
"368 478 LINE",
"354 492 OFFCURVE",
"354 502 QCURVE SMOOTH",
"353 521 OFFCURVE",
"371 544 OFFCURVE",
"394 551 QCURVE SMOOTH",
"421 559 OFFCURVE",
"468 552 OFFCURVE",
"480 540 QCURVE",
"481 538 OFFCURVE",
"480 536 QCURVE",
"484 496 OFFCURVE",
"484 493 QCURVE",
"484 493 LINE"
);
}
);
width = 622;
}
);
note = section;
unicode = 00A7;
},
{
glyphname = dieresis;
layers = (
{
layerId = "C1D5D18F-17E8-4A1F-B101-925564B9D079";
paths = (
{
closed = 1;
nodes = (
"301 718 OFFCURVE",
"243 718 OFFCURVE",
"193 677 OFFCURVE",
"181 619 OFFCURVE",
"213 578 OFFCURVE",
"271 578 OFFCURVE",
"321 619 OFFCURVE",
"333 677 OFFCURVE",
"317 697 QCURVE",
"317 697 LINE"
);
},
{
closed = 1;
nodes = (
"477 713 OFFCURVE",
"419 713 OFFCURVE",
"369 672 OFFCURVE",
"357 614 OFFCURVE",
"389 573 OFFCURVE",
"447 573 OFFCURVE",
"497 614 OFFCURVE",
"509 672 OFFCURVE",
"493 692 QCURVE",
"493 692 LINE"
);
}
);
width = 417;
}
);
note = dieresis;
unicode = 00A8;
},
{
glyphname = copyright;
layers = (
{
layerId = "C1D5D18F-17E8-4A1F-B101-925564B9D079";
paths = (
{
closed = 1;
nodes = (
"489 677 OFFCURVE",
"480 676 QCURVE SMOOTH",
"367 658 OFFCURVE",
"248 540 QCURVE SMOOTH",
"183 475 OFFCURVE",
"120 330 OFFCURVE",
"129 201 OFFCURVE",
"187 89 OFFCURVE",
"297 14 OFFCURVE",
"367 1 QCURVE SMOOTH",
"444 -12 OFFCURVE",
"606 37 OFFCURVE",
"735 138 OFFCURVE",
"820 290 OFFCURVE",
"825 372 QCURVE SMOOTH",
"829 457 OFFCURVE",
"742 628 OFFCURVE",
"668 661 QCURVE SMOOTH",
"650 668 OFFCURVE",
"605 679 OFFCURVE",
"555 687 OFFCURVE",
"548 688 QCURVE SMOOTH",
"525 693 OFFCURVE",
"502 678 QCURVE",
"502 678 LINE"
);
},
{
closed = 1;
nodes = (
"550 571 OFFCURVE",
"559 574 QCURVE",
"589 569 OFFCURVE",
"607 561 QCURVE SMOOTH",
"654 541 OFFCURVE",
"686 478 QCURVE SMOOTH",
"718 416 OFFCURVE",
"715 354 QCURVE SMOOTH",
"712 300 OFFCURVE",
"685 250 QCURVE SMOOTH",
"656 199 OFFCURVE",
"569 130 OFFCURVE",
"460 97 OFFCURVE",
"407 107 QCURVE SMOOTH",
"341 118 OFFCURVE",
"253 197 OFFCURVE",
"227 300 OFFCURVE",
"265 422 OFFCURVE",
"318 474 QCURVE SMOOTH",
"405 560 OFFCURVE",
"474 570 QCURVE",
"475 573 OFFCURVE",
"528 570 OFFCURVE",
"541 571 QCURVE",
"541 571 LINE"
);
},
{
closed = 1;
nodes = (
"575 353 OFFCURVE",
"624 361 OFFCURVE",
"661 401 OFFCURVE",
"663 449 OFFCURVE",
"646 463 QCURVE SMOOTH",
"546 546 OFFCURVE",
"451 519 QCURVE SMOOTH",
"402 506 OFFCURVE",
"335 436 OFFCURVE",
"319 392 QCURVE",
"308 369 OFFCURVE",
"303 315 OFFCURVE",
"307 261 OFFCURVE",
"331 213 OFFCURVE",
"366 178 OFFCURVE",
"427 160 OFFCURVE",
"466 165 QCURVE SMOOTH",
"496 168 OFFCURVE",
"535 188 QCURVE SMOOTH",
"560 200 LINE SMOOTH",
"571 206 OFFCURVE",
"578 209 QCURVE SMOOTH",
"602 219 OFFCURVE",
"629 264 OFFCURVE",
"618 308 OFFCURVE",
"577 325 OFFCURVE",
"552 315 QCURVE SMOOTH",
"540 310 OFFCURVE",
"524 302 QCURVE SMOOTH",
"501 290 LINE SMOOTH",
"484 282 OFFCURVE",
"476 281 QCURVE SMOOTH",
"445 278 OFFCURVE",
"414 331 OFFCURVE",
"430 373 QCURVE SMOOTH",
"441 401 OFFCURVE",
"460 407 QCURVE SMOOTH",
"497 417 OFFCURVE",
"558 367 QCURVE",
"558 367 LINE"
);
}
);
userData = {
assembly = "PUSHW[ ]\011/* 4 values pushed */
9 5 40 4 
CALL[ ]\011/* CallFunction */
NPUSHW[ ]\011/* 7 values pushed */
25 40 41 40 57 40 3 
DELTAP1[ ]\011/* DeltaExceptionP1 */
PUSHW[ ]\011/* 1 value pushed */
9 
SRP0[ ]\011/* SetRefPoint0 */
PUSHW[ ]\011/* 1 value pushed */
88 
MDRP[11100]\011/* MoveDirectRelPt */
IUP[0]\011/* InterpolateUntPts */
IUP[1]\011/* InterpolateUntPts */";
};
width = 803;
}
);
note = copyright;
unicode = 00A9;
},
{
glyphname = ordfeminine;
layers = (
{
layerId = "C1D5D18F-17E8-4A1F-B101-925564B9D079";
paths = (
{
closed = 1;
nodes = (
"424 580 OFFCURVE",
"422 575 QCURVE SMOOTH",
"413 546 OFFCURVE",
"390 524 QCURVE SMOOTH",
"359 493 OFFCURVE",
"288 487 OFFCURVE",
"267 514 QCURVE SMOOTH",
"250 535 OFFCURVE",
"258 556 QCURVE SMOOTH",
"265 579 OFFCURVE",
"292 600 QCURVE SMOOTH",
"321 624 OFFCURVE",
"390 641 OFFCURVE",
"410 631 QCURVE SMOOTH",
"413 629 OFFCURVE",
"419 622 QCURVE SMOOTH",
"426 613 LINE",
"431 606 LINE",
"423 591 OFFCURVE",
"421 581 QCURVE",
"427 595 LINE",
"426 591 LINE",
"426 590 LINE",
"425 588 LINE",
"425 585 LINE",
"425 584 LINE",
"425 584 LINE"
);
},
{
closed = 1;
nodes = (
"510 596 LINE",
"510 597 LINE",
"511 598 LINE",
"511 599 LINE",
"511 600 LINE",
"510 601 LINE",
"511 603 LINE",
"510 613 OFFCURVE",
"506 618 QCURVE",
"523 646 OFFCURVE",
"504 665 QCURVE SMOOTH",
"501 668 OFFCURVE",
"497 672 QCURVE",
"490 683 LINE",
"475 700 OFFCURVE",
"460 707 QCURVE SMOOTH",
"427 723 OFFCURVE",
"350 716 OFFCURVE",
"277 685 OFFCURVE",
"247 660 QCURVE SMOOTH",
"193 618 OFFCURVE",
"177 565 QCURVE SMOOTH",
"156 503 OFFCURVE",
"196 454 QCURVE SMOOTH",
"234 406 OFFCURVE",
"362 405 OFFCURVE",
"418 448 QCURVE",
"429 433 OFFCURVE",
"452 408 QCURVE SMOOTH",
"463 397 OFFCURVE",
"497 399 OFFCURVE",
"526 426 OFFCURVE",
"531 460 OFFCURVE",
"520 472 QCURVE SMOOTH",
"495 498 OFFCURVE",
"487 510 QCURVE",
"506 545 OFFCURVE",
"510 590 QCURVE",
"515 601 OFFCURVE",
"515 604 QCURVE",
"511 594 LINE",
"511 594 LINE"
);
},
{
closed = 1;
nodes = (
"510 592 LINE",
"511 594 LINE",
"511 594 LINE"
);
}
);
width = 459;
}
);
note = ordfeminine;
unicode = 00AA;
},
{
glyphname = guillemotleft;
layers = (
{
layerId = "C1D5D18F-17E8-4A1F-B101-925564B9D079";
paths = (
{
closed = 1;
nodes = (
"593 106 OFFCURVE",
"606 121 QCURVE SMOOTH",
"627 145 OFFCURVE",
"628 202 OFFCURVE",
"608 218 QCURVE SMOOTH",
"561 254 OFFCURVE",
"542 271 QCURVE",
"636 322 LINE SMOOTH",
"664 337 OFFCURVE",
"688 394 OFFCURVE",
"669 443 OFFCURVE",
"614 455 OFFCURVE",
"587 440 QCURVE",
"586 439 LINE",
"583 438 OFFCURVE",
"579 436 QCURVE SMOOTH",
"560 425 OFFCURVE",
"520 404 QCURVE SMOOTH",
"482 383 OFFCURVE",
"466 374 QCURVE SMOOTH",
"397 333 OFFCURVE",
"379 288 QCURVE SMOOTH",
"375 279 OFFCURVE",
"373 270 QCURVE SMOOTH",
"363 222 OFFCURVE",
"405 177 QCURVE SMOOTH",
"428 153 OFFCURVE",
"497 98 QCURVE SMOOTH",
"513 86 OFFCURVE",
"555 86 OFFCURVE",
"574 98 QCURVE",
"574 98 LINE"
);
},
{
closed = 1;
nodes = (
"303 426 OFFCURVE",
"264 405 QCURVE SMOOTH",
"225 384 OFFCURVE",
"209 375 QCURVE SMOOTH",
"140 334 OFFCURVE",
"122 289 QCURVE SMOOTH",
"99 231 OFFCURVE",
"148 178 QCURVE SMOOTH",
"171 154 OFFCURVE",
"241 99 QCURVE SMOOTH",
"261 83 OFFCURVE",
"320 94 OFFCURVE",
"363 142 OFFCURVE",
"364 199 OFFCURVE",
"343 215 QCURVE SMOOTH",
"297 251 OFFCURVE",
"277 268 QCURVE",
"371 319 LINE SMOOTH",
"399 334 OFFCURVE",
"424 391 OFFCURVE",
"404 440 OFFCURVE",
"350 452 OFFCURVE",
"322 437 QCURVE",
"322 437 LINE"
);
}
);
width = 655;
}
);
note = guillemotleft;
unicode = 00AB;
},
{
glyphname = logicalnot;
layers = (
{
layerId = "C1D5D18F-17E8-4A1F-B101-925564B9D079";
paths = (
{
closed = 1;
nodes = (
"697 369 OFFCURVE",
"668 412 OFFCURVE",
"639 414 QCURVE SMOOTH",
"630 414 OFFCURVE",
"621 412 QCURVE",
"617 413 OFFCURVE",
"612 413 QCURVE SMOOTH",
"320 409 OFFCURVE",
"211 413 QCURVE SMOOTH",
"182 414 OFFCURVE",
"131 375 OFFCURVE",
"117 317 OFFCURVE",
"147 274 OFFCURVE",
"176 273 QCURVE SMOOTH",
"288 269 OFFCURVE",
"532 273 QCURVE",
"526 254 OFFCURVE",
"509 164 QCURVE SMOOTH",
"504 135 OFFCURVE",
"538 96 OFFCURVE",
"596 97 OFFCURVE",
"644 139 OFFCURVE",
"650 168 QCURVE SMOOTH",
"654 190 OFFCURVE",
"662 234 OFFCURVE",
"663 237 QCURVE SMOOTH",
"666 252 LINE SMOOTH",
"668 263 OFFCURVE",
"671 271 OFFCURVE",
"682 315 OFFCURVE",
"690 340 QCURVE",
"690 340 LINE"
);
}
);
userData = {
assembly = "SVTCA[0]\011/* SetFreedomAndProjectionVectorToAxis */
PUSHW[ ]\011/* 1 value pushed */
22 
MDAP[1]\011/* MoveDirectAbsPt */
PUSHW[ ]\011/* 1 value pushed */
24 
MDAP[1]\011/* MoveDirectAbsPt */
PUSHW[ ]\011/* 1 value pushed */
26 
MDAP[1]\011/* MoveDirectAbsPt */
PUSHW[ ]\011/* 1 value pushed */
28 
MDAP[1]\011/* MoveDirectAbsPt */
PUSHW[ ]\011/* 1 value pushed */
24 
SRP0[ ]\011/* SetRefPoint0 */
PUSHW[ ]\011/* 2 values pushed */
15 1 
MIRP[10100]\011/* MoveIndirectRelPt */
PUSHW[ ]\011/* 1 value pushed */
17 
MDRP[10000]\011/* MoveDirectRelPt */
IUP[0]\011/* InterpolateUntPts */
IUP[1]\011/* InterpolateUntPts */";
};
width = 630;
}
);
note = logicalnot;
unicode = 00AC;
},
{
glyphname = registered;
layers = (
{
layerId = "C1D5D18F-17E8-4A1F-B101-925564B9D079";
paths = (
{
closed = 1;
nodes = (
"539 620 OFFCURVE",
"550 618 QCURVE SMOOTH",
"557 617 OFFCURVE",
"608 608 OFFCURVE",
"631 603 OFFCURVE",
"663 593 OFFCURVE",
"671 587 QCURVE SMOOTH",
"700 569 OFFCURVE",
"729 515 QCURVE SMOOTH",
"753 469 OFFCURVE",
"752 361 OFFCURVE",
"713 260 OFFCURVE",
"639 167 OFFCURVE",
"548 101 OFFCURVE",
"436 69 OFFCURVE",
"383 76 QCURVE SMOOTH",
"303 88 OFFCURVE",
"213 178 OFFCURVE",
"198 299 OFFCURVE",
"220 368 QCURVE SMOOTH",
"253 473 OFFCURVE",
"424 623 OFFCURVE",
"533 627 QCURVE",
"533 627 LINE"
);
},
{
closed = 1;
nodes = (
"579 713 OFFCURVE",
"562 713 QCURVE SMOOTH",
"485 713 OFFCURVE",
"343 656 OFFCURVE",
"236 560 OFFCURVE",
"156 441 OFFCURVE",
"137 377 QCURVE SMOOTH",
"116 312 OFFCURVE",
"118 187 OFFCURVE",
"165 79 OFFCURVE",
"274 3 OFFCURVE",
"353 -8 QCURVE SMOOTH",
"425 -19 OFFCURVE",
"574 24 OFFCURVE",
"693 110 OFFCURVE",
"789 232 OFFCURVE",
"840 364 OFFCURVE",
"840 506 OFFCURVE",
"810 565 QCURVE SMOOTH",
"772 635 OFFCURVE",
"729 663 QCURVE",
"712 672 LINE SMOOTH",
"702 676 OFFCURVE",
"679 683 OFFCURVE",
"659 688 OFFCURVE",
"632 694 OFFCURVE",
"617 696 OFFCURVE",
"592 701 OFFCURVE",
"589 701 QCURVE",
"589 701 LINE"
);
},
{
closed = 1;
nodes = (
"475 272 LINE SMOOTH",
"480 258 OFFCURVE",
"481 256 QCURVE SMOOTH",
"484 246 LINE SMOOTH",
"486 238 OFFCURVE",
"487 233 OFFCURVE",
"494 203 OFFCURVE",
"498 187 QCURVE SMOOTH",
"502 166 OFFCURVE",
"540 151 OFFCURVE",
"584 168 OFFCURVE",
"608 209 OFFCURVE",
"603 229 QCURVE SMOOTH",
"589 295 OFFCURVE",
"577 329 QCURVE",
"601 339 OFFCURVE",
"619 351 QCURVE SMOOTH",
"658 376 OFFCURVE",
"676 412 QCURVE SMOOTH",
"694 447 OFFCURVE",
"683 485 QCURVE SMOOTH",
"665 540 OFFCURVE",
"515 585 OFFCURVE",
"420 566 QCURVE",
"417 566 LINE SMOOTH",
"395 566 OFFCURVE",
"358 534 OFFCURVE",
"353 512 QCURVE SMOOTH",
"308 286 OFFCURVE",
"290 214 QCURVE SMOOTH",
"284 192 OFFCURVE",
"308 160 OFFCURVE",
"351 158 OFFCURVE",
"389 188 OFFCURVE",
"395 210 QCURVE SMOOTH",
"406 252 OFFCURVE",
"416 297 QCURVE",
"427 297 LINE",
"466 301 LINE",
"466 301 LINE"
);
},
{
closed = 1;
nodes = (
"575 437 OFFCURVE",
"573 435 QCURVE",
"535 410 OFFCURVE",
"441 403 QCURVE SMOOTH",
"439 403 OFFCURVE",
"438 402 QCURVE",
"441 422 OFFCURVE",
"451 467 QCURVE",
"503 473 OFFCURVE",
"568 451 OFFCURVE",
"578 438 QCURVE",
"578 438 LINE"
);
}
);
userData = {
assembly = "SVTCA[0]\011/* SetFreedomAndProjectionVectorToAxis */
PUSHW[ ]\011/* 4 values pushed */
50 2 0 4 
CALL[ ]\011/* CallFunction */
IUP[0]\011/* InterpolateUntPts */
IUP[1]\011/* InterpolateUntPts */";
};
width = 782;
}
);
note = registered;
unicode = 00AE;
},
{
glyphname = macron;
layers = (
{
layerId = "C1D5D18F-17E8-4A1F-B101-925564B9D079";
paths = (
{
closed = 1;
nodes = (
"239 697 OFFCURVE",
"189 656 OFFCURVE",
"177 598 OFFCURVE",
"209 557 OFFCURVE",
"238 557 QCURVE SMOOTH",
"405 557 LINE SMOOTH",
"434 557 OFFCURVE",
"484 598 OFFCURVE",
"496 656 OFFCURVE",
"464 697 OFFCURVE",
"435 697 QCURVE SMOOTH",
"268 697 LINE",
"268 697 LINE"
);
}
);
userData = {
assembly = "SVTCA[0]\011/* SetFreedomAndProjectionVectorToAxis */
PUSHW[ ]\011/* 4 values pushed */
1 1 6 4 
CALL[ ]\011/* CallFunction */
IUP[0]\011/* InterpolateUntPts */
IUP[1]\011/* InterpolateUntPts */";
};
width = 403;
}
);
note = macron;
unicode = 00AF;
},
{
glyphname = degree;
layers = (
{
layerId = "C1D5D18F-17E8-4A1F-B101-925564B9D079";
paths = (
{
closed = 1;
nodes = (
"383 576 LINE",
"383 575 OFFCURVE",
"382 573 OFFCURVE",
"383 571 OFFCURVE",
"382 567 OFFCURVE",
"380 563 OFFCURVE",
"377 558 OFFCURVE",
"372 551 OFFCURVE",
"365 544 OFFCURVE",
"360 539 QCURVE SMOOTH",
"341 523 OFFCURVE",
"305 513 OFFCURVE",
"301 519 QCURVE",
"279 532 OFFCURVE",
"280 584 OFFCURVE",
"299 600 QCURVE",
"301 601 OFFCURVE",
"304 601 QCURVE",
"304 602 OFFCURVE",
"309 602 OFFCURVE",
"318 604 OFFCURVE",
"321 604 QCURVE",
"330 600 OFFCURVE",
"342 596 QCURVE SMOOTH",
"344 595 OFFCURVE",
"352 592 OFFCURVE",
"360 589 OFFCURVE",
"362 588 QCURVE SMOOTH",
"378 581 OFFCURVE",
"382 576 QCURVE",
"382 576 LINE"
);
},
{
closed = 1;
nodes = (
"358 716 OFFCURVE",
"333 709 QCURVE SMOOTH",
"330 708 OFFCURVE",
"315 706 OFFCURVE",
"306 704 QCURVE SMOOTH",
"270 697 OFFCURVE",
"246 678 QCURVE SMOOTH",
"196 639 OFFCURVE",
"163 536 OFFCURVE",
"194 449 OFFCURVE",
"231 427 QCURVE SMOOTH",
"261 408 OFFCURVE",
"335 416 OFFCURVE",
"395 446 OFFCURVE",
"447 490 OFFCURVE",
"485 546 OFFCURVE",
"494 620 OFFCURVE",
"472 648 QCURVE SMOOTH",
"456 671 OFFCURVE",
"420 685 QCURVE",
"419 686 OFFCURVE",
"397 694 QCURVE SMOOTH",
"387 698 OFFCURVE",
"381 701 QCURVE SMOOTH",
"378 703 OFFCURVE",
"375 704 QCURVE",
"375 704 LINE"
);
}
);
width = 419;
}
);
note = degree;
unicode = 00B0;
},
{
glyphname = plusminus;
layers = (
{
layerId = "C1D5D18F-17E8-4A1F-B101-925564B9D079";
paths = (
{
closed = 1;
nodes = (
"475 511 OFFCURVE",
"486 546 QCURVE SMOOTH",
"495 574 OFFCURVE",
"467 619 OFFCURVE",
"411 624 OFFCURVE",
"358 587 OFFCURVE",
"350 558 QCURVE SMOOTH",
"338 519 OFFCURVE",
"328 478 QCURVE",
"295 478 OFFCURVE",
"247 477 QCURVE SMOOTH",
"219 476 OFFCURVE",
"170 434 OFFCURVE",
"159 377 OFFCURVE",
"192 337 OFFCURVE",
"221 337 QCURVE SMOOTH",
"267 338 OFFCURVE",
"298 338 QCURVE",
"294 306 OFFCURVE",
"284 254 QCURVE SMOOTH",
"280 225 OFFCURVE",
"315 187 OFFCURVE",
"374 190 OFFCURVE",
"421 233 OFFCURVE",
"426 262 QCURVE SMOOTH",
"433 306 OFFCURVE",
"438 335 QCURVE",
"471 333 OFFCURVE",
"503 329 QCURVE SMOOTH",
"531 325 OFFCURVE",
"584 361 OFFCURVE",
"603 418 OFFCURVE",
"577 464 OFFCURVE",
"549 467 QCURVE SMOOTH",
"509 472 OFFCURVE",
"466 475 QCURVE",
"466 475 LINE"
);
},
{
closed = 1;
nodes = (
"492 4 OFFCURVE",
"545 41 OFFCURVE",
"564 98 OFFCURVE",
"537 143 OFFCURVE",
"510 146 QCURVE SMOOTH",
"378 161 OFFCURVE",
"151 154 QCURVE SMOOTH",
"122 153 OFFCURVE",
"73 111 OFFCURVE",
"63 53 OFFCURVE",
"96 13 OFFCURVE",
"125 14 QCURVE SMOOTH",
"346 21 OFFCURVE",
"464 8 QCURVE",
"464 8 LINE"
);
}
);
userData = {
assembly = "SVTCA[0]\011/* SetFreedomAndProjectionVectorToAxis */
PUSHW[ ]\011/* 4 values pushed */
43 1 38 4 
CALL[ ]\011/* CallFunction */
PUSHW[ ]\011/* 4 values pushed */
25 1 20 4 
CALL[ ]\011/* CallFunction */
PUSHW[ ]\011/* 1 value pushed */
25 
SRP0[ ]\011/* SetRefPoint0 */
PUSHW[ ]\011/* 1 value pushed */
0 
MDRP[10000]\011/* MoveDirectRelPt */
PUSHW[ ]\011/* 1 value pushed */
0 
MDAP[1]\011/* MoveDirectAbsPt */
PUSHW[ ]\011/* 1 value pushed */
20 
SRP0[ ]\011/* SetRefPoint0 */
PUSHW[ ]\011/* 1 value pushed */
9 
MDRP[10000]\011/* MoveDirectRelPt */
PUSHW[ ]\011/* 1 value pushed */
9 
MDAP[1]\011/* MoveDirectAbsPt */
PUSHW[ ]\011/* 1 value pushed */
20 
SRP0[ ]\011/* SetRefPoint0 */
PUSHW[ ]\011/* 1 value pushed */
18 
MDRP[10000]\011/* MoveDirectRelPt */
PUSHW[ ]\011/* 1 value pushed */
18 
MDAP[1]\011/* MoveDirectAbsPt */
PUSHW[ ]\011/* 1 value pushed */
25 
SRP0[ ]\011/* SetRefPoint0 */
PUSHW[ ]\011/* 1 value pushed */
27 
MDRP[10000]\011/* MoveDirectRelPt */
PUSHW[ ]\011/* 1 value pushed */
27 
MDAP[1]\011/* MoveDirectAbsPt */
PUSHW[ ]\011/* 1 value pushed */
38 
SRP0[ ]\011/* SetRefPoint0 */
PUSHW[ ]\011/* 1 value pushed */
36 
MDRP[10000]\011/* MoveDirectRelPt */
PUSHW[ ]\011/* 1 value pushed */
36 
MDAP[1]\011/* MoveDirectAbsPt */
IUP[0]\011/* InterpolateUntPts */
IUP[1]\011/* InterpolateUntPts */";
};
width = 594;
}
);
note = plusminus;
unicode = 00B1;
},
{
glyphname = uni00B2;
layers = (
{
layerId = "C1D5D18F-17E8-4A1F-B101-925564B9D079";
paths = (
{
closed = 1;
nodes = (
"175 592 OFFCURVE",
"175 548 OFFCURVE",
"208 523 OFFCURVE",
"254 532 OFFCURVE",
"271 551 QCURVE",
"287 573 LINE",
"290 578 LINE",
"293 581 OFFCURVE",
"296 586 OFFCURVE",
"299 589 QCURVE",
"303 595 OFFCURVE",
"305 597 QCURVE",
"334 613 OFFCURVE",
"369 605 QCURVE SMOOTH",
"394 599 OFFCURVE",
"392 582 QCURVE SMOOTH",
"391 571 OFFCURVE",
"381 562 OFFCURVE",
"353 547 QCURVE SMOOTH",
"279 509 LINE SMOOTH",
"226 482 OFFCURVE",
"199 460 QCURVE SMOOTH",
"146 417 OFFCURVE",
"143 368 QCURVE SMOOTH",
"141 325 OFFCURVE",
"162 301 QCURVE SMOOTH",
"182 279 OFFCURVE",
"217 275 QCURVE SMOOTH",
"235 273 OFFCURVE",
"263 277 QCURVE SMOOTH",
"288 279 OFFCURVE",
"291 280 QCURVE",
"353 280 LINE SMOOTH",
"355 280 OFFCURVE",
"415 274 QCURVE SMOOTH",
"436 272 OFFCURVE",
"477 300 OFFCURVE",
"491 345 OFFCURVE",
"480 362 QCURVE SMOOTH",
"470 380 OFFCURVE",
"448 382 QCURVE SMOOTH",
"387 388 OFFCURVE",
"379 389 OFFCURVE",
"310 388 QCURVE SMOOTH",
"303 388 OFFCURVE",
"273 385 QCURVE SMOOTH",
"266 384 OFFCURVE",
"261 384 QCURVE",
"278 397 OFFCURVE",
"314 415 QCURVE SMOOTH",
"388 453 LINE SMOOTH",
"437 479 OFFCURVE",
"458 500 QCURVE SMOOTH",
"496 538 OFFCURVE",
"502 592 QCURVE SMOOTH",
"509 642 OFFCURVE",
"457 701 OFFCURVE",
"416 711 QCURVE SMOOTH",
"383 720 OFFCURVE",
"298 707 OFFCURVE",
"264 687 QCURVE SMOOTH",
"236 672 OFFCURVE",
"212 639 QCURVE SMOOTH",
"199 621 LINE SMOOTH",
"195 614 OFFCURVE",
"191 611 QCURVE",
"191 611 LINE"
);
}
);
userData = {
assembly = "SVTCA[0]\011/* SetFreedomAndProjectionVectorToAxis */
PUSHW[ ]\011/* 4 values pushed */
22 3 34 4 
CALL[ ]\011/* CallFunction */
PUSHW[ ]\011/* 1 value pushed */
22 
SRP0[ ]\011/* SetRefPoint0 */
PUSHW[ ]\011/* 1 value pushed */
18 
MDRP[10000]\011/* MoveDirectRelPt */
PUSHW[ ]\011/* 1 value pushed */
18 
MDAP[1]\011/* MoveDirectAbsPt */
PUSHW[ ]\011/* 1 value pushed */
22 
SRP0[ ]\011/* SetRefPoint0 */
PUSHW[ ]\011/* 1 value pushed */
20 
MDRP[10000]\011/* MoveDirectRelPt */
PUSHW[ ]\011/* 1 value pushed */
20 
MDAP[1]\011/* MoveDirectAbsPt */
PUSHW[ ]\011/* 1 value pushed */
22 
SRP0[ ]\011/* SetRefPoint0 */
PUSHW[ ]\011/* 1 value pushed */
25 
MDRP[10000]\011/* MoveDirectRelPt */
PUSHW[ ]\011/* 1 value pushed */
25 
MDAP[1]\011/* MoveDirectAbsPt */
PUSHW[ ]\011/* 1 value pushed */
34 
SRP0[ ]\011/* SetRefPoint0 */
PUSHW[ ]\011/* 1 value pushed */
31 
MDRP[10000]\011/* MoveDirectRelPt */
PUSHW[ ]\011/* 1 value pushed */
31 
MDAP[1]\011/* MoveDirectAbsPt */
PUSHW[ ]\011/* 1 value pushed */
34 
SRP0[ ]\011/* SetRefPoint0 */
PUSHW[ ]\011/* 1 value pushed */
36 
MDRP[10000]\011/* MoveDirectRelPt */
PUSHW[ ]\011/* 1 value pushed */
36 
MDAP[1]\011/* MoveDirectAbsPt */
PUSHW[ ]\011/* 1 value pushed */
34 
SRP0[ ]\011/* SetRefPoint0 */
PUSHW[ ]\011/* 1 value pushed */
38 
MDRP[10000]\011/* MoveDirectRelPt */
PUSHW[ ]\011/* 1 value pushed */
38 
MDAP[1]\011/* MoveDirectAbsPt */
IUP[0]\011/* InterpolateUntPts */
IUP[1]\011/* InterpolateUntPts */";
};
width = 462;
}
);
note = uni00B2;
unicode = 00B2;
},
{
glyphname = uni00B3;
layers = (
{
layerId = "C1D5D18F-17E8-4A1F-B101-925564B9D079";
paths = (
{
closed = 1;
nodes = (
"201 658 OFFCURVE",
"187 614 OFFCURVE",
"206 579 OFFCURVE",
"249 574 OFFCURVE",
"268 587 QCURVE SMOOTH",
"272 589 OFFCURVE",
"301 612 QCURVE SMOOTH",
"302 613 LINE",
"327 616 OFFCURVE",
"363 606 OFFCURVE",
"374 595 OFFCURVE",
"374 592 QCURVE",
"373 590 OFFCURVE",
"370 587 QCURVE SMOOTH",
"353 573 OFFCURVE",
"315 563 QCURVE",
"307 562 OFFCURVE",
"298 559 QCURVE",
"297 559 LINE SMOOTH",
"275 554 OFFCURVE",
"244 518 OFFCURVE",
"243 496 QCURVE SMOOTH",
"242 475 OFFCURVE",
"272 451 OFFCURVE",
"294 455 QCURVE",
"334 439 OFFCURVE",
"343 420 QCURVE",
"345 413 OFFCURVE",
"341 406 QCURVE",
"330 392 OFFCURVE",
"283 377 OFFCURVE",
"254 386 QCURVE SMOOTH",
"250 387 OFFCURVE",
"248 389 QCURVE SMOOTH",
"243 393 LINE",
"237 400 LINE",
"231 405 OFFCURVE",
"222 411 QCURVE SMOOTH",
"206 423 OFFCURVE",
"162 415 OFFCURVE",
"130 378 OFFCURVE",
"129 335 OFFCURVE",
"145 323 QCURVE SMOOTH",
"149 320 LINE",
"152 316 OFFCURVE",
"157 312 QCURVE SMOOTH",
"168 303 LINE SMOOTH",
"174 298 OFFCURVE",
"188 289 OFFCURVE",
"194 286 QCURVE SMOOTH",
"253 263 OFFCURVE",
"384 304 OFFCURVE",
"423 356 QCURVE SMOOTH",
"469 418 OFFCURVE",
"443 478 QCURVE SMOOTH",
"437 494 OFFCURVE",
"423 508 QCURVE",
"428 511 OFFCURVE",
"432 515 QCURVE SMOOTH",
"490 565 OFFCURVE",
"483 626 QCURVE SMOOTH",
"476 678 OFFCURVE",
"372 728 OFFCURVE",
"303 717 QCURVE SMOOTH",
"274 713 OFFCURVE",
"243 688 QCURVE SMOOTH",
"237 683 OFFCURVE",
"228 675 OFFCURVE",
"225 673 OFFCURVE",
"222 671 QCURVE",
"222 671 LINE"
);
}
);
width = 425;
}
);
note = uni00B3;
unicode = 00B3;
},
{
glyphname = acute;
layers = (
{
layerId = "C1D5D18F-17E8-4A1F-B101-925564B9D079";
paths = (
{
closed = 1;
nodes = (
"298 712 LINE",
"202 626 LINE SMOOTH",
"178 604 OFFCURVE",
"169 547 OFFCURVE",
"205 509 OFFCURVE",
"233 510 QCURVE SMOOTH",
"262 512 OFFCURVE",
"286 534 QCURVE SMOOTH",
"382 620 LINE SMOOTH",
"406 642 OFFCURVE",
"415 699 OFFCURVE",
"379 737 OFFCURVE",
"351 736 QCURVE SMOOTH",
"322 734 OFFCURVE",
"298 712 QCURVE",
"298 712 LINE"
);
}
);
width = 320;
}
);
note = acute;
unicode = 00B4;
},
{
glyphname = uni00B5;
layers = (
{
layerId = "C1D5D18F-17E8-4A1F-B101-925564B9D079";
paths = (
{
closed = 1;
nodes = (
"744 432 OFFCURVE",
"746 441 QCURVE",
"755 464 OFFCURVE",
"741 507 OFFCURVE",
"720 517 QCURVE SMOOTH",
"697 529 OFFCURVE",
"638 507 OFFCURVE",
"622 480 QCURVE SMOOTH",
"538 351 OFFCURVE",
"474 282 QCURVE SMOOTH",
"388 189 OFFCURVE",
"340 197 QCURVE",
"339 199 OFFCURVE",
"336 201 QCURVE",
"326 213 LINE",
"324 215 LINE",
"383 340 OFFCURVE",
"416 425 QCURVE SMOOTH",
"427 454 OFFCURVE",
"403 501 OFFCURVE",
"348 511 OFFCURVE",
"294 477 OFFCURVE",
"283 449 QCURVE SMOOTH",
"243 346 OFFCURVE",
"158 168 QCURVE SMOOTH",
"64 -29 OFFCURVE",
"28 -124 QCURVE SMOOTH",
"17 -153 OFFCURVE",
"41 -200 OFFCURVE",
"96 -210 OFFCURVE",
"150 -176 OFFCURVE",
"161 -148 QCURVE SMOOTH",
"199 -51 OFFCURVE",
"256 70 QCURVE",
"266 65 OFFCURVE",
"278 62 QCURVE SMOOTH",
"360 42 OFFCURVE",
"455 102 QCURVE",
"440 69 LINE SMOOTH",
"427 41 OFFCURVE",
"447 -9 OFFCURVE",
"500 -23 OFFCURVE",
"556 7 OFFCURVE",
"569 35 QCURVE SMOOTH",
"701 324 OFFCURVE",
"742 424 QCURVE",
"742 424 LINE"
);
}
);
width = 685;
}
);
note = uni00B5;
unicode = 00B5;
},
{
glyphname = paragraph;
layers = (
{
layerId = "C1D5D18F-17E8-4A1F-B101-925564B9D079";
paths = (
{
closed = 1;
nodes = (
"322 366 OFFCURVE",
"319 367 QCURVE SMOOTH",
"305 370 OFFCURVE",
"302 373 QCURVE",
"273 394 OFFCURVE",
"286 445 QCURVE SMOOTH",
"293 471 OFFCURVE",
"324 519 OFFCURVE",
"343 534 QCURVE SMOOTH",
"357 544 OFFCURVE",
"371 551 QCURVE",
"351 461 LINE",
"331 364 LINE",
"331 364 LINE"
);
},
{
closed = 1;
nodes = (
"715 657 OFFCURVE",
"696 677 QCURVE",
"684 695 OFFCURVE",
"662 699 QCURVE SMOOTH",
"622 706 OFFCURVE",
"570 714 OFFCURVE",
"477 717 OFFCURVE",
"404 704 OFFCURVE",
"312 668 OFFCURVE",
"273 638 QCURVE SMOOTH",
"227 603 OFFCURVE",
"193 553 QCURVE SMOOTH",
"160 503 OFFCURVE",
"147 450 QCURVE SMOOTH",
"133 393 OFFCURVE",
"157 288 OFFCURVE",
"201 255 QCURVE SMOOTH",
"222 239 OFFCURVE",
"259 231 QCURVE SMOOTH",
"280 226 LINE SMOOTH",
"289 224 OFFCURVE",
"295 222 QCURVE SMOOTH",
"297 221 OFFCURVE",
"300 221 QCURVE",
"258 21 OFFCURVE",
"224 -130 QCURVE SMOOTH",
"218 -159 OFFCURVE",
"249 -200 OFFCURVE",
"307 -201 OFFCURVE",
"356 -161 OFFCURVE",
"363 -132 QCURVE SMOOTH",
"405 52 OFFCURVE",
"516 575 QCURVE",
"534 573 OFFCURVE",
"557 570 QCURVE",
"535 464 OFFCURVE",
"440 -5 OFFCURVE",
"414 -130 QCURVE SMOOTH",
"408 -159 OFFCURVE",
"440 -200 OFFCURVE",
"498 -200 OFFCURVE",
"548 -159 OFFCURVE",
"554 -130 QCURVE SMOOTH",
"581 -4 OFFCURVE",
"682 500 OFFCURVE",
"709 626 QCURVE",
"709 626 LINE"
);
}
);
width = 661;
}
);
note = paragraph;
unicode = 00B6;
},
{
glyphname = periodcentered;
layers = (
{
layerId = "C1D5D18F-17E8-4A1F-B101-925564B9D079";
paths = (
{
closed = 1;
nodes = (
"234 403 OFFCURVE",
"176 403 OFFCURVE",
"126 362 OFFCURVE",
"114 304 OFFCURVE",
"146 263 OFFCURVE",
"204 263 OFFCURVE",
"254 304 OFFCURVE",
"266 362 OFFCURVE",
"250 382 QCURVE",
"250 382 LINE"
);
}
);
width = 240;
}
);
note = periodcentered;
unicode = 00B7;
},
{
glyphname = cedilla;
layers = (
{
layerId = "C1D5D18F-17E8-4A1F-B101-925564B9D079";
paths = (
{
closed = 1;
nodes = (
"219 -185 OFFCURVE",
"275 -135 OFFCURVE",
"298 -76 OFFCURVE",
"295 -19 OFFCURVE",
"287 1 QCURVE",
"274 21 OFFCURVE",
"239 48 OFFCURVE",
"223 56 QCURVE SMOOTH",
"204 65 OFFCURVE",
"184 70 QCURVE",
"160 80 OFFCURVE",
"115 60 OFFCURVE",
"91 27 OFFCURVE",
"97 -9 OFFCURVE",
"124 -15 QCURVE SMOOTH",
"200 -36 OFFCURVE",
"209 -73 OFFCURVE",
"196 -91 QCURVE SMOOTH",
"181 -114 OFFCURVE",
"166 -115 QCURVE",
"147 -119 OFFCURVE",
"84 -92 QCURVE",
"68 -88 OFFCURVE",
"35 -107 OFFCURVE",
"20 -141 OFFCURVE",
"32 -170 OFFCURVE",
"47 -177 QCURVE SMOOTH",
"66 -186 OFFCURVE",
"87 -192 QCURVE SMOOTH",
"104 -197 OFFCURVE",
"148 -202 OFFCURVE",
"168 -197 QCURVE",
"168 -197 LINE"
);
}
);
width = 385;
}
);
note = cedilla;
unicode = 00B8;
},
{
glyphname = uni00B9;
layers = (
{
layerId = "C1D5D18F-17E8-4A1F-B101-925564B9D079";
paths = (
{
closed = 1;
nodes = (
"406 656 OFFCURVE",
"406 663 QCURVE",
"413 685 OFFCURVE",
"392 719 OFFCURVE",
"349 723 OFFCURVE",
"329 709 QCURVE SMOOTH",
"299 688 LINE SMOOTH",
"284 677 OFFCURVE",
"273 670 OFFCURVE",
"257 658 OFFCURVE",
"254 656 OFFCURVE",
"240 645 OFFCURVE",
"234 641 OFFCURVE",
"221 631 QCURVE SMOOTH",
"198 613 LINE SMOOTH",
"179 598 OFFCURVE",
"167 554 OFFCURVE",
"190 522 OFFCURVE",
"234 520 OFFCURVE",
"253 535 QCURVE SMOOTH",
"277 553 LINE",
"267 512 OFFCURVE",
"236 354 OFFCURVE",
"228 317 QCURVE SMOOTH",
"223 295 OFFCURVE",
"248 264 OFFCURVE",
"292 264 OFFCURVE",
"329 295 OFFCURVE",
"334 317 QCURVE SMOOTH",
"367 483 LINE SMOOTH",
"401 649 OFFCURVE",
"404 649 QCURVE",
"404 649 LINE"
);
}
);
width = 344;
}
);
note = uni00B9;
unicode = 00B9;
},
{
glyphname = ordmasculine;
layers = (
{
layerId = "C1D5D18F-17E8-4A1F-B101-925564B9D079";
paths = (
{
closed = 1;
nodes = (
"367 596 OFFCURVE",
"370 594 QCURVE SMOOTH",
"386 586 OFFCURVE",
"390 579 QCURVE SMOOTH",
"405 551 OFFCURVE",
"373 522 QCURVE SMOOTH",
"357 508 OFFCURVE",
"320 498 OFFCURVE",
"304 505 QCURVE SMOOTH",
"290 511 OFFCURVE",
"278 538 OFFCURVE",
"279 555 QCURVE SMOOTH",
"283 588 OFFCURVE",
"315 602 QCURVE",
"320 603 OFFCURVE",
"332 604 QCURVE SMOOTH",
"338 604 LINE",
"344 604 LINE",
"350 604 LINE",
"352 604 LINE",
"352 604 LINE"
);
},
{
closed = 1;
nodes = (
"416 710 OFFCURVE",
"403 713 QCURVE",
"377 732 OFFCURVE",
"344 713 QCURVE",
"315 711 OFFCURVE",
"290 700 QCURVE SMOOTH",
"238 678 OFFCURVE",
"176 593 OFFCURVE",
"170 546 QCURVE SMOOTH",
"164 501 OFFCURVE",
"200 423 OFFCURVE",
"241 405 QCURVE SMOOTH",
"293 384 OFFCURVE",
"398 412 OFFCURVE",
"440 450 QCURVE SMOOTH",
"468 476 OFFCURVE",
"503 539 OFFCURVE",
"506 576 QCURVE SMOOTH",
"508 613 OFFCURVE",
"490 645 QCURVE SMOOTH",
"475 671 OFFCURVE",
"441 691 QCURVE SMOOTH",
"425 700 LINE",
"425 700 LINE"
);
}
);
width = 437;
}
);
note = ordmasculine;
unicode = 00BA;
},
{
glyphname = guillemotright;
layers = (
{
layerId = "C1D5D18F-17E8-4A1F-B101-925564B9D079";
paths = (
{
closed = 1;
nodes = (
"136 86 OFFCURVE",
"178 86 OFFCURVE",
"198 98 QCURVE SMOOTH",
"291 153 OFFCURVE",
"324 177 QCURVE SMOOTH",
"386 222 OFFCURVE",
"396 270 QCURVE SMOOTH",
"398 279 OFFCURVE",
"398 288 QCURVE SMOOTH",
"398 333 OFFCURVE",
"347 374 QCURVE SMOOTH",
"335 383 OFFCURVE",
"305 404 QCURVE SMOOTH",
"275 425 OFFCURVE",
"260 436 QCURVE SMOOTH",
"258 438 OFFCURVE",
"255 439 QCURVE",
"254 440 LINE SMOOTH",
"233 455 OFFCURVE",
"174 443 OFFCURVE",
"133 394 OFFCURVE",
"133 337 OFFCURVE",
"155 322 QCURVE SMOOTH",
"227 271 LINE",
"200 254 OFFCURVE",
"139 218 QCURVE SMOOTH",
"111 202 OFFCURVE",
"88 145 OFFCURVE",
"99 121 QCURVE SMOOTH",
"106 106 OFFCURVE",
"121 98 QCURVE",
"121 98 LINE"
);
},
{
closed = 1;
nodes = (
"497 452 OFFCURVE",
"437 440 OFFCURVE",
"397 391 OFFCURVE",
"396 334 OFFCURVE",
"418 319 QCURVE SMOOTH",
"490 268 LINE",
"464 251 OFFCURVE",
"402 215 QCURVE SMOOTH",
"375 199 OFFCURVE",
"352 142 OFFCURVE",
"373 94 OFFCURVE",
"428 83 OFFCURVE",
"456 99 QCURVE SMOOTH",
"548 154 OFFCURVE",
"581 178 QCURVE SMOOTH",
"654 231 OFFCURVE",
"655 289 QCURVE SMOOTH",
"655 334 OFFCURVE",
"604 375 QCURVE SMOOTH",
"592 384 OFFCURVE",
"563 405 QCURVE SMOOTH",
"532 426 OFFCURVE",
"517 437 QCURVE",
"517 437 LINE"
);
}
);
width = 655;
}
);
note = guillemotright;
unicode = 00BB;
},
{
glyphname = onequarter;
layers = (
{
layerId = "C1D5D18F-17E8-4A1F-B101-925564B9D079";
paths = (
{
closed = 1;
nodes = (
"714 240 LINE",
"694 239 LINE",
"735 280 LINE",
"725 241 LINE",
"725 241 LINE"
);
},
{
closed = 1;
nodes = (
"698 90 OFFCURVE",
"690 56 QCURVE SMOOTH",
"686 34 OFFCURVE",
"710 3 OFFCURVE",
"754 3 OFFCURVE",
"792 34 OFFCURVE",
"796 56 QCURVE SMOOTH",
"804 92 OFFCURVE",
"813 130 QCURVE",
"843 130 LINE SMOOTH",
"865 130 OFFCURVE",
"903 161 OFFCURVE",
"912 205 OFFCURVE",
"888 236 OFFCURVE",
"866 236 QCURVE SMOOTH",
"841 236 LINE",
"858 301 OFFCURVE",
"898 431 QCURVE SMOOTH",
"905 452 OFFCURVE",
"884 486 OFFCURVE",
"862 489 QCURVE SMOOTH",
"847 490 OFFCURVE",
"815 475 OFFCURVE",
"804 461 QCURVE SMOOTH",
"801 458 LINE",
"671 332 LINE",
"551 215 LINE",
"546 211 LINE SMOOTH",
"525 195 OFFCURVE",
"520 170 QCURVE SMOOTH",
"515 148 OFFCURVE",
"541 118 OFFCURVE",
"563 118 QCURVE SMOOTH",
"608 119 OFFCURVE",
"706 125 QCURVE",
"706 125 LINE"
);
},
{
closed = 1;
nodes = (
"173 42 OFFCURVE",
"177 -11 OFFCURVE",
"221 -38 OFFCURVE",
"278 -23 OFFCURVE",
"296 2 QCURVE SMOOTH",
"393 128 OFFCURVE",
"478 230 QCURVE SMOOTH",
"651 434 LINE",
"844 653 LINE SMOOTH",
"864 676 OFFCURVE",
"865 731 OFFCURVE",
"825 762 OFFCURVE",
"768 751 OFFCURVE",
"748 728 QCURVE SMOOTH",
"438 372 LINE SMOOTH",
"308 219 OFFCURVE",
"192 67 QCURVE",
"192 67 LINE"
);
},
{
closed = 1;
nodes = (
"408 666 OFFCURVE",
"409 673 QCURVE",
"415 695 OFFCURVE",
"394 729 OFFCURVE",
"351 733 OFFCURVE",
"331 719 QCURVE SMOOTH",
"301 698 LINE SMOOTH",
"287 687 OFFCURVE",
"275 680 OFFCURVE",
"259 668 OFFCURVE",
"256 666 OFFCURVE",
"242 655 OFFCURVE",
"236 651 OFFCURVE",
"223 641 QCURVE SMOOTH",
"200 623 LINE SMOOTH",
"181 608 OFFCURVE",
"169 564 OFFCURVE",
"193 532 OFFCURVE",
"236 530 OFFCURVE",
"255 545 QCURVE SMOOTH",
"279 563 LINE",
"269 522 OFFCURVE",
"238 364 OFFCURVE",
"230 327 QCURVE SMOOTH",
"225 305 OFFCURVE",
"250 274 OFFCURVE",
"294 274 OFFCURVE",
"331 305 OFFCURVE",
"336 327 QCURVE SMOOTH",
"369 493 LINE SMOOTH",
"404 659 OFFCURVE",
"407 659 QCURVE",
"407 659 LINE"
);
}
);
userData = {
assembly = "SVTCA[0]\011/* SetFreedomAndProjectionVectorToAxis */
PUSHW[ ]\011/* 1 value pushed */
0 
RCVT[ ]\011/* ReadCVT */
IF[ ]\011/* If */
PUSHW[ ]\011/* 1 value pushed */
51 
MDAP[1]\011/* MoveDirectAbsPt */
ELSE[ ]\011/* Else */
PUSHW[ ]\011/* 2 values pushed */
51 6 
MIAP[0]\011/* MoveIndirectAbsPt */
EIF[ ]\011/* EndIf */
PUSHW[ ]\011/* 2 values pushed */
0 1 
MIRP[10100]\011/* MoveIndirectRelPt */
PUSHW[ ]\011/* 1 value pushed */
2 
MDRP[10000]\011/* MoveDirectRelPt */
PUSHW[ ]\011/* 1 value pushed */
2 
MDAP[1]\011/* MoveDirectAbsPt */
PUSHW[ ]\011/* 3 values pushed */
4 51 0 
SRP1[ ]\011/* SetRefPoint1 */
SRP2[ ]\011/* SetRefPoint2 */
IP[ ]\011/* InterpolatePts */
PUSHW[ ]\011/* 1 value pushed */
23 
MDRP[10000]\011/* MoveDirectRelPt */
PUSHW[ ]\011/* 1 value pushed */
24 
MDRP[10000]\011/* MoveDirectRelPt */
IUP[0]\011/* InterpolateUntPts */
IUP[1]\011/* InterpolateUntPts */";
};
width = 919;
}
);
note = onequarter;
unicode = 00BC;
},
{
glyphname = onehalf;
layers = (
{
layerId = "C1D5D18F-17E8-4A1F-B101-925564B9D079";
paths = (
{
closed = 1;
nodes = (
"136 33 OFFCURVE",
"135 -23 OFFCURVE",
"177 -55 OFFCURVE",
"235 -44 OFFCURVE",
"256 -20 QCURVE SMOOTH",
"330 64 LINE",
"417 162 LINE",
"490 247 LINE",
"630 422 LINE SMOOTH",
"737 556 OFFCURVE",
"798 628 QCURVE SMOOTH",
"819 652 OFFCURVE",
"819 709 OFFCURVE",
"778 740 OFFCURVE",
"718 728 OFFCURVE",
"698 704 QCURVE SMOOTH",
"636 632 OFFCURVE",
"528 496 QCURVE SMOOTH",
"385 319 LINE SMOOTH",
"353 279 OFFCURVE",
"315 236 QCURVE SMOOTH",
"230 140 LINE",
"157 58 LINE",
"157 58 LINE"
);
},
{
closed = 1;
nodes = (
"408 666 OFFCURVE",
"409 673 QCURVE",
"415 695 OFFCURVE",
"394 729 OFFCURVE",
"351 733 OFFCURVE",
"331 719 QCURVE SMOOTH",
"301 698 LINE SMOOTH",
"287 687 OFFCURVE",
"275 680 OFFCURVE",
"259 668 OFFCURVE",
"256 666 OFFCURVE",
"242 655 OFFCURVE",
"236 651 OFFCURVE",
"223 641 QCURVE SMOOTH",
"200 623 LINE SMOOTH",
"181 608 OFFCURVE",
"169 564 OFFCURVE",
"193 532 OFFCURVE",
"236 530 OFFCURVE",
"255 545 QCURVE SMOOTH",
"279 563 LINE",
"269 522 OFFCURVE",
"238 364 OFFCURVE",
"230 327 QCURVE SMOOTH",
"225 305 OFFCURVE",
"250 274 OFFCURVE",
"294 274 OFFCURVE",
"331 305 OFFCURVE",
"336 327 QCURVE SMOOTH",
"369 493 LINE SMOOTH",
"404 659 OFFCURVE",
"407 659 QCURVE",
"407 659 LINE"
);
},
{
closed = 1;
nodes = (
"556 279 OFFCURVE",
"561 238 OFFCURVE",
"597 219 OFFCURVE",
"641 233 OFFCURVE",
"655 253 QCURVE SMOOTH",
"661 261 OFFCURVE",
"668 273 QCURVE SMOOTH",
"669 275 OFFCURVE",
"672 281 OFFCURVE",
"675 286 OFFCURVE",
"677 288 QCURVE",
"682 297 OFFCURVE",
"684 299 QCURVE SMOOTH",
"693 306 OFFCURVE",
"732 317 OFFCURVE",
"754 316 QCURVE SMOOTH",
"789 313 OFFCURVE",
"789 297 QCURVE",
"787 293 OFFCURVE",
"783 288 QCURVE",
"773 281 LINE SMOOTH",
"760 272 OFFCURVE",
"740 259 QCURVE SMOOTH",
"729 251 OFFCURVE",
"715 242 QCURVE SMOOTH",
"693 229 LINE SMOOTH",
"684 224 OFFCURVE",
"683 222 QCURVE",
"600 166 OFFCURVE",
"527 93 QCURVE",
"507 78 OFFCURVE",
"496 34 OFFCURVE",
"518 1 OFFCURVE",
"540 0 QCURVE SMOOTH",
"553 -1 OFFCURVE",
"590 -3 OFFCURVE",
"599 -3 OFFCURVE",
"622 -4 OFFCURVE",
"626 -4 OFFCURVE",
"645 -5 OFFCURVE",
"655 -4 OFFCURVE",
"682 -4 OFFCURVE",
"708 -3 OFFCURVE",
"755 -2 OFFCURVE",
"782 -2 QCURVE SMOOTH",
"804 -2 OFFCURVE",
"841 30 OFFCURVE",
"850 74 OFFCURVE",
"825 104 OFFCURVE",
"803 104 QCURVE SMOOTH",
"680 102 LINE",
"704 121 OFFCURVE",
"731 140 QCURVE SMOOTH",
"732 141 OFFCURVE",
"748 150 OFFCURVE",
"774 166 OFFCURVE",
"784 174 QCURVE",
"809 189 OFFCURVE",
"823 199 QCURVE SMOOTH",
"847 216 OFFCURVE",
"858 228 QCURVE SMOOTH",
"898 274 OFFCURVE",
"897 319 QCURVE SMOOTH",
"897 369 OFFCURVE",
"828 418 OFFCURVE",
"783 422 QCURVE SMOOTH",
"744 425 OFFCURVE",
"656 400 OFFCURVE",
"624 373 QCURVE SMOOTH",
"603 356 OFFCURVE",
"586 327 QCURVE",
"586 326 OFFCURVE",
"576 310 QCURVE SMOOTH",
"572 303 OFFCURVE",
"569 299 QCURVE",
"569 299 LINE"
);
}
);
userData = {
assembly = "SVTCA[0]\011/* SetFreedomAndProjectionVectorToAxis */
PUSHW[ ]\011/* 1 value pushed */
0 
RCVT[ ]\011/* ReadCVT */
IF[ ]\011/* If */
PUSHW[ ]\011/* 1 value pushed */
85 
MDAP[1]\011/* MoveDirectAbsPt */
ELSE[ ]\011/* Else */
PUSHW[ ]\011/* 2 values pushed */
85 6 
MIAP[0]\011/* MoveIndirectAbsPt */
EIF[ ]\011/* EndIf */
PUSHW[ ]\011/* 1 value pushed */
0 
RCVT[ ]\011/* ReadCVT */
IF[ ]\011/* If */
PUSHW[ ]\011/* 1 value pushed */
96 
MDAP[1]\011/* MoveDirectAbsPt */
ELSE[ ]\011/* Else */
PUSHW[ ]\011/* 2 values pushed */
96 6 
MIAP[0]\011/* MoveIndirectAbsPt */
EIF[ ]\011/* EndIf */
PUSHW[ ]\011/* 1 value pushed */
85 
SRP0[ ]\011/* SetRefPoint0 */
PUSHW[ ]\011/* 2 values pushed */
79 3 
MIRP[10100]\011/* MoveIndirectRelPt */
IUP[0]\011/* InterpolateUntPts */
IUP[1]\011/* InterpolateUntPts */";
};
width = 886;
}
);
note = onehalf;
unicode = 00BD;
},
